<svg width="404" height="125" xmlns="http://www.w3.org/2000/svg" xmlns:xlink="http://www.w3.org/1999/xlink" overflow="hidden"><defs><clipPath id="clip0"><rect x="441" y="299" width="404" height="125"/></clipPath><clipPath id="clip1"><rect x="460" y="310" width="360" height="100"/></clipPath><clipPath id="clip2"><rect x="460" y="310" width="360" height="100"/></clipPath><clipPath id="clip3"><rect x="460" y="310" width="360" height="100"/></clipPath></defs><g clip-path="url(#clip0)" transform="translate(-441 -299)"><g clip-path="url(#clip1)"><g clip-path="url(#clip2)"><g clip-path="url(#clip3)"><path d="M480 350 540 350" stroke="#000000" stroke-width="2" stroke-linecap="square" fill="none"/><path d="M480 330 530 330" stroke="#000000" stroke-width="2" stroke-linecap="square" fill="none"/><path d="M600 340 670 340" stroke="#000000" stroke-width="2" stroke-linecap="square" fill="none"/><path d="M740 340 800 340" stroke="#000000" stroke-width="2" stroke-linecap="square" fill="none"/><path d="M740 390 800 390" stroke="#000000" stroke-width="2" stroke-linecap="square" fill="none"/><path d="M740 380 740 390" stroke="#000000" stroke-width="2" stroke-linecap="square" fill="none"/><path d="M740 360 740 370" stroke="#000000" stroke-width="2" stroke-linecap="square" fill="none"/><path d="M740 370 740 380" stroke="#000000" stroke-width="2" stroke-linecap="square" fill="none"/><path d="M740 350 740 360" stroke="#000000" stroke-width="2" stroke-linecap="square" fill="none"/><path d="M740 340 740 350" stroke="#000000" stroke-width="2" stroke-linecap="square" fill="none"/><path d="M670 340 677 340" stroke="#000000" stroke-width="2" stroke-linecap="square" fill="none"/><path d="M679 340 679 358 707 340 679 322 679 340M707 340C707 338.343 708.343 337 710 337 711.657 337 713 338.343 713 340 713 341.657 711.657 343 710 343 708.343 343 707 341.657 707 340" stroke="#000000" stroke-width="2" stroke-linecap="square" fill="none"/><path d="M715 340 740 340" stroke="#000000" stroke-width="2" stroke-linecap="square" fill="none"/><path d="M530 330 545 330" stroke="#000000" stroke-width="2" stroke-linecap="square" fill="none"/><path d="M530 350 545 350" stroke="#000000" stroke-width="2" stroke-linecap="square" fill="none"/><path d="M539 320C552.333 333.333 552.333 346.667 539 360M538 360C561.333 356.667 578 350 588 340 578 330 561.333 323.333 538 320" stroke="#000000" stroke-width="2" stroke-linecap="square" fill="none"/><path d="M590 340 600 340" stroke="#000000" stroke-width="2" stroke-linecap="square" fill="none"/><path d="M742 340C742 341.105 741.105 342 740 342 738.895 342 738 341.105 738 340 738 338.895 738.895 338 740 338 741.105 338 742 338.895 742 340Z" stroke="#000000" stroke-width="2"/></g></g></g><text font-family="Calibri,Calibri_MSFontService,sans-serif" font-weight="400" font-size="24" transform="translate(456.504 329)">B<tspan x="0" y="35">B</tspan><tspan x="360" y="15">B</tspan><tspan x="360" y="73">B</tspan></text></g></svg>