<svg viewBox="0 0 96 96" xmlns="http://www.w3.org/2000/svg" xmlns:xlink="http://www.w3.org/1999/xlink" id="Icons_DevilFace" overflow="hidden"><path d="M86.36 11.61C85.6333 8.43707 84.2728 5.44379 82.36 2.81 81.7105 1.91654 80.4598 1.71874 79.5663 2.3682 79.0986 2.7082 78.8009 3.23399 78.75 3.81 78.3476 9.76356 73.9438 14.6787 68.07 15.73 55.7815 8.08674 40.2185 8.08674 27.93 15.73 22.0732 14.6834 17.6744 9.7944 17.25 3.86 17.1528 2.75971 16.1821 1.94653 15.0818 2.04371 14.5058 2.09458 13.98 2.39227 13.64 2.86 11.7272 5.49379 10.3667 8.48707 9.64 11.66 7.93 19 9.7 26.29 14 31 4.62742 49.7777 12.2518 72.598 31.0294 81.9706 49.8071 91.3431 72.6274 83.7188 82 64.9411 87.3333 54.256 87.3333 41.6852 82 31 86.3 26.29 88.07 19 86.36 11.61ZM53.51 31.73C56.2941 28.4423 60.4023 26.5716 64.71 26.63 66.0282 26.5916 67.3442 26.7603 68.61 27.13 69.609 27.3918 70.2066 28.414 69.9448 29.413 69.9345 29.4524 69.9229 29.4914 69.91 29.53 69.6241 30.5969 68.5275 31.2301 67.4605 30.9443 67.4436 30.9397 67.4268 30.935 67.41 30.93 63.4254 29.8856 59.1942 31.2055 56.51 34.33 55.8943 35.247 54.6517 35.4913 53.7347 34.8755 52.8176 34.2598 52.5734 33.0172 53.1891 32.1002 53.2805 31.9641 53.3883 31.8398 53.51 31.73ZM42.51 31.73C43.3302 32.4698 43.3954 33.7345 42.6555 34.5547 41.9157 35.3749 40.6511 35.44 39.8308 34.7002 39.7091 34.5904 39.6014 34.4661 39.51 34.33 36.8258 31.2055 32.5946 29.8856 28.61 30.93 27.5509 31.2438 26.438 30.6396 26.1243 29.5805 26.1193 29.5638 26.1145 29.5469 26.11 29.53 25.7835 28.5502 26.3132 27.4912 27.293 27.1648 27.3316 27.1519 27.3706 27.1403 27.41 27.13 28.6758 26.7603 29.9918 26.5916 31.31 26.63 35.6212 26.5686 39.7337 28.4396 42.52 31.73ZM26 42C26 38.6863 28.6863 36 32 36 35.3137 36 38 38.6863 38 42 38 45.3137 35.3137 48 32 48 28.6863 48 26 45.3137 26 42ZM67.83 64.22C59.422 75.1718 43.7278 77.234 32.776 68.826 31.0463 67.4981 29.4979 65.9496 28.17 64.22 27.4962 63.3446 27.6596 62.0888 28.535 61.415 29.4104 60.7412 30.6662 60.9046 31.34 61.78 38.4007 70.9811 51.5835 72.7162 60.7845 65.6555 62.2401 64.5385 63.543 63.2356 64.66 61.78 65.3338 60.9046 66.5896 60.7412 67.465 61.415 68.3404 62.0888 68.5038 63.3446 67.83 64.22ZM64 48C60.6863 48 58 45.3137 58 42 58 38.6863 60.6863 36 64 36 67.3137 36 70 38.6863 70 42 70 45.3137 67.3137 48 64 48Z"/></svg>