<svg width="154" height="793" xmlns="http://www.w3.org/2000/svg" xmlns:xlink="http://www.w3.org/1999/xlink" overflow="hidden"><defs><clipPath id="clip0"><rect x="134" y="36" width="154" height="793"/></clipPath><clipPath id="clip1"><path d="M255.471 800.191 194.629 827.897 166.922 767.055 227.764 739.349Z" fill-rule="evenodd" clip-rule="evenodd"/></clipPath><clipPath id="clip2"><path d="M255.471 800.191 194.629 827.897 166.922 767.055 227.764 739.349Z" fill-rule="evenodd" clip-rule="evenodd"/></clipPath><clipPath id="clip3"><path d="M255.471 800.191 194.629 827.897 166.922 767.055 227.764 739.349Z" fill-rule="evenodd" clip-rule="evenodd"/></clipPath><clipPath id="clip4"><path d="M195.369 692.138 244.988 736.941 200.184 786.56 150.566 741.756Z" fill-rule="evenodd" clip-rule="evenodd"/></clipPath><clipPath id="clip5"><path d="M195.369 692.138 244.988 736.941 200.184 786.56 150.566 741.756Z" fill-rule="evenodd" clip-rule="evenodd"/></clipPath><clipPath id="clip6"><path d="M195.369 692.138 244.988 736.941 200.184 786.56 150.566 741.756Z" fill-rule="evenodd" clip-rule="evenodd"/></clipPath><clipPath id="clip7"><path d="M203.011 597.239 252.63 642.042 207.826 691.661 158.208 646.857Z" fill-rule="evenodd" clip-rule="evenodd"/></clipPath><clipPath id="clip8"><path d="M203.011 597.239 252.63 642.042 207.826 691.661 158.208 646.857Z" fill-rule="evenodd" clip-rule="evenodd"/></clipPath><clipPath id="clip9"><path d="M203.011 597.239 252.63 642.042 207.826 691.661 158.208 646.857Z" fill-rule="evenodd" clip-rule="evenodd"/></clipPath><clipPath id="clip10"><path d="M190.154 730.787 239.772 775.591 194.969 825.21 145.35 780.406Z" fill-rule="evenodd" clip-rule="evenodd"/></clipPath><clipPath id="clip11"><path d="M190.154 730.787 239.772 775.591 194.969 825.21 145.35 780.406Z" fill-rule="evenodd" clip-rule="evenodd"/></clipPath><clipPath id="clip12"><path d="M190.154 730.787 239.772 775.591 194.969 825.21 145.35 780.406Z" fill-rule="evenodd" clip-rule="evenodd"/></clipPath><clipPath id="clip13"><path d="M214.461 754.291 176.693 703.094 227.889 665.327 265.657 716.523Z" fill-rule="evenodd" clip-rule="evenodd"/></clipPath><clipPath id="clip14"><path d="M214.461 754.291 176.693 703.094 227.889 665.327 265.657 716.523Z" fill-rule="evenodd" clip-rule="evenodd"/></clipPath><clipPath id="clip15"><path d="M214.461 754.291 176.693 703.094 227.889 665.327 265.657 716.523Z" fill-rule="evenodd" clip-rule="evenodd"/></clipPath><clipPath id="clip16"><path d="M140.083 691.596 204.325 625.166 270.754 689.408 206.513 755.837Z" fill-rule="evenodd" clip-rule="evenodd"/></clipPath><clipPath id="clip17"><path d="M140.083 691.596 204.325 625.166 270.754 689.408 206.513 755.837Z" fill-rule="evenodd" clip-rule="evenodd"/></clipPath><clipPath id="clip18"><path d="M140.083 691.596 204.325 625.166 270.754 689.408 206.513 755.837Z" fill-rule="evenodd" clip-rule="evenodd"/></clipPath><clipPath id="clip19"><path d="M181.922 545.056 192.879 476.45 261.486 487.407 250.528 556.013Z" fill-rule="evenodd" clip-rule="evenodd"/></clipPath><clipPath id="clip20"><path d="M181.922 545.056 192.879 476.45 261.486 487.407 250.528 556.013Z" fill-rule="evenodd" clip-rule="evenodd"/></clipPath><clipPath id="clip21"><path d="M181.922 545.056 192.879 476.45 261.486 487.407 250.528 556.013Z" fill-rule="evenodd" clip-rule="evenodd"/></clipPath><clipPath id="clip22"><path d="M249.264 476.84 222.927 514.532 185.235 488.195 211.572 450.503Z" fill-rule="evenodd" clip-rule="evenodd"/></clipPath><clipPath id="clip23"><path d="M249.264 476.84 222.927 514.532 185.235 488.195 211.572 450.503Z" fill-rule="evenodd" clip-rule="evenodd"/></clipPath><clipPath id="clip24"><path d="M249.264 476.84 222.927 514.532 185.235 488.195 211.572 450.503Z" fill-rule="evenodd" clip-rule="evenodd"/></clipPath><clipPath id="clip25"><path d="M217.25 657.297 201.681 724.054 134.923 708.485 150.492 641.727Z" fill-rule="evenodd" clip-rule="evenodd"/></clipPath><clipPath id="clip26"><path d="M217.25 657.297 201.681 724.054 134.923 708.485 150.492 641.727Z" fill-rule="evenodd" clip-rule="evenodd"/></clipPath><clipPath id="clip27"><path d="M217.25 657.297 201.681 724.054 134.923 708.485 150.492 641.727Z" fill-rule="evenodd" clip-rule="evenodd"/></clipPath><clipPath id="clip28"><path d="M216.48 649.075 165.306 603.467 210.915 552.293 262.089 597.901Z" fill-rule="evenodd" clip-rule="evenodd"/></clipPath><clipPath id="clip29"><path d="M216.48 649.075 165.306 603.467 210.915 552.293 262.089 597.901Z" fill-rule="evenodd" clip-rule="evenodd"/></clipPath><clipPath id="clip30"><path d="M216.48 649.075 165.306 603.467 210.915 552.293 262.089 597.901Z" fill-rule="evenodd" clip-rule="evenodd"/></clipPath><clipPath id="clip31"><path d="M228.984 540.163 200.622 600.702 140.083 572.34 168.445 511.801Z" fill-rule="evenodd" clip-rule="evenodd"/></clipPath><clipPath id="clip32"><path d="M228.984 540.163 200.622 600.702 140.083 572.34 168.445 511.801Z" fill-rule="evenodd" clip-rule="evenodd"/></clipPath><clipPath id="clip33"><path d="M228.984 540.163 200.622 600.702 140.083 572.34 168.445 511.801Z" fill-rule="evenodd" clip-rule="evenodd"/></clipPath><clipPath id="clip34"><path d="M246.903 62.7854 257.589 151.387 170.306 161.914 159.62 73.3128Z" fill-rule="evenodd" clip-rule="evenodd"/></clipPath><clipPath id="clip35"><path d="M246.903 62.7854 257.589 151.387 170.306 161.914 159.62 73.3128Z" fill-rule="evenodd" clip-rule="evenodd"/></clipPath><clipPath id="clip36"><path d="M246.903 62.7854 257.589 151.387 170.306 161.914 159.62 73.3128Z" fill-rule="evenodd" clip-rule="evenodd"/></clipPath><clipPath id="clip37"><path d="M237.247 459.134 192.367 418.609 233.504 373.051 278.383 413.576Z" fill-rule="evenodd" clip-rule="evenodd"/></clipPath><clipPath id="clip38"><path d="M237.247 459.134 192.367 418.609 233.504 373.051 278.383 413.576Z" fill-rule="evenodd" clip-rule="evenodd"/></clipPath><clipPath id="clip39"><path d="M237.247 459.134 192.367 418.609 233.504 373.051 278.383 413.576Z" fill-rule="evenodd" clip-rule="evenodd"/></clipPath><clipPath id="clip40"><path d="M171.246 339.057 163.105 248.956 251.866 240.936 260.007 331.038Z" fill-rule="evenodd" clip-rule="evenodd"/></clipPath><clipPath id="clip41"><path d="M171.246 339.057 163.105 248.956 251.866 240.936 260.007 331.038Z" fill-rule="evenodd" clip-rule="evenodd"/></clipPath><clipPath id="clip42"><path d="M171.246 339.057 163.105 248.956 251.866 240.936 260.007 331.038Z" fill-rule="evenodd" clip-rule="evenodd"/></clipPath><clipPath id="clip43"><path d="M156.938 590.071 194.799 509.257 274.411 546.554 236.551 627.368Z" fill-rule="evenodd" clip-rule="evenodd"/></clipPath><clipPath id="clip44"><path d="M156.938 590.071 194.799 509.257 274.411 546.554 236.551 627.368Z" fill-rule="evenodd" clip-rule="evenodd"/></clipPath><clipPath id="clip45"><path d="M156.938 590.071 194.799 509.257 274.411 546.554 236.551 627.368Z" fill-rule="evenodd" clip-rule="evenodd"/></clipPath><clipPath id="clip46"><path d="M207.689 227.366 142.438 168.447 202.247 102.21 267.498 161.13Z" fill-rule="evenodd" clip-rule="evenodd"/></clipPath><clipPath id="clip47"><path d="M207.689 227.366 142.438 168.447 202.247 102.21 267.498 161.13Z" fill-rule="evenodd" clip-rule="evenodd"/></clipPath><clipPath id="clip48"><path d="M207.689 227.366 142.438 168.447 202.247 102.21 267.498 161.13Z" fill-rule="evenodd" clip-rule="evenodd"/></clipPath><clipPath id="clip49"><path d="M223.07 553.145 159.224 487.592 223.802 424.696 287.648 490.249Z" fill-rule="evenodd" clip-rule="evenodd"/></clipPath><clipPath id="clip50"><path d="M223.07 553.145 159.224 487.592 223.802 424.696 287.648 490.249Z" fill-rule="evenodd" clip-rule="evenodd"/></clipPath><clipPath id="clip51"><path d="M223.07 553.145 159.224 487.592 223.802 424.696 287.648 490.249Z" fill-rule="evenodd" clip-rule="evenodd"/></clipPath><clipPath id="clip52"><path d="M164.425 416.417 183.744 358.155 241.14 377.187 221.82 435.449Z" fill-rule="evenodd" clip-rule="evenodd"/></clipPath><clipPath id="clip53"><path d="M164.425 416.417 183.744 358.155 241.14 377.187 221.821 435.449Z" fill-rule="evenodd" clip-rule="evenodd"/></clipPath><clipPath id="clip54"><path d="M164.425 416.417 183.744 358.155 241.14 377.187 221.821 435.449Z" fill-rule="evenodd" clip-rule="evenodd"/></clipPath><clipPath id="clip55"><path d="M185.977 548.831 141.098 508.306 182.234 462.748 227.114 503.273Z" fill-rule="evenodd" clip-rule="evenodd"/></clipPath><clipPath id="clip56"><path d="M185.977 548.831 141.098 508.306 182.234 462.748 227.114 503.273Z" fill-rule="evenodd" clip-rule="evenodd"/></clipPath><clipPath id="clip57"><path d="M185.977 548.831 141.098 508.306 182.234 462.748 227.114 503.273Z" fill-rule="evenodd" clip-rule="evenodd"/></clipPath><clipPath id="clip58"><path d="M191.765 147.778 228.032 98.2554 276.817 133.983 240.55 183.505Z" fill-rule="evenodd" clip-rule="evenodd"/></clipPath><clipPath id="clip59"><path d="M191.765 147.778 228.032 98.2554 276.817 133.983 240.55 183.505Z" fill-rule="evenodd" clip-rule="evenodd"/></clipPath><clipPath id="clip60"><path d="M191.765 147.778 228.032 98.2554 276.817 133.983 240.55 183.505Z" fill-rule="evenodd" clip-rule="evenodd"/></clipPath><clipPath id="clip61"><path d="M159.493 422.054 213.415 394.689 241.193 449.426 187.271 476.791Z" fill-rule="evenodd" clip-rule="evenodd"/></clipPath><clipPath id="clip62"><path d="M159.493 422.054 213.415 394.689 241.193 449.426 187.271 476.791Z" fill-rule="evenodd" clip-rule="evenodd"/></clipPath><clipPath id="clip63"><path d="M159.493 422.054 213.415 394.689 241.193 449.426 187.271 476.791Z" fill-rule="evenodd" clip-rule="evenodd"/></clipPath><clipPath id="clip64"><path d="M267.763 166.259 276.619 257.337 186.897 266.061 178.04 174.984Z" fill-rule="evenodd" clip-rule="evenodd"/></clipPath><clipPath id="clip65"><path d="M267.763 166.259 276.619 257.337 186.897 266.061 178.04 174.984Z" fill-rule="evenodd" clip-rule="evenodd"/></clipPath><clipPath id="clip66"><path d="M267.763 166.259 276.619 257.337 186.897 266.061 178.04 174.984Z" fill-rule="evenodd" clip-rule="evenodd"/></clipPath><clipPath id="clip67"><path d="M197.438 230.986 164.876 197.555 197.811 165.478 230.372 198.91Z" fill-rule="evenodd" clip-rule="evenodd"/></clipPath><clipPath id="clip68"><path d="M197.438 230.986 164.876 197.555 197.811 165.478 230.372 198.91Z" fill-rule="evenodd" clip-rule="evenodd"/></clipPath><clipPath id="clip69"><path d="M197.438 230.986 164.876 197.555 197.811 165.478 230.372 198.91Z" fill-rule="evenodd" clip-rule="evenodd"/></clipPath><clipPath id="clip70"><path d="M248.212 121.845 164.547 148.85 137.133 63.9213 220.799 36.9158Z" fill-rule="evenodd" clip-rule="evenodd"/></clipPath><clipPath id="clip71"><path d="M248.212 121.845 164.547 148.85 137.133 63.9213 220.799 36.9158Z" fill-rule="evenodd" clip-rule="evenodd"/></clipPath><clipPath id="clip72"><path d="M248.212 121.845 164.547 148.85 137.133 63.9213 220.799 36.9158Z" fill-rule="evenodd" clip-rule="evenodd"/></clipPath></defs><g clip-path="url(#clip0)" transform="translate(-134 -36)"><g clip-path="url(#clip1)"><g clip-path="url(#clip2)"><g clip-path="url(#clip3)"><path d="M192.704 795.105C192.385 794.405 192.694 793.579 193.394 793.26 194.094 792.941 194.92 793.25 195.239 793.95 195.558 794.65 195.249 795.476 194.549 795.795 193.849 796.114 193.023 795.805 192.704 795.105Z" fill="#BFBFBF" fill-opacity="0.4"/><path d="M201.581 797.796 198.176 790.317 199.815 789.571 213.737 794.782 215.061 793.789 201.607 788.755 206.786 786.396 218.883 790.923 220.206 789.931 208.579 785.58 213.758 783.222 224.028 787.065 225.351 786.073 215.55 782.405 220.729 780.047 229.173 783.207 230.496 782.214 222.522 779.231 229.501 776.052 242.453 778.495C240.919 776.093 239.154 773.847 237.181 771.79 236.899 768.955 236.365 766.151 235.585 763.411L228.941 774.777 221.944 777.963 224.929 769.989 223.311 770.335 220.152 778.779 214.973 781.138 218.641 771.337 217.023 771.684 213.181 781.954 208.001 784.313 212.353 772.686 210.735 773.032 206.209 785.129 201.03 787.487 206.065 774.034 204.447 774.38 199.238 788.303 197.599 789.05 194.193 781.571C187.874 786.515 182.3 794.103 183.31 796.322 184.321 798.54 193.704 799.317 201.581 797.796ZM235.054 767.078C235.372 768.617 235.615 770.227 235.796 771.937L235.847 772.416 236.183 772.762C237.322 773.937 238.383 775.183 239.362 776.494L230.524 774.828ZM193.676 783.796 199.563 796.725C192.19 797.817 185.45 796.801 184.583 795.742 184.352 794.389 188.011 788.64 193.676 783.796Z" fill="#BFBFBF" fill-opacity="0.4"/></g></g></g><g clip-path="url(#clip4)"><g clip-path="url(#clip5)"><g clip-path="url(#clip6)"><path d="M215.666 751.749C215.151 752.32 214.27 752.365 213.699 751.85 213.128 751.334 213.083 750.453 213.599 749.882 214.114 749.311 214.995 749.267 215.566 749.782 216.137 750.298 216.182 751.178 215.666 751.749Z" fill="#FFFFFF" fill-opacity="0.4"/><path d="M214.605 742.534 209.098 748.633 207.761 747.426 207.004 732.579 205.567 731.76 206.299 746.106 202.076 742.292 201.418 729.393 199.981 728.574 200.614 740.972 196.39 737.158 195.832 726.207 194.395 725.388 194.928 735.838 190.705 732.025 190.246 723.02 188.809 722.201 189.243 730.705 183.551 725.565 180.64 712.71C179.047 715.072 177.688 717.586 176.585 720.214 174.097 721.6 171.737 723.206 169.533 725.011L182.604 726.586 188.309 731.738 179.806 732.172 180.767 733.518 189.771 733.058 193.995 736.872 183.544 737.405 184.505 738.751 195.457 738.192 199.68 742.006 187.282 742.638 188.243 743.984 201.142 743.326 205.366 747.14 191.02 747.871 191.981 749.217 206.828 748.46 208.164 749.666 202.657 755.765C209.706 759.597 218.885 761.693 220.519 759.884 222.152 758.075 219.133 749.156 214.605 742.534ZM173.109 724.039C174.394 723.135 175.775 722.272 177.271 721.426L177.69 721.189 177.874 720.743C178.499 719.231 179.221 717.761 180.034 716.341L182.021 725.113ZM204.904 755.355 214.425 744.811C218.359 751.143 220.108 757.73 219.481 758.947 218.331 759.697 211.602 758.626 204.904 755.355Z" fill="#FFFFFF" fill-opacity="0.4"/></g></g></g><g clip-path="url(#clip7)"><g clip-path="url(#clip8)"><g clip-path="url(#clip9)"><path d="M223.308 656.85C222.793 657.421 221.912 657.466 221.341 656.951 220.77 656.435 220.725 655.554 221.241 654.984 221.756 654.413 222.637 654.368 223.208 654.883 223.779 655.399 223.824 656.279 223.308 656.85Z" fill="#BFBFBF" fill-opacity="0.4"/><path d="M222.247 647.635 216.74 653.734 215.403 652.527 214.646 637.68 213.209 636.861 213.941 651.207 209.717 647.393 209.06 634.494 207.623 633.675 208.256 646.073 204.032 642.259 203.474 631.308 202.037 630.489 202.57 640.94 198.347 637.126 197.888 628.122 196.451 627.302 196.885 635.806 191.193 630.666 188.282 617.811C186.689 620.174 185.33 622.687 184.227 625.315 181.739 626.701 179.379 628.307 177.175 630.112L190.246 631.688 195.951 636.84 187.448 637.273 188.409 638.619 197.413 638.159 201.637 641.973 191.186 642.506 192.147 643.852 203.099 643.293 207.322 647.107 194.924 647.739 195.885 649.085 208.784 648.427 213.008 652.241 198.662 652.972 199.623 654.318 214.47 653.561 215.806 654.768 210.299 660.867C217.348 664.698 226.527 666.794 228.161 664.985 229.794 663.176 226.775 654.258 222.247 647.635ZM180.751 629.14C182.036 628.237 183.417 627.373 184.913 626.527L185.332 626.29 185.516 625.844C186.141 624.332 186.863 622.862 187.676 621.443L189.663 630.214ZM212.546 660.456 222.067 649.912C226.001 656.244 227.75 662.831 227.123 664.048 225.973 664.798 219.244 663.727 212.546 660.456Z" fill="#BFBFBF" fill-opacity="0.4"/></g></g></g><g clip-path="url(#clip10)"><g clip-path="url(#clip11)"><g clip-path="url(#clip12)"><path d="M210.451 790.399C209.935 790.97 209.054 791.015 208.484 790.499 207.913 789.984 207.868 789.103 208.383 788.532 208.899 787.961 209.779 787.916 210.35 788.432 210.921 788.947 210.966 789.828 210.451 790.399Z" fill="#000000" fill-opacity="0.4"/><path d="M209.389 781.184 203.882 787.283 202.545 786.076 201.789 771.229 200.352 770.41 201.084 784.756 196.86 780.942 196.203 768.043 194.765 767.224 195.398 779.622 191.174 775.808 190.616 764.857 189.179 764.037 189.713 774.488 185.489 770.674 185.03 761.67 183.593 760.851 184.027 769.354 178.335 764.215 175.425 751.359C173.831 753.722 172.473 756.236 171.37 758.864 168.881 760.25 166.521 761.855 164.317 763.661L177.388 765.236 183.094 770.388 174.59 770.821 175.551 772.168 184.556 771.708 188.779 775.522 178.328 776.054 179.289 777.401 190.241 776.842 194.465 780.656 182.066 781.287 183.027 782.634 195.926 781.976 200.15 785.789 185.804 786.521 186.766 787.867 201.612 787.109 202.949 788.316 197.441 794.415C204.49 798.247 213.67 800.343 215.303 798.534 216.937 796.725 213.918 787.806 209.389 781.184ZM167.893 762.689C169.178 761.785 170.559 760.922 172.055 760.076L172.475 759.839 172.658 759.393C173.284 757.881 174.005 756.411 174.819 754.991L176.805 763.763ZM199.689 794.005 209.209 783.461C213.143 789.792 214.892 796.38 214.265 797.596 213.116 798.347 206.386 797.276 199.689 794.005Z" fill="#000000" fill-opacity="0.4"/></g></g></g><g clip-path="url(#clip13)"><g clip-path="url(#clip14)"><g clip-path="url(#clip15)"><path d="M206.087 703.645 211.847 699.396 212.712 700.569 210.687 713.675 213.069 715.788 214.915 703.556 217.001 706.382 215.333 717.742 217.676 719.801 219.243 709.422 221.328 712.249 219.887 721.794 222.23 723.853 223.517 715.328 225.602 718.154 224.441 725.846 226.784 727.906 227.805 721.141 231.74 726.474 231.858 726.634 232.1 737.902C233.997 736.008 235.776 733.955 237.305 731.674 239.896 730.833 242.37 729.832 244.792 728.539L234.097 724.981 234.005 724.967 230.071 719.634 236.836 720.655 235.559 717.809 227.867 716.648 225.782 713.821 234.308 715.108 233.032 712.262 223.501 710.728 221.415 707.902 231.755 709.415 230.479 706.569 219.173 704.862 217.088 702.036 229.281 703.829 228.005 700.982 214.845 698.996 213.98 697.823 219.74 693.574C213.893 688.663 205.731 684.967 203.865 686.344 201.998 687.721 203.121 696.61 206.087 703.645ZM208.699 695.13C209.132 695.716 209.006 696.55 208.42 696.983 207.833 697.416 206.999 697.29 206.566 696.703 206.134 696.117 206.259 695.283 206.846 694.85 207.433 694.417 208.267 694.543 208.699 695.13L208.699 695.13Z" fill="#BFBFBF" fill-opacity="0.4"/></g></g></g><g clip-path="url(#clip16)"><g clip-path="url(#clip17)"><g clip-path="url(#clip18)"><path d="M210.614 667.405 218.088 674.632 216.615 676.154 197.354 676.409 194.901 680.33 212.868 680.029 209.321 683.697 192.648 684.044 190.262 687.896 205.507 687.641 201.96 691.309 187.94 691.543 185.554 695.396 198.077 695.186 194.53 698.853 183.233 699.043 180.846 702.895 190.783 702.728 184.091 709.648 183.89 709.856 167.807 712.916C170.977 715.178 174.347 717.232 177.982 718.873 179.811 722.382 181.841 725.684 184.276 728.843L186.796 712.666 186.794 712.53 193.486 705.61 193.652 715.547 197.423 713.033 197.233 701.735 200.78 698.068 200.99 710.591 204.76 708.077 204.661 694.054 208.208 690.387 208.53 705.563 212.3 703.049 212.022 686.443 215.569 682.775 215.937 700.673 219.707 698.159 219.383 678.831 220.856 677.309 228.329 684.536C233.955 674.979 237.285 662.397 234.863 660.055 232.441 657.713 219.977 661.461 210.614 667.405ZM223.441 669.096C222.705 669.857 221.48 669.878 220.719 669.142 219.958 668.406 219.937 667.181 220.673 666.419 221.409 665.658 222.634 665.638 223.395 666.374 224.157 667.11 224.177 668.335 223.441 669.096L223.441 669.096Z" fill="#000000" fill-opacity="0.4"/></g></g></g><g clip-path="url(#clip19)"><g clip-path="url(#clip20)"><g clip-path="url(#clip21)"><path d="M214.953 499.763 222.671 500.996 222.42 502.568 210.663 511.024 210.841 514.497 221.781 506.57 221.176 510.358 211.054 517.755 211.243 521.157 220.526 514.431 219.921 518.219 211.384 524.404 211.574 527.806 219.199 522.281 218.594 526.068 211.715 531.053 211.904 534.454 217.955 530.07 216.813 537.217 216.779 537.431 208.189 546.246C211.116 546.274 214.077 546.088 217.024 545.532 219.663 546.906 222.336 548.066 225.197 548.963L219.78 537.911 219.72 537.828 220.862 530.681 225.246 536.732 226.485 533.558 221.501 526.679 222.106 522.892 227.631 530.517 228.87 527.343 222.768 518.747 223.373 514.959 230.11 524.17 231.35 520.997 224.023 510.886 224.628 507.098 232.567 517.966 233.806 514.793 225.279 503.024 225.53 501.452 233.248 502.685C232.597 494.373 229.227 485.186 226.726 484.787 224.225 484.388 218.161 492.067 214.953 499.763ZM223.585 495.278C223.459 496.065 222.713 496.605 221.927 496.479 221.141 496.354 220.6 495.608 220.726 494.822 220.852 494.036 221.597 493.495 222.384 493.621 223.17 493.746 223.71 494.492 223.585 495.278L223.585 495.278Z" fill="#7F7F7F" fill-opacity="0.4"/></g></g></g><g clip-path="url(#clip22)"><g clip-path="url(#clip23)"><g clip-path="url(#clip24)"><path d="M210.316 495.786C209.882 495.483 209.776 494.886 210.079 494.452 210.382 494.018 210.979 493.913 211.413 494.216 211.847 494.519 211.953 495.116 211.65 495.549 211.347 495.983 210.749 496.089 210.316 495.786Z" fill="#000000" fill-opacity="0.4"/><path d="M216.514 494.274 211.881 491.037 212.591 490.021 222.658 488.236 223.095 487.186 213.367 488.911 215.609 485.703 224.356 484.152 224.792 483.101 216.384 484.592 218.626 481.384 226.053 480.067 226.489 479.016 219.402 480.273 221.644 477.065 227.75 475.982 228.186 474.931 222.42 475.954 225.441 471.63 233.966 468.546C232.217 467.66 230.386 466.948 228.498 466.42 227.339 464.84 226.042 463.366 224.621 462.016L224.663 471.072 221.635 475.406 220.612 469.639 219.776 470.41 220.859 476.516 218.617 479.725 217.36 472.638 216.524 473.409 217.841 480.835 215.599 484.043 214.108 475.636 213.272 476.407 214.823 485.154 212.581 488.362 210.856 478.634 210.02 479.405 211.805 489.473 211.096 490.488 206.463 487.251C204.45 492.389 203.805 498.833 205.179 499.793 206.553 500.753 212.382 497.931 216.514 494.274ZM225.59 464.374C226.317 465.174 227.024 466.042 227.729 466.991L227.927 467.257 228.247 467.344C229.332 467.642 230.397 468.009 231.435 468.442L225.619 470.548ZM206.935 488.749 214.945 494.346C210.96 497.572 206.614 499.328 205.73 499.004 205.119 498.284 205.275 493.6 206.935 488.749Z" fill="#000000" fill-opacity="0.4"/></g></g></g><g clip-path="url(#clip25)"><g clip-path="url(#clip26)"><g clip-path="url(#clip27)"><path d="M181.582 699.57 174.071 697.818 174.428 696.288 186.589 688.786 186.656 685.356 175.336 692.394 176.196 688.709 186.675 682.134 186.725 678.773 177.12 684.745 177.98 681.059 186.813 675.567 186.864 672.206 178.974 677.112 179.833 673.426 186.951 669.001 187.002 665.64 180.742 669.532 182.363 662.578 182.412 662.37 191.481 654.293C188.602 654.062 185.675 654.039 182.736 654.38 180.235 652.843 177.685 651.515 174.931 650.433L179.491 661.688 179.545 661.774 177.923 668.728 174.031 662.468 172.589 665.504 177.015 672.622 176.155 676.308 171.25 668.418 169.808 671.455 175.215 680.341 174.355 684.027 168.367 674.491 166.925 677.528 173.431 687.99 172.571 691.676 165.516 680.426 164.075 683.462 171.647 695.64 171.29 697.169 163.78 695.418C163.841 703.644 166.517 712.92 168.951 713.488 171.384 714.055 177.888 706.92 181.582 699.57ZM172.774 703.381C172.952 702.616 173.724 702.137 174.489 702.315 175.254 702.493 175.734 703.265 175.556 704.03 175.377 704.795 174.605 705.275 173.84 705.096 173.076 704.918 172.596 704.146 172.774 703.381L172.774 703.381Z" fill="#7F7F7F" fill-opacity="0.4"/></g></g></g><g clip-path="url(#clip28)"><g clip-path="url(#clip29)"><g clip-path="url(#clip30)"><path d="M196.422 597.53 201.553 591.773 202.726 592.818 203.496 607.087 206.476 608.787 205.711 595.479 208.536 597.997 209.297 610.344 212.224 611.996 211.575 600.705 214.4 603.223 214.997 613.607 217.924 615.259 217.391 605.984 220.216 608.502 220.697 616.87 223.625 618.522 223.201 611.163 228.532 615.914 228.692 616.056 231.446 627.884C233.026 625.467 234.447 622.907 235.553 620.163 238.099 618.701 240.485 617.098 242.753 615.197L230.687 613.817 230.587 613.823 225.256 609.072 232.615 608.649 230.638 605.931 222.271 606.412 219.445 603.894 228.721 603.36 226.744 600.642 216.354 601.138 213.529 598.62 224.767 597.923 222.79 595.205 210.49 595.912 207.665 593.394 220.919 592.581 218.942 589.863 204.626 590.686 203.454 589.641 208.585 583.884C201.332 580.002 191.906 577.914 190.243 579.78 188.58 581.646 191.735 590.77 196.422 597.53ZM197.289 587.972C197.875 588.495 197.927 589.402 197.405 589.989 196.882 590.575 195.975 590.627 195.388 590.105 194.802 589.582 194.75 588.675 195.272 588.088 195.795 587.502 196.702 587.45 197.289 587.972L197.289 587.972Z" fill="#7F7F7F" fill-opacity="0.4"/></g></g></g><g clip-path="url(#clip31)"><g clip-path="url(#clip32)"><g clip-path="url(#clip33)"><path d="M177.897 576.983C177.201 576.656 176.901 575.827 177.227 575.13 177.553 574.434 178.383 574.134 179.079 574.46 179.776 574.786 180.076 575.616 179.75 576.312 179.423 577.009 178.594 577.309 177.897 576.983Z" fill="#D0CECE" fill-opacity="0.4"/><path d="M186.401 573.276 178.96 569.79 179.724 568.159 193.702 563.1 194.066 561.487 180.559 566.376 182.974 561.222 195.119 556.827 195.482 555.214 183.809 559.439 186.223 554.286 196.535 550.554 196.899 548.94 187.059 552.502 189.473 547.349 197.951 544.281 198.315 542.667 190.309 545.565 193.562 538.62 205.007 532.083C202.282 531.249 199.482 530.684 196.646 530.396 194.593 528.421 192.369 526.632 189.999 525.052L192.309 538.013 189.048 544.975 186.15 536.968 185.143 538.281 188.212 546.758 185.798 551.911 182.237 542.071 181.23 543.384 184.962 553.695 182.548 558.848 178.323 547.175 177.316 548.487 181.712 560.632 179.298 565.785 174.41 552.278 173.403 553.59 178.463 567.568 177.699 569.199 170.257 565.713C168.651 573.574 169.327 582.965 171.534 583.999 173.741 585.033 181.39 579.541 186.401 573.276ZM191.972 528.188C193.212 529.153 194.441 530.222 195.687 531.406L196.036 531.738 196.517 531.783C198.145 531.94 199.762 532.201 201.357 532.564L193.548 537.026ZM171.306 567.742 184.171 573.769C179.264 579.381 173.474 582.977 172.128 582.733 171.074 581.852 170.133 575.103 171.306 567.742Z" fill="#D0CECE" fill-opacity="0.4"/></g></g></g><g clip-path="url(#clip34)"><g clip-path="url(#clip35)"><g clip-path="url(#clip36)"><path d="M72.3475 40.2948C72.3475 41.3064 71.5275 42.1264 70.516 42.1264 69.5044 42.1264 68.6844 41.3064 68.6844 40.2948 68.6844 39.2833 69.5044 38.4633 70.516 38.4633 71.5275 38.4633 72.3475 39.2833 72.3475 40.2948Z" fill="#7F7F7F" fill-opacity="0.4" transform="matrix(0.121552 1.0078 -0.992805 0.119744 246.903 62.7854)"/><path d="M63.1896 32.2359 63.1896 43.0422 60.8214 43.0422 46.9984 29.2183 44.8738 29.6854 58.2315 43.0422 50.7477 43.0422 38.738 31.0316 36.6134 31.4987 48.1578 43.0422 40.674 43.0422 30.4775 32.8449 28.3529 33.3119 38.0841 43.0422 30.6003 43.0422 22.2171 34.6581 20.0925 35.1252 28.0104 43.0422 17.9248 43.0422 3.75475 33.0601C4.28156 36.7708 5.17108 40.4209 6.41054 43.958 5.20341 47.5046 4.31463 51.1516 3.75475 54.8559L17.901 44.8738 28.0104 44.8738 20.0925 52.7908 22.2171 53.2579 30.6003 44.8738 38.0841 44.8738 28.3529 54.6041 30.4775 55.0711 40.674 44.8738 48.1578 44.8738 36.6134 56.4174 38.738 56.8844 50.7477 44.8738 58.2315 44.8738 44.8738 58.2306 46.9984 58.6977 60.8214 44.8738 63.1896 44.8738 63.1896 55.6801C73.4465 53.2075 84.2528 47.1633 84.2528 43.958 84.2528 40.7527 73.4465 34.7085 63.1896 32.2359ZM6.38856 50.7559C6.84646 48.7412 7.43348 46.6816 8.1478 44.5368L8.34836 43.936 8.13406 43.3389C7.41227 41.3122 6.82099 39.2413 6.36384 37.139L16.0337 43.9498ZM65.0212 53.2991 65.0212 34.6169C74.441 37.3295 81.9533 42.218 82.4139 43.958 81.9533 45.7035 74.441 50.5893 65.0212 53.2991Z" fill="#7F7F7F" fill-opacity="0.4" transform="matrix(0.121552 1.0078 -0.992805 0.119744 246.903 62.7854)"/></g></g></g><g clip-path="url(#clip37)"><g clip-path="url(#clip38)"><g clip-path="url(#clip39)"><path d="M49.7608 27.7149C49.7608 28.4106 49.1967 28.9746 48.501 28.9746 47.8052 28.9746 47.2412 28.4106 47.2412 27.7149 47.2412 27.0191 47.8052 26.4551 48.501 26.4551 49.1967 26.4551 49.7608 27.0191 49.7608 27.7149Z" fill="#000000" fill-opacity="0.4" transform="matrix(-0.7422 -0.670178 0.680298 -0.753407 237.247 459.134)"/><path d="M43.4619 22.1719 43.4619 29.6045 41.833 29.6045 32.3256 20.0964 30.8643 20.4177 40.0517 29.6045 34.9043 29.6045 26.6441 21.3436 25.1827 21.6648 33.123 29.6045 27.9756 29.6045 20.9625 22.5908 19.5012 22.912 26.1943 29.6045 21.0469 29.6045 15.281 23.8379 13.8196 24.1592 19.2656 29.6045 12.3287 29.6045 2.58252 22.7388C2.94486 25.291 3.55668 27.8016 4.40918 30.2344 3.57891 32.6737 2.96761 35.1822 2.58252 37.73L12.3123 30.8643 19.2656 30.8643 13.8196 36.3096 15.281 36.6308 21.0469 30.8643 26.1943 30.8643 19.5012 37.5568 20.9625 37.878 27.9756 30.8643 33.123 30.8643 25.1827 38.8039 26.6441 39.1252 34.9043 30.8643 40.0517 30.8643 30.8643 40.0511 32.3256 40.3724 41.833 30.8643 43.4619 30.8643 43.4619 38.2969C50.5166 36.5962 57.9492 32.439 57.9492 30.2344 57.9492 28.0298 50.5166 23.8726 43.4619 22.1719ZM4.39406 34.91C4.70901 33.5243 5.11276 32.1077 5.60407 30.6325L5.74201 30.2193 5.59462 29.8086C5.09817 28.4146 4.69149 26.9902 4.37706 25.5443L11.028 30.2287ZM44.7217 36.6592 44.7217 23.8096C51.2007 25.6753 56.3676 29.0376 56.6844 30.2344 56.3676 31.4349 51.2007 34.7954 44.7217 36.6592Z" fill="#000000" fill-opacity="0.4" transform="matrix(-0.7422 -0.670178 0.680298 -0.753407 237.247 459.134)"/></g></g></g><g clip-path="url(#clip40)"><g clip-path="url(#clip41)"><g clip-path="url(#clip42)"><path d="M73.3405 40.8479C73.3405 41.8733 72.5092 42.7046 71.4838 42.7046 70.4583 42.7046 69.627 41.8733 69.627 40.8479 69.627 39.8224 70.4583 38.9911 71.4838 38.9911 72.5092 38.9911 73.3405 39.8224 73.3405 40.8479Z" fill="#AFABAB" fill-opacity="0.4" transform="matrix(-0.091343 -1.01098 0.995943 -0.0899842 171.246 339.057)"/><path d="M64.0569 32.6783 64.0569 43.6329 61.6561 43.6329 47.6435 29.6193 45.4897 30.0928 59.0307 43.6329 51.4442 43.6329 39.2697 31.4575 37.1159 31.931 48.8188 43.6329 41.2322 43.6329 30.8958 33.2957 28.742 33.7691 38.6068 43.6329 31.0202 43.6329 22.522 35.1338 20.3682 35.6073 28.3948 43.6329 18.1708 43.6329 3.80628 33.5138C4.34032 37.2754 5.24205 40.9757 6.49852 44.5613 5.27482 48.1566 4.37385 51.8537 3.80628 55.6088L18.1467 45.4897 28.3948 45.4897 20.3682 53.5154 22.522 53.9888 31.0202 45.4897 38.6068 45.4897 28.742 55.3535 30.8958 55.827 41.2322 45.4897 48.8188 45.4897 37.1159 57.1917 39.2697 57.6651 51.4442 45.4897 59.0307 45.4897 45.4897 59.0298 47.6435 59.5033 61.6561 45.4897 64.0569 45.4897 64.0569 56.4443C74.4545 53.9378 85.4092 47.8106 85.4092 44.5613 85.4092 41.312 74.4545 35.1849 64.0569 32.6783ZM6.47624 51.4525C6.94042 49.4101 7.5355 47.3223 8.25962 45.148L8.46294 44.539 8.2457 43.9337C7.514 41.8792 6.91461 39.7799 6.45118 37.6487L16.2537 44.553ZM65.9136 54.0306 65.9136 35.092C75.4627 37.8418 83.0781 42.7974 83.545 44.5613 83.0781 46.3308 75.4627 51.2836 65.9136 54.0306Z" fill="#AFABAB" fill-opacity="0.4" transform="matrix(-0.091343 -1.01098 0.995943 -0.0899842 171.246 339.057)"/></g></g></g><g clip-path="url(#clip43)"><g clip-path="url(#clip44)"><g clip-path="url(#clip45)"><path d="M72.3475 40.2948C72.3475 41.3064 71.5275 42.1264 70.516 42.1264 69.5044 42.1264 68.6844 41.3064 68.6844 40.2948 68.6844 39.2833 69.5044 38.4633 70.516 38.4633 71.5275 38.4633 72.3475 39.2833 72.3475 40.2948Z" fill="#D0CECE" fill-opacity="0.4" transform="matrix(0.430643 -0.919226 0.905551 0.424237 156.938 590.071)"/><path d="M63.1896 32.2359 63.1896 43.0422 60.8214 43.0422 46.9984 29.2183 44.8738 29.6854 58.2315 43.0422 50.7477 43.0422 38.738 31.0316 36.6134 31.4987 48.1578 43.0422 40.674 43.0422 30.4775 32.8449 28.3529 33.3119 38.0841 43.0422 30.6003 43.0422 22.2171 34.6581 20.0925 35.1252 28.0104 43.0422 17.9248 43.0422 3.75475 33.0601C4.28156 36.7708 5.17108 40.4209 6.41054 43.958 5.20341 47.5046 4.31463 51.1516 3.75475 54.8559L17.901 44.8738 28.0104 44.8738 20.0925 52.7908 22.2171 53.2579 30.6003 44.8738 38.0841 44.8738 28.3529 54.6041 30.4775 55.0711 40.674 44.8738 48.1578 44.8738 36.6134 56.4174 38.738 56.8844 50.7477 44.8738 58.2315 44.8738 44.8738 58.2306 46.9984 58.6977 60.8214 44.8738 63.1896 44.8738 63.1896 55.6801C73.4465 53.2075 84.2528 47.1633 84.2528 43.958 84.2528 40.7527 73.4465 34.7085 63.1896 32.2359ZM6.38856 50.7559C6.84646 48.7412 7.43348 46.6816 8.1478 44.5368L8.34836 43.936 8.13406 43.3389C7.41227 41.3122 6.82099 39.2413 6.36384 37.139L16.0337 43.9498ZM65.0212 53.2991 65.0212 34.6169C74.441 37.3295 81.9533 42.218 82.4139 43.958 81.9533 45.7035 74.441 50.5893 65.0212 53.2991Z" fill="#D0CECE" fill-opacity="0.4" transform="matrix(0.430643 -0.919226 0.905551 0.424237 156.938 590.071)"/></g></g></g><g clip-path="url(#clip46)"><g clip-path="url(#clip47)"><g clip-path="url(#clip48)"><path d="M72.3475 40.2948C72.3475 41.3064 71.5275 42.1264 70.516 42.1264 69.5044 42.1264 68.6844 41.3064 68.6844 40.2948 68.6844 39.2833 69.5044 38.4633 70.516 38.4633 71.5275 38.4633 72.3475 39.2833 72.3475 40.2948Z" fill="#F2F2F2" fill-opacity="0.4" transform="matrix(-0.7422 -0.670178 0.680298 -0.753408 207.689 227.366)"/><path d="M63.1896 32.2359 63.1896 43.0422 60.8214 43.0422 46.9984 29.2183 44.8738 29.6854 58.2315 43.0422 50.7477 43.0422 38.738 31.0316 36.6134 31.4987 48.1578 43.0422 40.674 43.0422 30.4776 32.8449 28.3529 33.3119 38.0841 43.0422 30.6003 43.0422 22.2171 34.6581 20.0925 35.1252 28.0104 43.0422 17.9248 43.0422 3.75475 33.0601C4.28156 36.7708 5.17108 40.4209 6.41054 43.958 5.20341 47.5046 4.31463 51.1516 3.75475 54.8559L17.901 44.8738 28.0104 44.8738 20.0925 52.7908 22.2171 53.2579 30.6003 44.8738 38.0841 44.8738 28.3529 54.6041 30.4776 55.0711 40.674 44.8738 48.1578 44.8738 36.6134 56.4174 38.738 56.8844 50.7477 44.8738 58.2315 44.8738 44.8738 58.2306 46.9984 58.6977 60.8214 44.8738 63.1896 44.8738 63.1896 55.6801C73.4465 53.2075 84.2528 47.1633 84.2528 43.958 84.2528 40.7527 73.4465 34.7085 63.1896 32.2359ZM6.38856 50.7559C6.84646 48.7412 7.43348 46.6816 8.1478 44.5368L8.34836 43.936 8.13406 43.3389C7.41227 41.3122 6.82099 39.2413 6.36384 37.139L16.0337 43.9498ZM65.0212 53.2991 65.0212 34.6169C74.4411 37.3295 81.9533 42.218 82.4139 43.958 81.9533 45.7035 74.4411 50.5893 65.0212 53.2991Z" fill="#F2F2F2" fill-opacity="0.4" transform="matrix(-0.7422 -0.670178 0.680298 -0.753408 207.689 227.366)"/></g></g></g><g clip-path="url(#clip49)"><g clip-path="url(#clip50)"><g clip-path="url(#clip51)"><path d="M64.792 33.0533 64.792 43.1947 62.7262 43.1947 49.4861 29.8607 45.0727 30.7997 57.4677 43.1947 52.4909 43.1947 40.941 31.7387 36.6216 32.6777 47.1385 43.1947 42.1618 43.1947 32.4899 33.5228 28.1704 34.4618 36.8094 43.1008 31.8326 43.1008 24.0388 35.3069 19.7193 36.246 26.5741 43.1008 17.184 43.1008 16.9023 43.1008 3.84996 33.8984C4.41337 37.6545 5.25848 41.4105 6.5731 45.0727 5.35238 48.7349 4.41337 52.397 3.84996 56.247L16.9023 47.0446 16.9962 46.9507 26.3863 46.9507 19.5315 53.8055 23.851 54.7446 31.6448 46.9507 36.6216 46.9507 27.9826 55.5897 32.3021 56.5287 42.0679 46.9507 47.0446 46.9507 36.6216 57.4677 40.941 58.4067 52.397 46.9507 57.3738 46.9507 45.0727 59.3457 49.3922 60.2847 62.7262 46.9507 64.792 46.9507 64.792 57.0921C75.309 54.5568 86.3894 48.3593 86.3894 45.0727 86.3894 41.7862 75.309 35.5887 64.792 33.0533ZM72.3041 43.1947C71.2712 43.1947 70.4261 42.3496 70.4261 41.3166 70.4261 40.2837 71.2712 39.4386 72.3041 39.4386 73.337 39.4386 74.1822 40.2837 74.1822 41.3166 74.1822 42.3496 73.337 43.1947 72.3041 43.1947L72.3041 43.1947Z" fill="#7F7F7F" fill-opacity="0.4" transform="matrix(-0.708254 -0.72719 0.716373 -0.697718 223.07 553.145)"/></g></g></g><g clip-path="url(#clip52)"><g clip-path="url(#clip53)"><g clip-path="url(#clip54)"><path d="M49.7608 27.7149C49.7608 28.4106 49.1967 28.9746 48.501 28.9746 47.8052 28.9746 47.2412 28.4106 47.2412 27.7149 47.2412 27.0191 47.8052 26.4551 48.501 26.4551 49.1967 26.4551 49.7608 27.0191 49.7608 27.7149Z" fill="#AFABAB" fill-opacity="0.4" transform="matrix(0.319495 -0.96351 0.949177 0.314743 164.425 416.417)"/><path d="M43.4619 22.1719 43.4619 29.6045 41.833 29.6045 32.3256 20.0964 30.8643 20.4177 40.0517 29.6045 34.9043 29.6045 26.6441 21.3436 25.1827 21.6648 33.123 29.6045 27.9756 29.6045 20.9625 22.5908 19.5012 22.912 26.1943 29.6045 21.0469 29.6045 15.281 23.8379 13.8196 24.1592 19.2656 29.6045 12.3287 29.6045 2.58252 22.7388C2.94486 25.291 3.55668 27.8016 4.40918 30.2344 3.57891 32.6737 2.96761 35.1822 2.58252 37.73L12.3123 30.8643 19.2656 30.8643 13.8196 36.3096 15.281 36.6308 21.0469 30.8643 26.1943 30.8643 19.5012 37.5568 20.9625 37.878 27.9756 30.8643 33.123 30.8643 25.1827 38.8039 26.6441 39.1252 34.9043 30.8643 40.0517 30.8643 30.8643 40.0511 32.3256 40.3724 41.833 30.8643 43.4619 30.8643 43.4619 38.2969C50.5166 36.5962 57.9492 32.439 57.9492 30.2344 57.9492 28.0298 50.5166 23.8726 43.4619 22.1719ZM4.39406 34.91C4.70901 33.5243 5.11276 32.1077 5.60407 30.6325L5.74201 30.2193 5.59462 29.8086C5.09817 28.4146 4.69149 26.9902 4.37706 25.5443L11.028 30.2287ZM44.7217 36.6592 44.7217 23.8096C51.2007 25.6753 56.3676 29.0376 56.6844 30.2344 56.3676 31.4349 51.2007 34.7954 44.7217 36.6592Z" fill="#AFABAB" fill-opacity="0.4" transform="matrix(0.319495 -0.96351 0.949177 0.314743 164.425 416.417)"/></g></g></g><g clip-path="url(#clip55)"><g clip-path="url(#clip56)"><g clip-path="url(#clip57)"><path d="M49.7608 27.7149C49.7608 28.4106 49.1967 28.9746 48.501 28.9746 47.8052 28.9746 47.2412 28.4106 47.2412 27.7149 47.2412 27.0191 47.8052 26.4551 48.501 26.4551 49.1967 26.4551 49.7608 27.0191 49.7608 27.7149Z" fill="#000000" fill-opacity="0.4" transform="matrix(-0.7422 -0.670178 0.680298 -0.753407 185.977 548.831)"/><path d="M43.4619 22.1719 43.4619 29.6045 41.833 29.6045 32.3256 20.0964 30.8643 20.4177 40.0517 29.6045 34.9043 29.6045 26.6441 21.3436 25.1827 21.6648 33.123 29.6045 27.9756 29.6045 20.9625 22.5908 19.5012 22.912 26.1943 29.6045 21.0469 29.6045 15.281 23.8379 13.8196 24.1592 19.2656 29.6045 12.3287 29.6045 2.58252 22.7388C2.94486 25.291 3.55668 27.8016 4.40918 30.2344 3.57891 32.6737 2.96761 35.1822 2.58252 37.73L12.3123 30.8643 19.2656 30.8643 13.8196 36.3096 15.281 36.6308 21.0469 30.8643 26.1943 30.8643 19.5012 37.5568 20.9625 37.878 27.9756 30.8643 33.123 30.8643 25.1827 38.8039 26.6441 39.1252 34.9043 30.8643 40.0517 30.8643 30.8643 40.0511 32.3256 40.3724 41.833 30.8643 43.4619 30.8643 43.4619 38.2969C50.5166 36.5962 57.9492 32.439 57.9492 30.2344 57.9492 28.0298 50.5166 23.8726 43.4619 22.1719ZM4.39406 34.91C4.70901 33.5243 5.11276 32.1077 5.60407 30.6325L5.74201 30.2193 5.59462 29.8086C5.09817 28.4146 4.69149 26.9902 4.37706 25.5443L11.028 30.2287ZM44.7217 36.6592 44.7217 23.8096C51.2007 25.6753 56.3676 29.0376 56.6844 30.2344 56.3676 31.4349 51.2007 34.7954 44.7217 36.6592Z" fill="#000000" fill-opacity="0.4" transform="matrix(-0.7422 -0.670178 0.680298 -0.753407 185.977 548.831)"/></g></g></g><g clip-path="url(#clip58)"><g clip-path="url(#clip59)"><g clip-path="url(#clip60)"><path d="M49.7608 27.7149C49.7608 28.4106 49.1967 28.9746 48.501 28.9746 47.8052 28.9746 47.2412 28.4106 47.2412 27.7149 47.2412 27.0191 47.8052 26.4551 48.501 26.4551 49.1967 26.4551 49.7608 27.0191 49.7608 27.7149Z" fill="#000000" fill-opacity="0.4" transform="matrix(0.599762 -0.818971 0.806789 0.59084 191.765 147.778)"/><path d="M43.4619 22.1719 43.4619 29.6045 41.833 29.6045 32.3256 20.0964 30.8643 20.4177 40.0517 29.6045 34.9043 29.6045 26.6441 21.3436 25.1827 21.6648 33.123 29.6045 27.9756 29.6045 20.9625 22.5908 19.5012 22.912 26.1943 29.6045 21.0469 29.6045 15.281 23.8379 13.8196 24.1592 19.2656 29.6045 12.3287 29.6045 2.58252 22.7388C2.94486 25.291 3.55668 27.8016 4.40918 30.2344 3.57891 32.6737 2.96761 35.1822 2.58252 37.73L12.3123 30.8643 19.2656 30.8643 13.8196 36.3096 15.281 36.6308 21.0469 30.8643 26.1943 30.8643 19.5012 37.5568 20.9625 37.878 27.9756 30.8643 33.123 30.8643 25.1827 38.8039 26.6441 39.1252 34.9043 30.8643 40.0517 30.8643 30.8643 40.0511 32.3256 40.3724 41.833 30.8643 43.4619 30.8643 43.4619 38.2969C50.5166 36.5962 57.9492 32.439 57.9492 30.2344 57.9492 28.0298 50.5166 23.8726 43.4619 22.1719ZM4.39406 34.91C4.70901 33.5243 5.11276 32.1077 5.60407 30.6325L5.74201 30.2193 5.59462 29.8086C5.09817 28.4146 4.69149 26.9902 4.37706 25.5443L11.028 30.2287ZM44.7217 36.6592 44.7217 23.8096C51.2007 25.6753 56.3676 29.0376 56.6844 30.2344 56.3676 31.4349 51.2007 34.7954 44.7217 36.6592Z" fill="#000000" fill-opacity="0.4" transform="matrix(0.599762 -0.818971 0.806789 0.59084 191.765 147.778)"/></g></g></g><g clip-path="url(#clip61)"><g clip-path="url(#clip62)"><g clip-path="url(#clip63)"><path d="M49.7608 27.7149C49.7608 28.4106 49.1967 28.9746 48.501 28.9746 47.8052 28.9746 47.2412 28.4106 47.2412 27.7149 47.2412 27.0191 47.8052 26.4551 48.501 26.4551 49.1967 26.4551 49.7608 27.0191 49.7608 27.7149Z" fill="#FFFFFF" fill-opacity="0.4" transform="matrix(0.891743 -0.452541 0.459375 0.905209 159.493 422.054)"/><path d="M43.4619 22.1719 43.4619 29.6045 41.833 29.6045 32.3256 20.0964 30.8643 20.4177 40.0517 29.6045 34.9043 29.6045 26.6441 21.3436 25.1827 21.6648 33.123 29.6045 27.9756 29.6045 20.9625 22.5908 19.5012 22.912 26.1943 29.6045 21.0469 29.6045 15.281 23.8379 13.8196 24.1592 19.2656 29.6045 12.3287 29.6045 2.58252 22.7388C2.94486 25.291 3.55668 27.8016 4.40918 30.2344 3.57891 32.6737 2.96761 35.1822 2.58252 37.73L12.3123 30.8643 19.2656 30.8643 13.8196 36.3096 15.281 36.6308 21.0469 30.8643 26.1943 30.8643 19.5012 37.5568 20.9625 37.878 27.9756 30.8643 33.123 30.8643 25.1827 38.8039 26.6441 39.1252 34.9043 30.8643 40.0517 30.8643 30.8643 40.0511 32.3256 40.3724 41.833 30.8643 43.4619 30.8643 43.4619 38.2969C50.5166 36.5962 57.9492 32.439 57.9492 30.2344 57.9492 28.0298 50.5166 23.8726 43.4619 22.1719ZM4.39406 34.91C4.70901 33.5243 5.11276 32.1077 5.60407 30.6325L5.74201 30.2193 5.59462 29.8086C5.09817 28.4146 4.69149 26.9902 4.37706 25.5443L11.028 30.2287ZM44.7217 36.6592 44.7217 23.8096C51.2007 25.6753 56.3676 29.0376 56.6844 30.2344 56.3676 31.4349 51.2007 34.7954 44.7217 36.6592Z" fill="#FFFFFF" fill-opacity="0.4" transform="matrix(0.891743 -0.452541 0.459375 0.905209 159.493 422.054)"/></g></g></g><g clip-path="url(#clip64)"><g clip-path="url(#clip65)"><g clip-path="url(#clip66)"><path d="M64.792 33.0533 64.792 43.1947 62.7262 43.1947 49.4861 29.8607 45.0727 30.7997 57.4677 43.1947 52.4909 43.1947 40.941 31.7387 36.6216 32.6777 47.1385 43.1947 42.1618 43.1947 32.4899 33.5228 28.1704 34.4618 36.8094 43.1008 31.8326 43.1008 24.0388 35.3069 19.7193 36.246 26.5741 43.1008 17.184 43.1008 16.9023 43.1008 3.84996 33.8984C4.41337 37.6545 5.25848 41.4105 6.5731 45.0727 5.35238 48.7349 4.41337 52.397 3.84996 56.247L16.9023 47.0446 16.9962 46.9507 26.3863 46.9507 19.5315 53.8055 23.851 54.7446 31.6448 46.9507 36.6216 46.9507 27.9826 55.5897 32.3021 56.5287 42.0679 46.9507 47.0446 46.9507 36.6216 57.4677 40.941 58.4067 52.397 46.9507 57.3738 46.9507 45.0727 59.3457 49.3922 60.2847 62.7262 46.9507 64.792 46.9507 64.792 57.0921C75.309 54.5567 86.3893 48.3593 86.3893 45.0727 86.3893 41.7862 75.309 35.5887 64.792 33.0533ZM72.3041 43.1947C71.2712 43.1947 70.4261 42.3496 70.4261 41.3166 70.4261 40.2837 71.2712 39.4386 72.3041 39.4386 73.337 39.4386 74.1822 40.2837 74.1822 41.3166 74.1822 42.3496 73.337 43.1947 72.3041 43.1947L72.3041 43.1947Z" fill="#7F7F7F" fill-opacity="0.4" transform="matrix(0.0982433 1.01034 -0.995306 0.0967818 267.763 166.259)"/></g></g></g><g clip-path="url(#clip67)"><g clip-path="url(#clip68)"><g clip-path="url(#clip69)"><path d="M33.0437 16.8571 33.0437 22.0291 31.9901 22.0291 25.2377 15.2288 22.9869 15.7077 29.3083 22.0291 26.7702 22.0291 20.8798 16.1866 18.6769 16.6655 24.0405 22.0291 21.5024 22.0291 16.5697 17.0965 14.3668 17.5754 18.7727 21.9813 16.2345 21.9813 12.2597 18.0064 10.0568 18.4853 13.5527 21.9813 8.76377 21.9813 8.6201 21.9813 1.96347 17.2881C2.2508 19.2037 2.68181 21.1192 3.35226 22.9869 2.7297 24.8546 2.2508 26.7223 1.96347 28.6858L8.6201 23.9926 8.66799 23.9447 13.4569 23.9447 9.961 27.4406 12.1639 27.9195 16.1387 23.9447 18.6769 23.9447 14.2711 28.3505 16.474 28.8294 21.4545 23.9447 23.9926 23.9447 18.6769 29.3083 20.8798 29.7872 26.7223 23.9447 29.2604 23.9447 22.9869 30.2661 25.1898 30.745 31.9901 23.9447 33.0437 23.9447 33.0437 29.1168C38.4073 27.8238 44.0583 24.6631 44.0583 22.9869 44.0583 21.3108 38.4073 18.1501 33.0437 16.8571ZM36.8749 22.0291C36.3481 22.0291 35.9171 21.5981 35.9171 21.0714 35.9171 20.5446 36.3481 20.1136 36.8749 20.1136 37.4016 20.1136 37.8327 20.5446 37.8327 21.0714 37.8327 21.5981 37.4016 22.0291 36.8749 22.0291L36.8749 22.0291Z" fill="#333F50" fill-opacity="0.4" transform="matrix(-0.708253 -0.727189 0.716373 -0.697718 197.438 230.986)"/></g></g></g><g clip-path="url(#clip70)"><g clip-path="url(#clip71)"><g clip-path="url(#clip72)"><path d="M72.3475 40.2948C72.3475 41.3064 71.5275 42.1264 70.516 42.1264 69.5044 42.1264 68.6844 41.3064 68.6844 40.2948 68.6844 39.2833 69.5044 38.4633 70.516 38.4633 71.5275 38.4633 72.3475 39.2833 72.3475 40.2948Z" fill="#AFABAB" fill-opacity="0.4" transform="matrix(-0.951653 0.307174 -0.311813 -0.966024 248.212 121.845)"/><path d="M63.1896 32.2359 63.1896 43.0422 60.8214 43.0422 46.9984 29.2183 44.8738 29.6854 58.2315 43.0422 50.7477 43.0422 38.738 31.0316 36.6134 31.4987 48.1578 43.0422 40.674 43.0422 30.4776 32.8449 28.3529 33.3119 38.0841 43.0422 30.6003 43.0422 22.2171 34.6581 20.0925 35.1252 28.0104 43.0422 17.9248 43.0422 3.75475 33.0601C4.28156 36.7708 5.17108 40.4209 6.41054 43.958 5.20341 47.5046 4.31463 51.1516 3.75475 54.8559L17.901 44.8738 28.0104 44.8738 20.0925 52.7908 22.2171 53.2579 30.6003 44.8738 38.0841 44.8738 28.3529 54.6041 30.4776 55.0711 40.674 44.8738 48.1578 44.8738 36.6134 56.4174 38.738 56.8844 50.7477 44.8738 58.2315 44.8738 44.8738 58.2306 46.9984 58.6977 60.8214 44.8738 63.1896 44.8738 63.1896 55.6801C73.4465 53.2075 84.2528 47.1633 84.2528 43.958 84.2528 40.7527 73.4465 34.7085 63.1896 32.2359ZM6.38856 50.7559C6.84646 48.7412 7.43348 46.6816 8.1478 44.5368L8.34836 43.936 8.13406 43.3389C7.41227 41.3122 6.82099 39.2413 6.36384 37.139L16.0337 43.9498ZM65.0212 53.2991 65.0212 34.6169C74.4411 37.3295 81.9533 42.218 82.4139 43.958 81.9533 45.7035 74.4411 50.5893 65.0212 53.2991Z" fill="#AFABAB" fill-opacity="0.4" transform="matrix(-0.951653 0.307174 -0.311813 -0.966024 248.212 121.845)"/></g></g></g></g></svg>