<svg width="100" height="665" xmlns="http://www.w3.org/2000/svg" xmlns:xlink="http://www.w3.org/1999/xlink" overflow="hidden"><defs><clipPath id="clip0"><rect x="291" y="57" width="100" height="665"/></clipPath></defs><g clip-path="url(#clip0)" transform="translate(-291 -57)"><path d="M326.619 717.617C326.275 716.864 326.608 715.974 327.362 715.631 328.115 715.287 329.005 715.62 329.348 716.374 329.692 717.128 329.359 718.017 328.605 718.36 327.851 718.704 326.962 718.371 326.619 717.617Z" stroke="#ED7D31" stroke-width="0.902572" stroke-miterlimit="8" stroke-opacity="0.3" fill="#F4B183" fill-rule="evenodd" fill-opacity="0.3"/><path d="M335.243 719.778 332.14 712.974 333.634 712.295 346.32 717.036 347.526 716.133 335.267 711.553 339.986 709.407 351.009 713.525 352.214 712.623 341.62 708.665 346.339 706.519 355.697 710.016 356.903 709.113 347.972 705.776 352.691 703.631 360.385 706.506 361.591 705.602 354.325 702.889 360.684 699.996 372.486 702.219C371.088 700.034 369.48 697.99 367.682 696.119 367.425 693.54 366.939 690.989 366.228 688.496L360.174 698.837 353.798 701.735 356.518 694.481 355.044 694.795 352.165 702.477 347.446 704.623 350.788 695.707 349.314 696.023 345.813 705.366 341.093 707.512 345.059 696.934 343.584 697.249 339.46 708.254 334.741 710.399 339.329 698.161 337.855 698.475 333.108 711.142 331.615 711.821 328.511 705.017C322.753 709.515 317.674 716.418 318.594 718.437 319.516 720.455 328.065 721.162 335.243 719.778ZM365.744 691.832C366.034 693.232 366.255 694.697 366.42 696.253L366.467 696.689 366.773 697.003C367.811 698.072 368.777 699.206 369.669 700.399L361.616 698.883ZM328.04 707.042 333.404 718.804C326.686 719.797 320.544 718.873 319.754 717.909 319.544 716.679 322.878 711.448 328.04 707.042Z" stroke="#ED7D31" stroke-width="0.902572" stroke-miterlimit="8" stroke-opacity="0.3" fill="#F4B183" fill-rule="evenodd" fill-opacity="0.3"/><path d="M348.096 678.001C347.542 678.616 346.593 678.664 345.978 678.109 345.363 677.554 345.315 676.605 345.87 675.99 346.425 675.375 347.374 675.328 347.989 675.882 348.604 676.438 348.652 677.386 348.096 678.001Z" stroke="#ED7D31" stroke-width="0.902572" stroke-miterlimit="8" stroke-opacity="0.3" fill="#F8CBAD" fill-rule="evenodd" fill-opacity="0.3"/><path d="M346.796 669.931 341.871 675.541 340.675 674.431 339.998 660.773 338.713 660.02 339.368 673.216 335.591 669.708 335.002 657.843 333.717 657.089 334.283 668.494 330.505 664.985 330.006 654.912 328.721 654.158 329.198 663.771 325.421 660.264 325.011 651.98 323.725 651.227 324.114 659.049 319.023 654.321 316.42 642.496C314.995 644.669 313.78 646.982 312.793 649.399 310.568 650.674 308.457 652.151 306.486 653.812L318.176 655.26 323.278 660 315.674 660.399 316.533 661.637 324.586 661.214 328.363 664.722 319.017 665.213 319.876 666.451 329.671 665.937 333.448 669.445 322.36 670.026 323.219 671.265 334.755 670.659 338.533 674.168 325.703 674.84 326.562 676.078 339.841 675.382 341.035 676.491 336.11 682.102C342.415 685.627 350.624 687.555 352.085 685.891 353.545 684.226 350.845 676.022 346.796 669.931ZM309.684 652.918C310.834 652.086 312.069 651.292 313.407 650.514L313.781 650.296 313.946 649.886C314.505 648.495 315.151 647.143 315.878 645.836L317.655 653.905ZM338.12 681.724 346.635 672.025C350.153 677.85 351.717 683.909 351.157 685.029 350.128 685.719 344.11 684.733 338.12 681.724Z" stroke="#ED7D31" stroke-width="0.902572" stroke-miterlimit="8" stroke-opacity="0.3" fill="#F8CBAD" fill-rule="evenodd" fill-opacity="0.3"/><path d="M355.096 592.001C354.542 592.616 353.593 592.664 352.978 592.109 352.363 591.554 352.315 590.605 352.87 589.991 353.425 589.376 354.374 589.327 354.989 589.882 355.604 590.438 355.652 591.386 355.096 592.001Z" stroke="#ED7D31" stroke-width="0.902572" stroke-miterlimit="8" stroke-opacity="0.3" fill="#ED7D31" fill-rule="evenodd" fill-opacity="0.3"/><path d="M353.672 583.307 348.64 588.79 347.418 587.705 346.726 574.358 345.413 573.622 346.082 586.518 342.222 583.09 341.622 571.494 340.309 570.758 340.887 581.903 337.027 578.474 336.517 568.63 335.204 567.894 335.691 577.289 331.832 573.86 331.413 565.766 330.1 565.029 330.496 572.673 325.295 568.053 322.635 556.496C321.18 558.621 319.938 560.88 318.93 563.242 316.656 564.488 314.5 565.932 312.486 567.555L324.43 568.971 329.643 573.603 321.873 573.992 322.751 575.202 330.979 574.789 334.839 578.217 325.289 578.696 326.167 579.906 336.175 579.404 340.034 582.833 328.705 583.401 329.583 584.611 341.37 584.019 345.229 587.448 332.12 588.105 332.998 589.315 346.565 588.635 347.786 589.72 342.754 595.202C349.195 598.646 357.583 600.531 359.076 598.904 360.568 597.278 357.809 589.261 353.672 583.307ZM315.754 566.681C316.928 565.869 318.19 565.092 319.557 564.332L319.94 564.119 320.108 563.718C320.679 562.359 321.339 561.037 322.081 559.761L323.897 567.646ZM344.807 594.833 353.507 585.354C357.102 591.047 358.7 596.968 358.128 598.062 357.077 598.736 350.928 597.774 344.807 594.833Z" stroke="#ED7D31" stroke-width="0.902572" stroke-miterlimit="8" stroke-opacity="0.3" fill="#ED7D31" fill-rule="evenodd" fill-opacity="0.3"/><path d="M343.097 713.167C342.541 713.577 341.592 713.61 340.978 713.239 340.363 712.869 340.315 712.237 340.87 711.827 341.426 711.417 342.373 711.385 342.988 711.755 343.603 712.125 343.652 712.757 343.097 713.167Z" stroke="#ED7D31" stroke-width="0.902572" stroke-miterlimit="8" stroke-opacity="0.3" fill="#ED7D31" fill-rule="evenodd" fill-opacity="0.3"/><path d="M341.796 704.931 336.87 710.541 335.675 709.431 334.999 695.774 333.713 695.02 334.368 708.217 330.59 704.708 330.003 692.843 328.717 692.09 329.283 703.494 325.505 699.986 325.006 689.912 323.721 689.158 324.199 698.772 320.421 695.263 320.011 686.981 318.725 686.227 319.113 694.049 314.023 689.322 311.42 677.496C309.995 679.67 308.78 681.982 307.794 684.4 305.568 685.675 303.457 687.151 301.486 688.812L313.176 690.261 318.279 695 310.674 695.399 311.533 696.638 319.587 696.214 323.363 699.723 314.017 700.212 314.876 701.451 324.671 700.937 328.449 704.445 317.36 705.026 318.219 706.265 329.755 705.66 333.533 709.167 320.703 709.84 321.563 711.078 334.84 710.381 336.036 711.491 331.11 717.102C337.414 720.626 345.624 722.555 347.085 720.891 348.546 719.227 345.846 711.022 341.796 704.931ZM304.684 687.918C305.834 687.087 307.069 686.293 308.406 685.515L308.782 685.297 308.946 684.886C309.506 683.495 310.15 682.143 310.878 680.837L312.655 688.906ZM333.121 716.724 341.635 707.026C345.153 712.849 346.717 718.909 346.156 720.028 345.129 720.719 339.11 719.733 333.121 716.724Z" stroke="#ED7D31" stroke-width="0.902572" stroke-miterlimit="8" stroke-opacity="0.3" fill="#ED7D31" fill-rule="evenodd" fill-opacity="0.3"/><path d="M339.333 634.443 344.565 630.591 345.35 631.655 343.511 643.535 345.674 645.45 347.351 634.362 349.246 636.924 347.731 647.222 349.859 649.088 351.282 639.68 353.175 642.242 351.867 650.895 353.995 652.761 355.164 645.033 357.057 647.595 356.003 654.568 358.131 656.435 359.058 650.303 362.632 655.137 362.739 655.282 362.959 665.496C364.682 663.779 366.297 661.918 367.686 659.851 370.039 659.088 372.286 658.181 374.486 657.009L364.773 653.784 364.689 653.771 361.116 648.937 367.26 649.862 366.1 647.282 359.114 646.23 357.221 643.667 364.964 644.834 363.805 642.254 355.149 640.864 353.254 638.302 362.646 639.673 361.487 637.094 351.218 635.546 349.325 632.984 360.399 634.61 359.24 632.029 347.287 630.229 346.502 629.165 351.733 625.314C346.423 620.862 339.01 617.512 337.315 618.76 335.619 620.008 336.639 628.066 339.333 634.443ZM341.705 626.724C342.099 627.255 341.984 628.011 341.452 628.404 340.919 628.797 340.161 628.682 339.768 628.15 339.376 627.619 339.489 626.863 340.022 626.47 340.556 626.078 341.313 626.192 341.705 626.724L341.705 626.724Z" stroke="#ED7D31" stroke-width="0.902572" stroke-miterlimit="8" stroke-opacity="0.3" fill="#ED7D31" fill-rule="evenodd" fill-opacity="0.3"/><path d="M343.598 601.8 350.427 608.351 349.081 609.731 331.483 609.962 329.241 613.517 345.658 613.244 342.417 616.569 327.183 616.884 325.003 620.376 338.932 620.145 335.691 623.47 322.881 623.682 320.701 627.175 332.143 626.984 328.902 630.309 318.581 630.481 316.399 633.973 325.479 633.822 319.365 640.095 319.181 640.284 304.486 643.058C307.382 645.108 310.461 646.97 313.783 648.458 315.454 651.639 317.309 654.633 319.534 657.496L321.836 642.831 321.834 642.708 327.949 636.434 328.1 645.443 331.546 643.164 331.372 632.922 334.613 629.597 334.805 640.95 338.25 638.671 338.159 625.958 341.4 622.634 341.694 636.392 345.139 634.113 344.885 619.058 348.126 615.733 348.462 631.959 351.907 629.68 351.61 612.158 352.956 610.778 359.784 617.33C364.925 608.666 367.967 597.26 365.754 595.136 363.542 593.013 352.153 596.411 343.598 601.8ZM355.318 603.333C354.646 604.022 353.526 604.041 352.831 603.374 352.136 602.707 352.117 601.597 352.789 600.906 353.462 600.216 354.581 600.198 355.276 600.865 355.972 601.532 355.991 602.643 355.318 603.333L355.318 603.333Z" stroke="#ED7D31" stroke-width="0.902572" stroke-miterlimit="8" stroke-opacity="0.3" fill="#C55A11" fill-rule="evenodd" fill-opacity="0.3"/><path d="M347.559 449.041 354.489 450.155 354.263 451.576 343.707 459.216 343.867 462.354 353.69 455.192 353.146 458.615 344.058 465.298 344.228 468.372 352.563 462.295 352.02 465.717 344.355 471.306 344.525 474.38 351.371 469.388 350.828 472.809 344.652 477.314 344.822 480.387 350.254 476.425 349.229 482.883 349.199 483.077 341.486 491.041C344.114 491.067 346.773 490.899 349.419 490.396 351.788 491.638 354.188 492.686 356.757 493.496L351.893 483.51 351.839 483.435 352.864 476.978 356.801 482.445 357.913 479.577 353.438 473.361 353.981 469.94 358.942 476.829 360.054 473.961 354.576 466.195 355.119 462.772 361.168 471.094 362.281 468.227 355.703 459.092 356.246 455.669 363.374 465.489 364.486 462.622 356.83 451.988 357.056 450.568 363.985 451.682C363.401 444.171 360.375 435.87 358.129 435.51 355.884 435.149 350.439 442.088 347.559 449.041ZM355.309 444.989C355.196 445.7 354.526 446.188 353.821 446.074 353.115 445.961 352.629 445.287 352.742 444.577 352.856 443.867 353.524 443.378 354.231 443.492 354.937 443.605 355.422 444.279 355.309 444.989L355.309 444.989Z" stroke="#ED7D31" stroke-width="0.902572" stroke-miterlimit="8" stroke-opacity="0.3" fill="#ED7D31" fill-rule="evenodd" fill-opacity="0.3"/><path d="M342.911 445.408C342.459 445.25 342.348 444.938 342.664 444.711 342.98 444.485 343.603 444.43 344.056 444.588 344.509 444.746 344.62 445.058 344.304 445.284 343.988 445.511 343.363 445.566 342.911 445.408Z" stroke="#ED7D31" stroke-width="0.902572" stroke-miterlimit="8" stroke-opacity="0.3" fill="#ED7D31" fill-rule="evenodd" fill-opacity="0.3"/><path d="M348.522 444.384 344.284 441.486 344.933 440.576 354.142 438.977 354.542 438.037 345.643 439.582 347.694 436.709 355.695 435.32 356.094 434.379 348.403 435.714 350.454 432.841 357.247 431.662 357.646 430.72 351.163 431.846 353.214 428.973 358.8 428.003 359.199 427.062 353.924 427.978 356.688 424.106 364.486 421.344C362.886 420.551 361.211 419.913 359.484 419.44 358.424 418.025 357.237 416.705 355.938 415.496L355.976 423.606 353.206 427.488 352.27 422.323 351.506 423.013 352.496 428.482 350.445 431.355 349.296 425.009 348.531 425.699 349.736 432.349 347.685 435.222 346.321 427.693 345.556 428.384 346.975 436.217 344.924 439.09 343.346 430.378 342.581 431.069 344.214 440.085 343.566 440.994 339.328 438.095C337.486 442.696 336.896 448.467 338.153 449.327 339.41 450.187 344.742 447.659 348.522 444.384ZM356.824 417.608C357.489 418.324 358.136 419.102 358.781 419.952L358.962 420.19 359.254 420.268C360.247 420.535 361.221 420.863 362.171 421.251L356.85 423.137ZM339.759 439.437 347.086 444.449C343.441 447.338 339.466 448.911 338.657 448.62 338.098 447.976 338.241 443.781 339.759 439.437Z" stroke="#ED7D31" stroke-width="0.902572" stroke-miterlimit="8" stroke-opacity="0.3" fill="#ED7D31" fill-rule="evenodd" fill-opacity="0.3"/><path d="M316.552 630.893 309.774 629.31 310.096 627.927 321.071 621.149 321.132 618.05 310.915 624.409 311.692 621.079 321.149 615.139 321.194 612.102 312.525 617.498 313.302 614.167 321.273 609.205 321.319 606.169 314.199 610.601 314.974 607.271 321.398 603.273 321.444 600.236 315.794 603.753 317.257 597.47 317.301 597.282 325.486 589.984C322.888 589.775 320.246 589.754 317.594 590.063 315.337 588.674 313.035 587.474 310.55 586.496L314.665 596.665 314.714 596.743 313.25 603.026 309.738 597.37 308.436 600.113 312.431 606.545 311.654 609.875 307.228 602.746 305.926 605.49 310.806 613.519 310.03 616.849 304.626 608.233 303.324 610.977 309.196 620.43 308.42 623.76 302.053 613.596 300.752 616.339 307.586 627.342 307.264 628.723 300.486 627.141C300.541 634.573 302.956 642.954 305.153 643.468 307.349 643.98 313.218 637.533 316.552 630.893ZM308.603 634.336C308.764 633.645 309.46 633.212 310.151 633.373 310.841 633.534 311.275 634.231 311.114 634.922 310.952 635.613 310.256 636.047 309.565 635.885 308.876 635.725 308.442 635.027 308.603 634.336L308.603 634.336Z" stroke="#ED7D31" stroke-width="0.902572" stroke-miterlimit="8" stroke-opacity="0.3" fill="#F4B183" fill-rule="evenodd" fill-opacity="0.3"/><path d="M330.493 538.126 335.144 532.935 336.207 533.877 336.905 546.743 339.606 548.276 338.913 536.276 341.473 538.547 342.163 549.68 344.816 551.17 344.228 540.989 346.788 543.259 347.329 552.623 349.982 554.112 349.499 545.749 352.059 548.019 352.495 555.565 355.149 557.055 354.765 550.419 359.597 554.703 359.742 554.831 362.238 565.496C363.67 563.317 364.958 561.009 365.96 558.534 368.268 557.216 370.43 555.771 372.486 554.056L361.55 552.812 361.459 552.817 356.627 548.533 363.297 548.152 361.506 545.701 353.922 546.135 351.361 543.864 359.768 543.383 357.976 540.932 348.559 541.379 345.999 539.109 356.184 538.48 354.392 536.029 343.244 536.667 340.684 534.396 352.697 533.663 350.905 531.212 337.929 531.954 336.867 531.012 341.518 525.821C334.944 522.32 326.4 520.438 324.893 522.12 323.386 523.803 326.245 532.03 330.493 538.126ZM331.279 529.507C331.81 529.979 331.857 530.797 331.384 531.326 330.91 531.854 330.088 531.901 329.556 531.431 329.025 530.959 328.978 530.141 329.451 529.612 329.925 529.083 330.747 529.036 331.279 529.507L331.279 529.507Z" stroke="#ED7D31" stroke-width="0.902572" stroke-miterlimit="8" stroke-opacity="0.3" fill="#F4B183" fill-rule="evenodd" fill-opacity="0.3"/><path d="M313.347 519.403C312.597 519.168 312.274 518.573 312.625 518.073 312.976 517.573 313.87 517.358 314.619 517.592 315.37 517.826 315.693 518.421 315.342 518.921 314.99 519.421 314.097 519.637 313.347 519.403Z" stroke="#ED7D31" stroke-width="0.902572" stroke-miterlimit="8" stroke-opacity="0.3" fill="#F8CBAD" fill-rule="evenodd" fill-opacity="0.3"/><path d="M321.255 515.763 314.364 512.635 315.071 511.172 328.016 506.633 328.353 505.186 315.845 509.572 318.081 504.948 329.329 501.005 329.665 499.558 318.854 503.348 321.09 498.725 330.64 495.377 330.977 493.929 321.864 497.124 324.1 492.501 331.951 489.749 332.288 488.3 324.874 490.901 327.887 484.669 338.486 478.805C335.962 478.056 333.369 477.549 330.743 477.291 328.841 475.519 326.782 473.914 324.587 472.496L326.726 484.125 323.706 490.371 321.022 483.187 320.09 484.365 322.932 491.971 320.696 496.594 317.399 487.766 316.466 488.944 319.922 498.195 317.687 502.818 313.774 492.345 312.841 493.522 316.912 504.419 314.677 509.042 310.15 496.923 309.218 498.101 313.904 510.642 313.196 512.105 306.304 508.977C304.817 516.03 305.443 524.456 307.487 525.383 309.531 526.311 316.614 521.384 321.255 515.763ZM326.414 475.31C327.563 476.176 328.701 477.135 329.855 478.197L330.178 478.495 330.623 478.535C332.131 478.676 333.628 478.91 335.106 479.236L327.874 483.239ZM307.276 510.798 319.19 516.205C314.645 521.24 309.283 524.466 308.037 524.248 307.061 523.457 306.189 517.402 307.276 510.798Z" stroke="#ED7D31" stroke-width="0.902572" stroke-miterlimit="8" stroke-opacity="0.3" fill="#F8CBAD" fill-rule="evenodd" fill-opacity="0.3"/><path d="M347.43 122.65C346.518 122.76 345.689 122.099 345.577 121.174 345.465 120.248 346.114 119.408 347.026 119.298 347.938 119.189 348.767 119.85 348.879 120.775 348.991 121.701 348.342 122.54 347.43 122.65Z" stroke="#ED7D31" stroke-width="0.909396" stroke-miterlimit="8" stroke-opacity="0.3" fill="#F4B183" fill-rule="evenodd" fill-opacity="0.3"/><path d="M353.687 113.396 343.946 114.571 343.685 112.404 354.621 98.2527 353.965 96.3594 343.399 110.034 342.573 103.186 352.074 90.8913 351.419 88.9981 342.287 100.817 341.462 93.9686 349.528 83.5299 348.873 81.6367 341.176 91.5988 340.35 84.7509 346.982 76.1686 346.327 74.2752 340.064 82.3811 338.951 73.1525 346.385 59.1013C343.098 59.9867 339.906 61.1975 336.855 62.7162 333.524 61.9973 330.139 61.5805 326.738 61.471L337.297 73.3299 338.413 82.5802 330.403 76.1958 330.216 78.1908 338.699 84.9501 339.525 91.798 329.68 83.9515 329.493 85.9464 339.811 94.1678 340.636 101.016 328.957 91.7072 328.77 93.702 340.922 103.385 341.748 110.233 328.234 99.4628 328.048 101.458 342.034 112.603 342.295 114.77 332.554 115.945C335.915 125.062 342.556 134.292 345.445 133.944 348.335 133.595 352.59 123.05 353.687 113.396ZM330.725 63.4352C332.591 63.6351 334.512 63.9483 336.525 64.3688L337.088 64.487 337.603 64.226C339.35 63.3452 341.152 62.5789 342.996 61.9321L337.924 71.5208ZM334.903 117.362 351.743 115.331C350.338 124.245 346.76 131.651 345.243 132.261 343.618 132.03 338.385 125.687 334.903 117.362Z" stroke="#ED7D31" stroke-width="0.909396" stroke-miterlimit="8" stroke-opacity="0.3" fill="#F4B183" fill-rule="evenodd" fill-opacity="0.3"/><path d="M350.615 362.664C351.044 362.188 351.773 362.145 352.242 362.569 352.71 362.992 352.742 363.721 352.312 364.197 351.883 364.673 351.154 364.715 350.685 364.292 350.217 363.869 350.185 363.14 350.615 362.664Z" stroke="#ED7D31" stroke-width="0.909396" stroke-miterlimit="8" stroke-opacity="0.3" fill="#F4B183" fill-rule="evenodd" fill-opacity="0.3"/><path d="M351.433 370.285 356.024 365.201 357.122 366.192 357.656 378.481 358.839 379.151 358.322 367.276 361.791 370.408 362.255 381.085 363.438 381.755 362.991 371.492 366.46 374.624 366.854 383.689 368.037 384.359 367.661 375.708 371.129 378.84 371.453 386.293 372.636 386.963 372.33 379.924 377.004 384.145 379.331 394.772C380.663 392.806 381.802 390.716 382.73 388.533 384.796 387.37 386.758 386.026 388.591 384.517L377.793 383.293 373.108 379.062 380.141 378.651 379.355 377.542 371.907 377.978 368.439 374.846 377.083 374.341 376.296 373.232 367.238 373.762 363.77 370.63 374.024 370.031 373.238 368.922 362.569 369.546 359.101 366.414 370.966 365.72 370.18 364.612 357.9 365.33 356.802 364.339 361.393 359.255C355.589 356.126 348.013 354.447 346.651 355.955 345.289 357.463 347.73 364.829 351.433 370.285ZM385.628 385.344C384.56 386.1 383.413 386.824 382.171 387.534L381.823 387.732 381.668 388.103C381.142 389.359 380.536 390.581 379.855 391.761L378.266 384.51ZM359.533 359.609 351.596 368.398C348.382 363.18 346.977 357.736 347.503 356.724 348.458 356.096 354.016 356.941 359.533 359.609Z" stroke="#ED7D31" stroke-width="0.909396" stroke-miterlimit="8" stroke-opacity="0.3" fill="#F4B183" fill-rule="evenodd" fill-opacity="0.3"/><path d="M337.956 232.248C338.884 232.164 339.704 232.859 339.789 233.8 339.874 234.741 339.192 235.572 338.264 235.656 337.337 235.74 336.516 235.045 336.431 234.104 336.346 233.162 337.029 232.331 337.956 232.248Z" stroke="#ED7D31" stroke-width="0.909396" stroke-miterlimit="8" stroke-opacity="0.3" fill="#FBE5D6" fill-rule="evenodd" fill-opacity="0.3"/><path d="M331.341 241.433 341.247 240.538 341.446 242.742 329.936 256.749 330.543 258.687 341.664 245.151 342.293 252.115 332.293 264.285 332.899 266.224 342.51 254.525 343.14 261.489 334.649 271.821 335.256 273.76 343.357 263.899 343.987 270.863 337.006 279.358 337.613 281.296 344.204 273.273 345.052 282.657 337.093 296.669C340.45 295.872 343.722 294.742 346.86 293.296 350.212 294.125 353.63 294.65 357.073 294.864L346.733 282.528 345.883 273.121 353.806 279.833 354.056 277.817 345.666 270.711 345.036 263.747 354.774 271.996 355.024 269.981 344.819 261.337 344.189 254.373 355.742 264.16 355.991 262.144 343.972 251.964 343.343 245 356.709 256.323 356.959 254.307 343.125 242.59 342.926 240.386 352.832 239.491C349.703 230.152 343.254 220.597 340.315 220.862 337.377 221.128 332.745 231.684 331.341 241.433ZM353.093 292.753C351.208 292.494 349.27 292.118 347.244 291.631L346.677 291.494 346.147 291.743C344.35 292.583 342.502 293.304 340.613 293.904L346.043 284.342ZM350.495 237.984 333.369 239.531C335.064 230.542 338.914 223.146 340.47 222.574 342.109 222.858 347.219 229.443 350.495 237.984Z" stroke="#ED7D31" stroke-width="0.909396" stroke-miterlimit="8" stroke-opacity="0.3" fill="#FBE5D6" fill-rule="evenodd" fill-opacity="0.3"/><path d="M355.554 485.972C356.386 486.361 356.74 487.362 356.344 488.206 355.949 489.05 354.954 489.419 354.122 489.029 353.29 488.639 352.937 487.639 353.332 486.795 353.728 485.951 354.723 485.582 355.554 485.972Z" stroke="#ED7D31" stroke-width="0.909396" stroke-miterlimit="8" stroke-opacity="0.3" fill="#ED7D31" fill-rule="evenodd" fill-opacity="0.3"/><path d="M345.35 490.51 354.235 494.673 353.309 496.649 336.539 502.861 336.092 504.814 352.297 498.811 349.371 505.057 334.8 510.454 334.353 512.407 348.358 507.218 345.432 513.464 333.061 518.047 332.614 520 344.419 515.626 341.493 521.872 331.322 525.639 330.875 527.592 340.48 524.033 336.537 532.451 322.789 540.432C326.046 541.422 329.395 542.086 332.788 542.413 335.232 544.787 337.883 546.934 340.709 548.828L338.033 533.176 341.986 524.739 345.4 534.397 346.614 532.803 342.999 522.577 345.925 516.331 350.12 528.201 351.335 526.608 346.938 514.17 349.864 507.924 354.841 522.005 356.056 520.412 350.877 505.762 353.803 499.516 359.562 515.809 360.776 514.216 354.815 497.355 355.741 495.378 364.626 499.54C366.604 490.028 365.859 478.68 363.224 477.446 360.589 476.211 351.394 482.902 345.35 490.51ZM338.368 545.05C336.891 543.892 335.427 542.609 333.943 541.186L333.527 540.788 332.953 540.737C331.004 540.558 329.07 540.254 327.163 539.826L336.544 534.379ZM363.385 497.095 348.024 489.899C353.938 483.082 360.894 478.695 362.505 478.981 363.76 480.037 364.84 488.189 363.385 497.095Z" stroke="#ED7D31" stroke-width="0.909396" stroke-miterlimit="8" stroke-opacity="0.3" fill="#ED7D31" fill-rule="evenodd" fill-opacity="0.3"/><path d="M316.313 129.907C316.938 129.215 317.997 129.153 318.678 129.769 319.36 130.384 319.406 131.444 318.781 132.136 318.157 132.828 317.098 132.89 316.416 132.275 315.734 131.659 315.688 130.599 316.313 129.907Z" stroke="#ED7D31" stroke-width="0.909396" stroke-miterlimit="8" stroke-opacity="0.3" fill="#F8CBAD" fill-rule="evenodd" fill-opacity="0.3"/><path d="M317.503 140.988 324.178 133.596 325.774 135.037 326.55 152.904 328.271 153.878 327.519 136.613 332.563 141.167 333.237 156.69 334.957 157.664 334.308 142.743 339.351 147.296 339.923 160.476 341.644 161.45 341.096 148.872 346.139 153.426 346.61 164.262 348.33 165.236 347.885 155.002 354.681 161.139 358.064 176.59C360.001 173.731 361.656 170.693 363.006 167.519 366.01 165.827 368.862 163.873 371.527 161.68L355.828 159.901 349.016 153.749 359.242 153.151 358.099 151.539 347.271 152.173 342.228 147.619 354.795 146.885 353.652 145.272 340.482 146.044 335.439 141.49 350.349 140.618 349.206 139.006 333.694 139.914 328.651 135.36 345.902 134.351 344.759 132.739 326.905 133.784 325.31 132.343 331.984 124.951C323.545 120.401 312.53 117.96 310.55 120.153 308.57 122.346 312.119 133.056 317.503 140.988ZM367.22 162.882C365.667 163.982 363.999 165.033 362.193 166.066L361.686 166.355 361.462 166.894C360.697 168.719 359.816 170.496 358.825 172.212L356.516 161.669ZM329.279 125.465 317.74 138.245C313.068 130.658 311.025 122.743 311.789 121.272 313.178 120.358 321.258 121.587 329.279 125.465Z" stroke="#ED7D31" stroke-width="0.909396" stroke-miterlimit="8" stroke-opacity="0.3" fill="#F8CBAD" fill-rule="evenodd" fill-opacity="0.3"/><path d="M333.997 433.536 340.593 427.112 341.921 428.475 341.763 445.664 345.211 447.983 345.303 431.947 348.503 435.233 348.479 450.116 351.868 452.373 351.945 438.767 355.145 442.053 355.074 454.566 358.463 456.823 358.526 445.646 361.727 448.932 361.669 459.016 365.058 461.273 365.108 452.404 371.146 458.604 371.328 458.79 373.736 473.238C375.816 470.486 377.716 467.549 379.252 464.361 382.419 462.847 385.405 461.147 388.272 459.08L373.893 456.292 373.771 456.289 367.733 450.09 376.599 450.273 374.433 446.826 364.351 446.618 361.151 443.332 372.325 443.563 370.158 440.116 357.649 439.736 354.448 436.45 367.992 436.669 365.825 433.222 351.007 432.916 347.806 429.63 363.779 429.9 361.612 426.453 344.364 426.096 343.036 424.732 349.632 418.308C341.22 412.97 330.064 409.58 327.926 411.662 325.789 413.744 328.883 424.986 333.997 433.536ZM335.762 422.152C336.427 422.834 336.42 423.927 335.748 424.581 335.077 425.236 333.983 425.213 333.319 424.531 332.655 423.849 332.661 422.756 333.333 422.102 334.005 421.447 335.098 421.47 335.762 422.152L335.762 422.152Z" stroke="#ED7D31" stroke-width="0.909396" stroke-miterlimit="8" stroke-opacity="0.3" fill="#F8CBAD" fill-rule="evenodd" fill-opacity="0.3"/><path d="M339.241 337.542C339.84 337.741 340.163 338.396 339.961 339.004 339.759 339.613 339.109 339.945 338.51 339.746 337.91 339.547 337.588 338.893 337.789 338.284 337.991 337.676 338.641 337.343 339.241 337.542Z" stroke="#ED7D31" stroke-width="0.909396" stroke-miterlimit="8" stroke-opacity="0.3" fill="#ED7D31" fill-rule="evenodd" fill-opacity="0.3"/><path d="M332.639 341.467 339.044 343.591 338.571 345.017 327.619 350.617 327.472 351.987 338.055 346.575 336.562 351.078 327.046 355.943 326.899 357.313 336.045 352.636 334.552 357.139 326.473 361.27 326.326 362.64 334.035 358.697 332.542 363.2 325.9 366.597 325.752 367.967 332.025 364.759 330.013 370.827 321.269 377.391C323.573 377.804 325.914 377.986 328.258 377.935 330.12 379.359 332.104 380.61 334.188 381.675L331.094 371.202 333.111 365.119 336.224 371.439 336.924 370.253 333.627 363.56 335.121 359.057 338.947 366.825 339.647 365.639 335.637 357.499 337.13 352.996 341.669 362.211 342.37 361.025 337.647 351.438 339.14 346.935 344.392 357.597 345.093 356.411 339.657 345.376 340.13 343.952 346.535 346.076C347.116 339.418 345.689 331.728 343.789 331.098 341.889 330.468 336.151 335.782 332.639 341.467ZM332.283 379.285C331.18 378.613 330.077 377.855 328.948 377.004L328.632 376.765 328.235 376.777C326.89 376.813 325.544 376.761 324.207 376.623L330.173 372.144ZM345.489 344.505 334.415 340.833C337.903 335.699 342.299 332.139 343.422 332.204 344.365 332.824 345.762 338.305 345.489 344.505Z" stroke="#ED7D31" stroke-width="0.909396" stroke-miterlimit="8" stroke-opacity="0.3" fill="#ED7D31" fill-rule="evenodd" fill-opacity="0.3"/><path d="M304.075 444.1C304.504 443.624 305.233 443.582 305.702 444.005 306.17 444.428 306.202 445.157 305.772 445.633 305.343 446.109 304.614 446.152 304.145 445.729 303.677 445.305 303.645 444.576 304.075 444.1Z" stroke="#ED7D31" stroke-width="0.909396" stroke-miterlimit="8" stroke-opacity="0.3" fill="#C55A11" fill-rule="evenodd" fill-opacity="0.3"/><path d="M304.894 451.722 309.484 446.638 310.582 447.629 311.116 459.918 312.299 460.587 311.782 448.713 315.251 451.845 315.715 462.522 316.898 463.191 316.452 452.929 319.92 456.061 320.314 465.126 321.497 465.795 321.121 457.145 324.589 460.277 324.913 467.73 326.096 468.399 325.79 461.361 330.464 465.582 332.791 476.208C334.124 474.242 335.262 472.152 336.19 469.97 338.256 468.806 340.218 467.462 342.051 465.954L331.253 464.73 326.568 460.499 333.601 460.088 332.815 458.979 325.367 459.415 321.899 456.283 330.543 455.778 329.757 454.669 320.698 455.199 317.23 452.067 327.485 451.467 326.698 450.358 316.029 450.983 312.561 447.851 324.426 447.157 323.64 446.048 311.36 446.767 310.263 445.776 314.853 440.692C309.049 437.562 301.473 435.883 300.111 437.391 298.749 438.899 301.19 446.266 304.894 451.722ZM339.088 466.78C338.02 467.537 336.873 468.26 335.631 468.97L335.283 469.169 335.128 469.54C334.602 470.795 333.996 472.017 333.315 473.198L331.726 465.946ZM312.993 441.045 305.056 449.835C301.842 444.616 300.437 439.172 300.963 438.161 301.918 437.533 307.476 438.378 312.993 441.045Z" stroke="#ED7D31" stroke-width="0.909396" stroke-miterlimit="8" stroke-opacity="0.3" fill="#C55A11" fill-rule="evenodd" fill-opacity="0.3"/><path d="M373.12 107.101C373.63 107.474 373.736 108.196 373.357 108.714 372.978 109.231 372.258 109.348 371.748 108.975 371.238 108.601 371.132 107.88 371.511 107.362 371.89 106.845 372.61 106.728 373.12 107.101Z" stroke="#ED7D31" stroke-width="0.909396" stroke-miterlimit="8" stroke-opacity="0.3" fill="#ED7D31" fill-rule="evenodd" fill-opacity="0.3"/><path d="M365.631 108.812 371.076 112.799 370.189 114.01 358.047 115.979 357.486 117.238 369.219 115.335 366.416 119.162 355.867 120.873 355.306 122.132 365.446 120.487 362.643 124.314 353.686 125.766 353.126 127.025 361.673 125.639 358.87 129.466 351.506 130.66 350.945 131.919 357.9 130.791 354.122 135.949 343.786 139.513C345.853 140.612 348.025 141.504 350.271 142.176 351.606 144.101 353.111 145.902 354.767 147.555L355.036 136.637 358.823 131.466 359.846 138.437 360.877 137.523 359.793 130.142 362.596 126.314 363.853 134.882 364.884 133.967 363.566 124.99 366.369 121.162 367.861 131.326 368.892 130.412 367.339 119.838 370.142 116.01 371.868 127.77 372.899 126.856 371.112 114.686 371.999 113.475 377.443 117.462C380.039 111.304 381.041 103.547 379.427 102.364 377.812 101.182 370.719 104.478 365.631 108.812ZM353.688 144.695C352.844 143.717 352.027 142.657 351.214 141.501L350.986 141.176 350.605 141.066C349.313 140.687 348.048 140.225 346.818 139.683L353.871 137.251ZM376.93 115.647 367.517 108.753C372.412 104.937 377.689 102.898 378.738 103.305 379.445 104.184 379.093 109.829 376.93 115.647Z" stroke="#ED7D31" stroke-width="0.909396" stroke-miterlimit="8" stroke-opacity="0.3" fill="#ED7D31" fill-rule="evenodd" fill-opacity="0.3"/><path d="M348.28 380.628C348.57 381.2 348.349 381.896 347.785 382.181 347.222 382.467 346.53 382.235 346.24 381.664 345.95 381.092 346.171 380.396 346.734 380.111 347.298 379.825 347.99 380.057 348.28 380.628Z" stroke="#ED7D31" stroke-width="0.909396" stroke-miterlimit="8" stroke-opacity="0.3" fill="#C55A11" fill-rule="evenodd" fill-opacity="0.3"/><path d="M340.869 378.661 343.969 384.77 342.65 385.439 330.986 381.531 329.937 382.396 341.208 386.171 337.04 388.286 326.907 384.891 325.857 385.755 335.598 389.018 331.43 391.133 322.827 388.25 321.778 389.115 329.988 391.865 325.82 393.98 318.747 391.61 317.698 392.474 324.378 394.712 318.762 397.562 308.007 395.924C309.365 397.873 310.907 399.685 312.612 401.334 312.957 403.68 313.509 405.993 314.26 408.245L319.274 398.604 324.904 395.747 322.765 402.46 324.083 402.124 326.346 395.015 330.513 392.9 327.886 401.151 329.203 400.815 331.956 392.169 336.123 390.054 333.006 399.841 334.323 399.505 337.565 389.322 341.733 387.207 338.126 398.532 339.443 398.196 343.175 386.475 344.494 385.805 347.594 391.914C352.597 387.618 356.881 381.147 355.961 379.335 355.042 377.523 347.29 377.161 340.869 378.661ZM314.55 405.183C314.227 403.915 313.963 402.584 313.746 401.17L313.685 400.774 313.395 400.497C312.411 399.555 311.488 398.552 310.63 397.492L317.969 398.61ZM347.931 390.051 342.572 379.49C348.596 378.361 354.181 379.001 354.937 379.855 355.181 380.972 352.4 385.857 347.931 390.051Z" stroke="#ED7D31" stroke-width="0.909396" stroke-miterlimit="8" stroke-opacity="0.3" fill="#C55A11" fill-rule="evenodd" fill-opacity="0.3"/><path d="M370.61 208.363 361.446 209.254 361.261 207.359 372.13 194.042 370.888 190.075 360.792 202.535 360.348 197.97 369.671 186.368 368.437 182.488 359.871 193.06 359.427 188.494 367.305 178.772 366.071 174.892 359.034 183.576 358.59 179.011 364.938 171.176 363.705 167.297 358.121 174.187 357.284 165.573 357.259 165.315 364.41 152.533C361.066 153.38 357.748 154.485 354.555 156.013 351.137 155.215 347.744 154.675 344.215 154.497L353.695 165.661 353.788 165.739 354.626 174.353 347.82 168.667 347.356 172.712 355.095 179.177 355.539 183.742 346.961 176.577 346.498 180.621 356.024 188.738 356.468 193.304 346.035 184.666 345.571 188.711 356.946 198.214 357.39 202.779 345.091 192.584 344.628 196.629 357.867 207.689 358.051 209.584 348.887 210.475C352.116 219.9 358.705 229.52 361.675 229.231 364.645 228.942 369.257 218.233 370.61 208.363ZM362.116 216.145C362.024 215.197 362.712 214.348 363.645 214.257 364.579 214.166 365.418 214.867 365.51 215.815 365.602 216.762 364.914 217.612 363.98 217.703 363.047 217.793 362.208 217.092 362.116 216.145L362.116 216.145Z" stroke="#ED7D31" stroke-width="0.909396" stroke-miterlimit="8" stroke-opacity="0.3" fill="#ED7D31" fill-rule="evenodd" fill-opacity="0.3"/><path d="M320.586 172.275 323.95 168.999 324.627 169.695 324.546 178.461 326.305 179.643 326.352 171.465 327.984 173.141 327.972 180.731 329.7 181.882 329.739 174.943 331.371 176.619 331.335 183.001 333.063 184.152 333.096 178.452 334.728 180.127 334.699 185.27 336.427 186.421 336.452 181.898 339.532 185.06 339.624 185.155 340.852 192.523C341.914 191.12 342.882 189.622 343.666 187.996 345.281 187.224 346.804 186.357 348.266 185.303L340.933 183.881 340.871 183.879 337.791 180.717 342.313 180.811 341.208 179.053 336.067 178.947 334.434 177.271 340.133 177.389 339.028 175.631 332.648 175.437 331.016 173.761 337.923 173.873 336.818 172.115 329.261 171.959 327.629 170.283 335.774 170.421 334.669 168.663 325.873 168.481 325.196 167.785 328.56 164.509C324.27 161.787 318.58 160.058 317.49 161.12 316.4 162.182 317.978 167.915 320.586 172.275ZM321.486 166.469C321.825 166.817 321.822 167.375 321.479 167.708 321.136 168.042 320.579 168.031 320.24 167.683 319.902 167.335 319.905 166.777 320.247 166.444 320.59 166.11 321.147 166.122 321.486 166.469L321.486 166.469Z" stroke="#ED7D31" stroke-width="0.909396" stroke-miterlimit="8" stroke-opacity="0.3" fill="#ED7D31" fill-rule="evenodd" fill-opacity="0.3"/><path d="M303.046 90.5214C302.76 89.6342 303.236 88.6863 304.11 88.4042 304.984 88.1221 305.925 88.6126 306.211 89.4998 306.498 90.387 306.021 91.335 305.147 91.6171 304.273 91.8992 303.332 91.4087 303.046 90.5214Z" stroke="#ED7D31" stroke-width="0.909396" stroke-miterlimit="8" stroke-opacity="0.3" fill="#F8CBAD" fill-rule="evenodd" fill-opacity="0.3"/><path d="M313.236 95.039 310.177 85.5608 312.223 84.9003 328.08 93.17 329.784 92.1678 314.461 84.178 320.927 82.0908 334.704 89.2759 336.408 88.2736 323.165 81.3685 329.631 79.2813 341.328 85.3816 343.032 84.3794 331.869 78.559 338.335 76.4717 347.952 81.4873 349.656 80.4852 340.573 75.7494 349.287 72.9366 364.357 77.7399C362.851 74.6321 361.049 71.6787 358.977 68.9221 359.016 65.4747 358.751 62.0281 358.187 58.6229L348.79 71.3235 340.055 74.143 344.655 64.9907 342.687 65.1736 337.817 74.8653 331.35 76.9525 337.004 65.7041 335.036 65.887 329.113 77.6748 322.646 79.762 329.353 66.4175 327.385 66.6004 320.408 80.4843 313.942 82.5715 321.702 67.1309 319.734 67.3137 311.704 83.2938 309.658 83.9543 306.599 74.4762C298.436 79.5054 290.81 87.8207 291.718 90.6321 292.625 93.4434 303.674 95.7309 313.236 95.039ZM357.072 62.9535C357.246 64.8483 357.322 66.8185 357.312 68.899L357.309 69.4818 357.663 69.9458C358.861 71.5221 359.958 73.1735 360.948 74.8899L350.665 71.6132ZM305.69 77.0753 310.979 93.4614C302.072 93.7094 294.197 91.5169 293.307 90.1192 293.21 88.4597 298.318 82.0793 305.69 77.0753Z" stroke="#ED7D31" stroke-width="0.909396" stroke-miterlimit="8" stroke-opacity="0.3" fill="#F8CBAD" fill-rule="evenodd" fill-opacity="0.3"/><path d="M364.591 296.566 361.102 305.088 359.34 304.366 352.635 288.539 348.547 287.787 354.855 302.53 350.61 300.792 344.7 287.133 340.693 286.413 346.045 298.923 341.8 297.185 336.878 285.68 332.871 284.961 337.267 295.237 333.022 293.499 329.056 284.228 325.049 283.509 328.537 291.662 320.528 288.383 320.288 288.285 312.321 275.994C311.509 279.347 310.938 282.798 310.799 286.334 308.498 288.985 306.437 291.734 304.632 294.773L318.931 291.599 319.043 291.552 327.052 294.832 318.848 298.197 322.209 300.495 331.538 296.668 335.783 298.406 325.442 302.648 328.803 304.945 340.428 300.308 344.673 302.046 332.164 307.243 335.526 309.54 349.238 303.915 353.483 305.653 338.727 311.772 342.088 314.07 358.048 307.522 359.81 308.244 356.321 316.765C366.164 318.307 377.747 316.97 378.877 314.208 380.008 311.447 372.689 302.37 364.591 296.566ZM367.51 307.711C366.629 307.35 366.199 306.345 366.554 305.477 366.909 304.609 367.921 304.194 368.802 304.555 369.683 304.916 370.113 305.921 369.758 306.789 369.402 307.657 368.391 308.072 367.51 307.711L367.51 307.711Z" stroke="#ED7D31" stroke-width="0.909396" stroke-miterlimit="8" stroke-opacity="0.3" fill="#ED7D31" fill-rule="evenodd" fill-opacity="0.3"/></g></svg>