<svg width="146" height="781" xmlns="http://www.w3.org/2000/svg" xmlns:xlink="http://www.w3.org/1999/xlink" overflow="hidden"><defs><clipPath id="clip0"><rect x="-19" y="49" width="146" height="781"/></clipPath><clipPath id="clip1"><path d="M12.5523 472.585 4.54694 406.213 70.9195 398.208 78.9248 464.58Z" fill-rule="evenodd" clip-rule="evenodd"/></clipPath><clipPath id="clip2"><path d="M12.5523 472.585 4.54694 406.213 70.9194 398.208 78.9248 464.58Z" fill-rule="evenodd" clip-rule="evenodd"/></clipPath><clipPath id="clip3"><path d="M12.5523 472.585 4.54694 406.213 70.9194 398.208 78.9248 464.58Z" fill-rule="evenodd" clip-rule="evenodd"/></clipPath><clipPath id="clip4"><path d="M19.723 175.387 53.8508 206.203 23.0347 240.331-11.0931 209.515Z" fill-rule="evenodd" clip-rule="evenodd"/></clipPath><clipPath id="clip5"><path d="M19.723 175.387 53.8508 206.203 23.0347 240.331-11.0931 209.515Z" fill-rule="evenodd" clip-rule="evenodd"/></clipPath><clipPath id="clip6"><path d="M19.723 175.387 53.8508 206.203 23.0347 240.331-11.0931 209.515Z" fill-rule="evenodd" clip-rule="evenodd"/></clipPath><clipPath id="clip7"><path d="M70.1907 265.521 76.289 333.018 8.79283 339.116 2.6945 271.62Z" fill-rule="evenodd" clip-rule="evenodd"/></clipPath><clipPath id="clip8"><path d="M70.1907 265.521 76.289 333.018 8.79283 339.116 2.6945 271.62Z" fill-rule="evenodd" clip-rule="evenodd"/></clipPath><clipPath id="clip9"><path d="M70.1907 265.521 76.289 333.018 8.79283 339.116 2.6945 271.62Z" fill-rule="evenodd" clip-rule="evenodd"/></clipPath><clipPath id="clip10"><path d="M80.81 77.74 52.4483 138.279-8.09105 109.918 20.2707 49.3783Z" fill-rule="evenodd" clip-rule="evenodd"/></clipPath><clipPath id="clip11"><path d="M80.81 77.74 52.4483 138.279-8.09105 109.918 20.2707 49.3783Z" fill-rule="evenodd" clip-rule="evenodd"/></clipPath><clipPath id="clip12"><path d="M80.81 77.74 52.4483 138.279-8.09105 109.918 20.2707 49.3783Z" fill-rule="evenodd" clip-rule="evenodd"/></clipPath><clipPath id="clip13"><path d="M42.0938 348.903 91.7125 393.707 46.9087 443.325-2.71004 398.521Z" fill-rule="evenodd" clip-rule="evenodd"/></clipPath><clipPath id="clip14"><path d="M42.0938 348.903 91.7125 393.707 46.9087 443.325-2.71004 398.521Z" fill-rule="evenodd" clip-rule="evenodd"/></clipPath><clipPath id="clip15"><path d="M42.0938 348.903 91.7125 393.707 46.9087 443.325-2.71004 398.521Z" fill-rule="evenodd" clip-rule="evenodd"/></clipPath><clipPath id="clip16"><path d="M31.097 104.835 78.9248 153.942 29.8183 201.769-18.0095 152.663Z" fill-rule="evenodd" clip-rule="evenodd"/></clipPath><clipPath id="clip17"><path d="M31.097 104.835 78.9248 153.942 29.8183 201.769-18.0095 152.663Z" fill-rule="evenodd" clip-rule="evenodd"/></clipPath><clipPath id="clip18"><path d="M31.097 104.835 78.9248 153.942 29.8183 201.769-18.0095 152.663Z" fill-rule="evenodd" clip-rule="evenodd"/></clipPath><clipPath id="clip19"><path d="M75.2219 207.723 60.7494 251.368 17.1044 236.896 31.5769 193.251Z" fill-rule="evenodd" clip-rule="evenodd"/></clipPath><clipPath id="clip20"><path d="M75.2219 207.723 60.7494 251.368 17.1044 236.896 31.5769 193.251Z" fill-rule="evenodd" clip-rule="evenodd"/></clipPath><clipPath id="clip21"><path d="M75.2219 207.723 60.7494 251.368 17.1044 236.896 31.5769 193.251Z" fill-rule="evenodd" clip-rule="evenodd"/></clipPath><clipPath id="clip22"><path d="M58.7095 108.194 92.8373 139.01 62.0212 173.137 27.8934 142.321Z" fill-rule="evenodd" clip-rule="evenodd"/></clipPath><clipPath id="clip23"><path d="M58.7095 108.194 92.8373 139.01 62.0212 173.137 27.8934 142.321Z" fill-rule="evenodd" clip-rule="evenodd"/></clipPath><clipPath id="clip24"><path d="M58.7095 108.194 92.8373 139.01 62.0212 173.137 27.8934 142.321Z" fill-rule="evenodd" clip-rule="evenodd"/></clipPath><clipPath id="clip25"><path d="M54.3362 409.059 27.1682 446.157-9.92948 418.989 17.2385 381.891Z" fill-rule="evenodd" clip-rule="evenodd"/></clipPath><clipPath id="clip26"><path d="M54.3362 409.059 27.1682 446.157-9.92948 418.989 17.2385 381.891Z" fill-rule="evenodd" clip-rule="evenodd"/></clipPath><clipPath id="clip27"><path d="M54.3362 409.059 27.1682 446.157-9.92948 418.989 17.2385 381.891Z" fill-rule="evenodd" clip-rule="evenodd"/></clipPath><clipPath id="clip28"><path d="M78.9247 203.238 37.9206 224.047 17.1119 183.043 58.116 162.234Z" fill-rule="evenodd" clip-rule="evenodd"/></clipPath><clipPath id="clip29"><path d="M78.9247 203.238 37.9206 224.047 17.1119 183.043 58.116 162.234Z" fill-rule="evenodd" clip-rule="evenodd"/></clipPath><clipPath id="clip30"><path d="M78.9247 203.238 37.9206 224.047 17.1119 183.043 58.116 162.234Z" fill-rule="evenodd" clip-rule="evenodd"/></clipPath><clipPath id="clip31"><path d="M-3.29949 395.061-9.93378 326.834 58.2933 320.2 64.9276 388.427Z" fill-rule="evenodd" clip-rule="evenodd"/></clipPath><clipPath id="clip32"><path d="M-3.29949 395.061-9.93378 326.834 58.2933 320.2 64.9276 388.427Z" fill-rule="evenodd" clip-rule="evenodd"/></clipPath><clipPath id="clip33"><path d="M-3.29949 395.061-9.93378 326.834 58.2933 320.2 64.9276 388.427Z" fill-rule="evenodd" clip-rule="evenodd"/></clipPath><clipPath id="clip34"><path d="M50.4117 346.343 74.8037 371.387 49.7595 395.779 25.3675 370.735Z" fill-rule="evenodd" clip-rule="evenodd"/></clipPath><clipPath id="clip35"><path d="M50.4117 346.343 74.8037 371.387 49.7595 395.779 25.3675 370.735Z" fill-rule="evenodd" clip-rule="evenodd"/></clipPath><clipPath id="clip36"><path d="M50.4117 346.343 74.8037 371.387 49.7595 395.779 25.3675 370.735Z" fill-rule="evenodd" clip-rule="evenodd"/></clipPath><clipPath id="clip37"><path d="M11.7724 428.436 75.3938 407.901 95.9295 471.522 32.3081 492.058Z" fill-rule="evenodd" clip-rule="evenodd"/></clipPath><clipPath id="clip38"><path d="M11.7724 428.436 75.3938 407.901 95.9295 471.522 32.3081 492.058Z" fill-rule="evenodd" clip-rule="evenodd"/></clipPath><clipPath id="clip39"><path d="M11.7724 428.436 75.3938 407.901 95.9295 471.522 32.3081 492.058Z" fill-rule="evenodd" clip-rule="evenodd"/></clipPath><clipPath id="clip40"><path d="M5.24951 479.016 66.0916 451.31 93.7978 512.152 32.9557 539.858Z" fill-rule="evenodd" clip-rule="evenodd"/></clipPath><clipPath id="clip41"><path d="M5.24951 479.016 66.0916 451.31 93.7978 512.152 32.9557 539.858Z" fill-rule="evenodd" clip-rule="evenodd"/></clipPath><clipPath id="clip42"><path d="M5.24951 479.016 66.0916 451.31 93.7978 512.152 32.9557 539.858Z" fill-rule="evenodd" clip-rule="evenodd"/></clipPath><clipPath id="clip43"><path d="M65.3508 587.069 15.7321 542.265 60.5359 492.647 110.155 537.45Z" fill-rule="evenodd" clip-rule="evenodd"/></clipPath><clipPath id="clip44"><path d="M65.3508 587.069 15.7321 542.265 60.5359 492.647 110.155 537.45Z" fill-rule="evenodd" clip-rule="evenodd"/></clipPath><clipPath id="clip45"><path d="M65.3508 587.069 15.7321 542.265 60.5359 492.647 110.155 537.45Z" fill-rule="evenodd" clip-rule="evenodd"/></clipPath><clipPath id="clip46"><path d="M57.7088 681.968 8.09007 637.164 52.8939 587.546 102.513 632.349Z" fill-rule="evenodd" clip-rule="evenodd"/></clipPath><clipPath id="clip47"><path d="M57.7088 681.968 8.09006 637.164 52.8939 587.546 102.513 632.349Z" fill-rule="evenodd" clip-rule="evenodd"/></clipPath><clipPath id="clip48"><path d="M57.7088 681.968 8.09006 637.164 52.8939 587.546 102.513 632.349Z" fill-rule="evenodd" clip-rule="evenodd"/></clipPath><clipPath id="clip49"><path d="M70.5664 548.419 20.9477 503.616 65.7515 453.997 115.37 498.801Z" fill-rule="evenodd" clip-rule="evenodd"/></clipPath><clipPath id="clip50"><path d="M70.5664 548.419 20.9477 503.616 65.7515 453.997 115.37 498.801Z" fill-rule="evenodd" clip-rule="evenodd"/></clipPath><clipPath id="clip51"><path d="M70.5664 548.419 20.9477 503.616 65.7515 453.997 115.37 498.801Z" fill-rule="evenodd" clip-rule="evenodd"/></clipPath><clipPath id="clip52"><path d="M46.2594 524.916 84.027 576.112 32.8307 613.88-4.93694 562.684Z" fill-rule="evenodd" clip-rule="evenodd"/></clipPath><clipPath id="clip53"><path d="M46.2594 524.916 84.027 576.112 32.8307 613.88-4.93694 562.684Z" fill-rule="evenodd" clip-rule="evenodd"/></clipPath><clipPath id="clip54"><path d="M46.2594 524.916 84.027 576.112 32.8307 613.88-4.93694 562.684Z" fill-rule="evenodd" clip-rule="evenodd"/></clipPath><clipPath id="clip55"><path d="M120.637 587.611 56.3955 654.04-10.0342 589.799 54.2072 523.369Z" fill-rule="evenodd" clip-rule="evenodd"/></clipPath><clipPath id="clip56"><path d="M120.637 587.611 56.3955 654.04-10.0342 589.799 54.2072 523.369Z" fill-rule="evenodd" clip-rule="evenodd"/></clipPath><clipPath id="clip57"><path d="M120.637 587.611 56.3955 654.04-10.0342 589.799 54.2072 523.369Z" fill-rule="evenodd" clip-rule="evenodd"/></clipPath><clipPath id="clip58"><path d="M78.7981 734.15 67.8408 802.757-0.765587 791.8 10.1917 723.193Z" fill-rule="evenodd" clip-rule="evenodd"/></clipPath><clipPath id="clip59"><path d="M78.7981 734.15 67.8408 802.757-0.765579 791.8 10.1917 723.193Z" fill-rule="evenodd" clip-rule="evenodd"/></clipPath><clipPath id="clip60"><path d="M78.7981 734.15 67.8408 802.757-0.765579 791.8 10.1917 723.193Z" fill-rule="evenodd" clip-rule="evenodd"/></clipPath><clipPath id="clip61"><path d="M11.4556 802.367 37.7927 764.675 75.4848 791.012 49.1478 828.704Z" fill-rule="evenodd" clip-rule="evenodd"/></clipPath><clipPath id="clip62"><path d="M11.4556 802.367 37.7927 764.675 75.4848 791.012 49.1478 828.704Z" fill-rule="evenodd" clip-rule="evenodd"/></clipPath><clipPath id="clip63"><path d="M11.4556 802.367 37.7927 764.675 75.4848 791.012 49.1478 828.704Z" fill-rule="evenodd" clip-rule="evenodd"/></clipPath><clipPath id="clip64"><path d="M43.4704 621.91 59.0396 555.153 125.797 570.722 110.228 637.479Z" fill-rule="evenodd" clip-rule="evenodd"/></clipPath><clipPath id="clip65"><path d="M43.4704 621.91 59.0396 555.153 125.797 570.722 110.228 637.479Z" fill-rule="evenodd" clip-rule="evenodd"/></clipPath><clipPath id="clip66"><path d="M43.4704 621.91 59.0396 555.153 125.797 570.722 110.228 637.479Z" fill-rule="evenodd" clip-rule="evenodd"/></clipPath><clipPath id="clip67"><path d="M44.2397 630.131 95.4138 675.74 49.805 726.914-1.36907 681.305Z" fill-rule="evenodd" clip-rule="evenodd"/></clipPath><clipPath id="clip68"><path d="M44.2397 630.131 95.4138 675.74 49.805 726.914-1.36907 681.305Z" fill-rule="evenodd" clip-rule="evenodd"/></clipPath><clipPath id="clip69"><path d="M44.2397 630.131 95.4138 675.74 49.805 726.914-1.36907 681.305Z" fill-rule="evenodd" clip-rule="evenodd"/></clipPath><clipPath id="clip70"><path d="M31.7361 739.044 60.0979 678.504 120.637 706.866 92.2755 767.405Z" fill-rule="evenodd" clip-rule="evenodd"/></clipPath><clipPath id="clip71"><path d="M31.7361 739.044 60.0979 678.504 120.637 706.866 92.2755 767.405Z" fill-rule="evenodd" clip-rule="evenodd"/></clipPath><clipPath id="clip72"><path d="M31.7361 739.044 60.0979 678.504 120.637 706.866 92.2755 767.405Z" fill-rule="evenodd" clip-rule="evenodd"/></clipPath></defs><g clip-path="url(#clip0)" transform="translate(19 -49)"><g clip-path="url(#clip1)"><g clip-path="url(#clip2)"><g clip-path="url(#clip3)"><path d="M36.3853 414.297C37.149 414.205 37.8427 414.75 37.9348 415.513 38.0269 416.277 37.4825 416.971 36.7188 417.063 35.9552 417.155 35.2614 416.61 35.1693 415.847 35.0772 415.083 35.6216 414.389 36.3853 414.297Z" fill="#7F7F7F" fill-opacity="0.47"/><path d="M31.135 421.945 39.2933 420.961 39.5089 422.749 30.3312 434.443 30.8773 436.005 39.7448 424.704 40.4262 430.354 32.4523 440.514 32.9984 442.076 40.662 432.309 41.3435 437.959 34.5734 446.585 35.1195 448.147 41.5793 439.914 42.2608 445.564 36.6945 452.657 37.2406 454.218 42.4966 447.52 43.415 455.134 37.1692 466.74C39.9226 466.005 42.5973 465.001 45.1548 463.743 47.9422 464.331 50.7765 464.67 53.624 464.756L44.7999 454.985 43.8794 447.353 50.5773 452.61 50.7365 450.963 43.6435 445.398 42.9621 439.748 51.1941 446.208 51.3532 444.562 42.7263 437.792 42.0448 432.142 51.8109 439.807 51.97 438.16 41.809 430.187 41.1275 424.537 52.4276 433.405 52.5868 431.759 40.8917 422.582 40.6761 420.794 48.8344 419.81C46.0337 412.292 40.4866 404.684 38.0667 404.976 35.6469 405.268 32.0678 413.976 31.135 421.945ZM50.2889 463.141C48.7262 462.978 47.1178 462.723 45.4336 462.379L44.9617 462.282 44.5305 462.498C43.0661 463.228 41.5565 463.863 40.011 464.399L44.2723 456.479ZM46.87 418.644 32.7658 420.345C33.956 412.987 36.9625 406.87 38.2342 406.364 39.5939 406.553 43.9665 411.779 46.87 418.644Z" fill="#7F7F7F" fill-opacity="0.47"/></g></g></g><g clip-path="url(#clip4)"><g clip-path="url(#clip5)"><g clip-path="url(#clip6)"><path d="M33.6833 216.388C33.3288 216.781 32.723 216.811 32.3303 216.457 31.9377 216.102 31.9068 215.497 32.2613 215.104 32.6159 214.711 33.2217 214.68 33.6143 215.035 34.007 215.389 34.0379 215.995 33.6833 216.388Z" fill="#000000" fill-opacity="0.47"/><path d="M32.9532 210.049 29.1654 214.244 28.246 213.414 27.7257 203.203 26.7372 202.639 27.2407 212.506 24.3356 209.883 23.8835 201.011 22.895 200.448 23.3302 208.975 20.4251 206.352 20.0413 198.82 19.0528 198.256 19.4197 205.444 16.5146 202.821 16.1991 196.628 15.2107 196.065 15.5093 201.913 11.5942 198.378 9.59245 189.536C8.49629 191.162 7.56214 192.89 6.80348 194.698 5.09175 195.651 3.46839 196.756 1.95263 197.997L10.9429 199.081 14.8673 202.624 9.01857 202.922 9.67961 203.848 15.8726 203.532 18.7777 206.155 11.5896 206.522 12.2506 207.448 19.7831 207.063 22.6882 209.686 14.1606 210.121 14.8216 211.047 23.6936 210.594 26.5987 213.217 16.7316 213.72 17.3926 214.646 27.604 214.125 28.5234 214.955 24.7355 219.15C29.5838 221.786 35.8973 223.227 37.0208 221.983 38.1443 220.739 36.068 214.604 32.9532 210.049ZM4.41216 197.329C5.29611 196.707 6.24592 196.114 7.27499 195.531L7.56342 195.368 7.68953 195.062C8.11974 194.022 8.6161 193.011 9.17553 192.034L10.5419 198.068ZM26.2811 218.868 32.8296 211.616C35.5354 215.971 36.7381 220.501 36.307 221.338 35.5163 221.854 30.8876 221.118 26.2811 218.868Z" fill="#000000" fill-opacity="0.47"/></g></g></g><g clip-path="url(#clip7)"><g clip-path="url(#clip8)"><g clip-path="url(#clip9)"><path d="M44.2734 323.86C43.4967 323.93 42.8103 323.358 42.7401 322.581 42.67 321.805 43.2426 321.118 44.0193 321.048 44.7959 320.978 45.4823 321.55 45.5525 322.327 45.6226 323.104 45.05 323.79 44.2734 323.86Z" fill="#AFABAB" fill-opacity="0.47"/><path d="M49.8253 316.27 41.5289 317.02 41.3646 315.202 51.0188 303.631 50.5129 302.032 41.1849 313.214 40.6658 307.468 49.0537 297.415 48.5478 295.816 40.4862 305.48 39.967 299.734 47.0886 291.198 46.5827 289.6 39.7874 297.746 39.2683 292 45.1235 284.982 44.6176 283.384 39.0886 290.012 38.389 282.269 45.0698 270.697C42.2575 271.359 39.5168 272.295 36.8873 273.492 34.0807 272.811 31.2191 272.382 28.3363 272.209L36.9812 282.377 37.6825 290.139 31.0551 284.609 30.8439 286.273 37.8621 292.127 38.3812 297.873 30.2359 291.077 30.0247 292.74 38.5609 299.861 39.08 305.607 29.4168 297.544 29.2056 299.208 39.2596 307.595 39.7788 313.341 28.5977 304.012 28.3865 305.675 39.9584 315.329 40.1227 317.147 31.8263 317.897C34.4361 325.6 39.826 333.477 42.2868 333.255 44.7476 333.032 48.6384 324.316 49.8253 316.27ZM31.6667 273.947C33.2453 274.159 34.8672 274.467 36.5634 274.866L37.0386 274.978 37.4821 274.773C38.988 274.078 40.5369 273.48 42.1192 272.983L37.5611 280.88ZM33.7813 319.138 48.1243 317.842C46.6952 325.262 43.4632 331.368 42.1593 331.843 40.7872 331.61 36.5152 326.182 33.7813 319.138Z" fill="#AFABAB" fill-opacity="0.47"/></g></g></g><g clip-path="url(#clip10)"><g clip-path="url(#clip11)"><g clip-path="url(#clip12)"><path d="M29.7235 114.56C29.0269 114.233 28.7268 113.404 29.0531 112.708 29.3794 112.011 30.2086 111.711 30.9052 112.037 31.6018 112.364 31.9019 113.193 31.5756 113.889 31.2492 114.586 30.42 114.886 29.7235 114.56Z" fill="#D0CECE" fill-opacity="0.47"/><path d="M38.2273 110.853 30.786 107.367 31.55 105.736 45.5284 100.677 45.8922 99.0637 32.3854 103.953 34.7997 98.7996 46.9446 94.4043 47.3084 92.7906 35.6352 97.0162 38.0495 91.8628 48.3608 88.1312 48.7246 86.5175 38.885 90.0794 41.2993 84.926 49.777 81.858 50.1408 80.2443 42.1348 83.1426 45.3884 76.1976 56.8334 69.6603C54.1082 68.826 51.3078 68.261 48.4723 67.9734 46.4195 65.9981 44.1949 64.2095 41.8247 62.629L44.1349 75.5904 40.8736 82.5518 37.9762 74.5454 36.9692 75.8578 40.0381 84.3351 37.6238 89.4885 34.0627 79.6486 33.0557 80.961 36.7883 91.2719 34.374 96.4253 30.1493 84.7518 29.1423 86.0642 33.5385 98.2087 31.1242 103.362 26.2359 89.855 25.2288 91.1674 30.2887 105.146 29.5247 106.776 22.0834 103.29C20.4772 111.151 21.1532 120.542 23.3604 121.576 25.5675 122.61 33.2157 117.119 38.2273 110.853ZM43.7983 65.7653C45.0379 66.7306 46.2668 67.7992 47.5133 68.983L47.8623 69.3149 48.3426 69.36C49.971 69.5168 51.5878 69.7777 53.1829 70.1411L45.3735 74.6026ZM23.1322 105.32 35.9968 111.346C31.09 116.958 25.3004 120.554 23.9536 120.31 22.9002 119.429 21.9593 112.68 23.1322 105.32Z" fill="#D0CECE" fill-opacity="0.47"/></g></g></g><g clip-path="url(#clip13)"><g clip-path="url(#clip14)"><g clip-path="url(#clip15)"><path d="M62.3907 408.514C61.8752 409.085 60.9945 409.13 60.4236 408.615 59.8527 408.099 59.8078 407.219 60.3233 406.648 60.8388 406.077 61.7195 406.032 62.2904 406.547 62.8613 407.063 62.9062 407.944 62.3907 408.514Z" fill="#F2F2F2" fill-opacity="0.47"/><path d="M61.3291 399.299 55.822 405.398 54.4854 404.191 53.7288 389.345 52.2917 388.525 53.0237 402.871 48.7999 399.057 48.1427 386.158 46.7055 385.339 47.3382 397.737 43.1144 393.924 42.5565 382.972 41.1193 382.153 41.6528 392.604 37.429 388.79 36.9703 379.786 35.5332 378.967 35.9673 387.47 30.2751 382.33 27.3648 369.475C25.7711 371.838 24.4129 374.351 23.3099 376.979 20.8212 378.366 18.461 379.971 16.2572 381.776L29.3282 383.352 35.0339 388.504 26.5304 388.937 27.4915 390.283 36.4956 389.824 40.7193 393.637 30.2684 394.17 31.2295 395.516 42.181 394.957 46.4048 398.771 34.0064 399.403 34.9675 400.749 47.8665 400.091 52.0903 403.905 37.7445 404.636 38.7055 405.982 53.552 405.225 54.8886 406.432 49.3815 412.531C56.4304 416.362 65.6096 418.458 67.2431 416.649 68.8766 414.84 65.8579 405.922 61.3291 399.299ZM19.8331 380.805C21.1183 379.901 22.4992 379.038 23.9954 378.191L24.4148 377.954 24.5981 377.508C25.2236 375.996 25.9453 374.526 26.7586 373.107L28.7453 381.879ZM51.6286 412.12 61.1494 401.576C65.0835 407.908 66.832 414.495 66.2053 415.712 65.0557 416.462 58.326 415.391 51.6286 412.12Z" fill="#F2F2F2" fill-opacity="0.47"/></g></g></g><g clip-path="url(#clip16)"><g clip-path="url(#clip17)"><g clip-path="url(#clip18)"><path d="M47.4675 157.667 41.943 163.048 40.847 161.922 41.0859 147.635 38.2328 145.729 38.057 159.058 35.4165 156.347 35.5292 143.977 32.7259 142.122 32.5767 153.431 29.9363 150.72 30.0735 140.32 27.2702 138.465 27.1476 147.754 24.5071 145.043 24.6177 136.663 21.8144 134.808 21.7172 142.179 16.7351 137.064 16.5857 136.91 14.6736 124.917C12.9264 127.217 11.3287 129.67 10.0312 132.33 7.38857 133.608 4.89541 135.039 2.49923 136.775L14.4373 139.003 14.5382 139.004 19.5203 144.119 12.1492 144.022 13.9295 146.873 22.3102 146.984 24.9507 149.695 15.6612 149.572 17.4414 152.424 27.8403 152.662 30.4808 155.373 19.2216 155.275 21.0019 158.126 33.3206 158.288 35.9611 161 22.6824 160.875 24.4627 163.726 38.8009 163.915 39.8969 165.041 34.3724 170.421C41.3335 174.805 50.5884 177.553 52.3787 175.809 54.169 174.066 51.6663 164.741 47.4675 157.667ZM45.9287 167.14C45.3806 166.577 45.3926 165.669 45.9553 165.121 46.518 164.573 47.4268 164.585 47.9748 165.147 48.5228 165.71 48.5108 166.619 47.9481 167.167 47.3855 167.715 46.4767 167.703 45.9287 167.14L45.9287 167.14Z" fill="#7F7F7F" fill-opacity="0.47"/></g></g></g><g clip-path="url(#clip19)"><g clip-path="url(#clip20)"><g clip-path="url(#clip21)"><path d="M43.3083 237.006C42.8061 236.84 42.534 236.298 42.7005 235.796 42.867 235.293 43.4091 235.021 43.9113 235.188 44.4135 235.354 44.6856 235.896 44.5191 236.399 44.3526 236.901 43.8105 237.173 43.3083 237.006Z" fill="#AFABAB" fill-opacity="0.47"/><path d="M48.8166 233.787 43.4519 232.008 43.8418 230.832 52.98 226.245 53.0979 225.114 44.2681 229.546 45.5001 225.831 53.4396 221.846 53.5575 220.714 45.9264 224.545 47.1584 220.83 53.8993 217.447 54.0172 216.315 47.5847 219.544 48.8167 215.829 54.3589 213.047 54.4768 211.916 49.243 214.543 50.9033 209.536 58.1915 204.145C56.2626 203.796 54.3041 203.636 52.3441 203.67 50.7822 202.486 49.1179 201.445 47.3711 200.557L49.9979 209.223 48.3338 214.242 45.7069 209.008 45.1253 209.986 47.9074 215.528 46.6755 219.243 43.4469 212.81 42.8653 213.788 46.2491 220.529 45.0172 224.244 41.1869 216.612 40.6053 217.59 44.5908 225.53 43.3588 229.245 38.9269 220.415 38.3453 221.393 42.9325 230.531 42.5427 231.706 37.178 229.927C36.717 235.426 37.9387 241.786 39.5299 242.314 41.1212 242.841 45.9007 238.471 48.8166 233.787ZM48.973 202.54C49.8978 203.099 50.8236 203.729 51.7708 204.437L52.036 204.635 52.3677 204.627C53.4927 204.602 54.6181 204.65 55.737 204.769L50.7641 208.448ZM38.0585 231.229 47.3331 234.304C44.4358 238.534 40.7723 241.458 39.8326 241.401 39.0419 240.885 37.8531 236.351 38.0585 231.229Z" fill="#AFABAB" fill-opacity="0.47"/></g></g></g><g clip-path="url(#clip22)"><g clip-path="url(#clip23)"><g clip-path="url(#clip24)"><path d="M72.6698 149.195C72.3152 149.587 71.7095 149.618 71.3168 149.264 70.9241 148.909 70.8932 148.303 71.2478 147.911 71.6024 147.518 72.2081 147.487 72.6008 147.842 72.9935 148.196 73.0244 148.802 72.6698 149.195Z" fill="#000000" fill-opacity="0.47"/><path d="M71.9396 142.856 68.1518 147.051 67.2325 146.221 66.7121 136.009 65.7237 135.446 66.2271 145.313 63.322 142.69 62.8699 133.818 61.8815 133.255 62.3167 141.782 59.4115 139.159 59.0278 131.626 58.0393 131.063 58.4062 138.251 55.5011 135.628 55.1856 129.435 54.1971 128.871 54.4957 134.72 50.5806 131.185 48.5789 122.343C47.4827 123.968 46.5486 125.697 45.7899 127.504 44.0782 128.458 42.4548 129.562 40.9391 130.804L49.9294 131.888 53.8537 135.431 48.005 135.729 48.6661 136.655 54.8591 136.339 57.7642 138.962 50.576 139.328 51.2371 140.254 58.7695 139.87 61.6747 142.493 53.147 142.928 53.8081 143.854 62.68 143.401 65.5851 146.024 55.7181 146.527 56.3791 147.453 66.5905 146.932 67.5098 147.762 63.722 151.957C68.5703 154.592 74.8838 156.034 76.0073 154.79 77.1308 153.545 75.0545 147.411 71.9396 142.856ZM43.3986 130.136C44.2826 129.514 45.2324 128.92 46.2614 128.338L46.5499 128.175 46.676 127.868C47.1062 126.829 47.6026 125.817 48.162 124.841L49.5284 130.874ZM65.2676 151.675 71.816 144.422C74.5219 148.777 75.7245 153.308 75.2934 154.145 74.5028 154.661 69.8741 153.925 65.2676 151.675Z" fill="#000000" fill-opacity="0.47"/></g></g></g><g clip-path="url(#clip25)"><g clip-path="url(#clip26)"><g clip-path="url(#clip27)"><path d="M14.9761 427.135C14.5493 426.823 14.4566 426.223 14.7692 425.797 15.0818 425.37 15.6813 425.277 16.1081 425.59 16.535 425.902 16.6276 426.502 16.315 426.929 16.0024 427.355 15.403 427.448 14.9761 427.135Z" fill="#000000" fill-opacity="0.47"/><path d="M21.2067 425.762 16.6468 422.422 17.3786 421.423 27.4835 419.862 27.9429 418.821 18.179 420.33 20.4916 417.172 29.271 415.816 29.7305 414.775 21.292 416.079 23.6046 412.921 31.0585 411.77 31.518 410.729 24.405 411.828 26.7176 408.671 32.846 407.724 33.3055 406.683 27.518 407.578 30.6346 403.322 39.2256 400.427C37.497 399.503 35.6819 398.75 33.8064 398.18 32.6828 396.575 31.4186 395.073 30.0285 393.692L29.8691 402.746 26.7451 407.012 25.8512 401.224 24.9975 401.976 25.9448 408.104 23.6321 411.262 22.5334 404.149 21.6797 404.902 22.8318 412.355 20.5191 415.513 19.2156 407.075 18.3619 407.827 19.7188 416.606 17.4061 419.764 15.8978 410 15.0441 410.752 16.6058 420.857 15.8739 421.856 11.314 418.517C9.18778 423.609 8.39885 430.037 9.75137 431.027 11.1039 432.018 16.9938 429.326 21.2067 425.762ZM30.9446 396.07C31.6533 396.886 32.341 397.77 33.0253 398.734L33.2168 399.005 33.535 399.099C34.6132 399.421 35.6698 399.811 36.6982 400.268L30.8361 402.243ZM11.7527 420.025 19.636 425.799C15.5804 428.935 11.1962 430.595 10.3196 430.251 9.72544 429.517 9.98526 424.838 11.7527 420.025Z" fill="#000000" fill-opacity="0.47"/></g></g></g><g clip-path="url(#clip28)"><g clip-path="url(#clip29)"><g clip-path="url(#clip30)"><path d="M35.6444 201.569C35.405 201.097 35.5933 200.52 36.0651 200.281 36.5369 200.041 37.1135 200.23 37.3529 200.702 37.5923 201.173 37.404 201.75 36.9322 201.989 36.4604 202.229 35.8838 202.04 35.6444 201.569Z" fill="#FFFFFF" fill-opacity="0.47"/><path d="M41.8231 203.16 39.2654 198.12 40.3699 197.559 50.0889 200.735 50.9693 200.014 41.5778 196.946 45.0683 195.175 53.5124 197.934 54.3928 197.213 46.2762 194.562 49.7667 192.79 56.9359 195.133 57.8163 194.412 50.9746 192.177 54.4651 190.406 60.3594 192.332 61.2398 191.612 55.673 189.793 60.3769 187.406 69.3485 188.708C68.2245 187.102 66.9457 185.61 65.5304 184.254 65.254 182.314 64.8053 180.402 64.1897 178.542L59.9545 186.546 55.2395 188.939 57.0585 183.372 55.9571 183.657 54.0316 189.552 50.5411 191.323 52.7767 184.482 51.6752 184.767 49.3332 191.936 45.8427 193.708 48.4948 185.591 47.3934 185.876 44.6348 194.32 41.1443 196.092 44.213 186.701 43.1115 186.986 39.9364 196.705 38.8319 197.265 36.2741 192.225C32.0756 195.806 28.4661 201.183 29.2247 202.678 29.9834 204.173 36.4541 204.434 41.8231 203.16ZM63.9317 181.078C64.195 182.126 64.4087 183.225 64.5832 184.395L64.6318 184.722 64.8731 184.95C65.6895 185.725 66.4554 186.551 67.1662 187.423L61.0441 186.535ZM35.9834 193.769 40.4053 202.483C35.3698 203.447 30.7091 202.945 30.0824 202.243 29.8841 201.32 32.2314 197.263 35.9834 193.769Z" fill="#FFFFFF" fill-opacity="0.47"/></g></g></g><g clip-path="url(#clip31)"><g clip-path="url(#clip32)"><g clip-path="url(#clip33)"><path d="M16.9487 343.591 24.6243 342.844 24.7763 344.408 15.6588 355.41 16.6943 358.681 25.1633 348.388 25.5296 352.154 17.7091 361.739 18.7376 364.939 25.9235 356.205 26.2897 359.972 19.6813 368.004 20.7099 371.204 26.6126 364.03 26.9788 367.797 21.6536 374.269 22.6822 377.469 27.3658 371.777 28.0569 378.884 28.0776 379.097 22.0734 389.653C24.8747 388.95 27.6553 388.034 30.3303 386.769 33.1919 387.424 36.0327 387.865 38.988 388.008L31.0626 378.806 30.9846 378.742 30.2935 371.635 35.9861 376.319 36.3789 372.981 29.9065 367.655 29.5403 363.889 36.7145 369.791 37.1073 366.453 29.1394 359.767 28.7732 356 37.5001 363.115 37.8929 359.776 28.3793 351.949 28.013 348.182 38.2995 356.58 38.6923 353.242 27.6191 344.131 27.467 342.568 35.1426 341.821C32.4497 334.048 26.9436 326.118 24.4562 326.36 21.9687 326.602 18.0936 335.444 16.9487 343.591ZM24.0714 337.159C24.1474 337.94 23.57 338.642 22.7882 338.718 22.0064 338.794 21.3046 338.217 21.2286 337.435 21.1526 336.653 21.73 335.951 22.5118 335.875 23.2936 335.799 23.9954 336.377 24.0714 337.159L24.0714 337.159Z" fill="#7F7F7F" fill-opacity="0.47"/></g></g></g><g clip-path="url(#clip34)"><g clip-path="url(#clip35)"><g clip-path="url(#clip36)"><path d="M58.7606 373.287 55.9431 376.031 55.3841 375.457 55.506 368.171 54.0509 367.199 53.9613 373.996 52.6146 372.614 52.6721 366.305 51.2424 365.359 51.1664 371.127 49.8197 369.744 49.8897 364.44 48.46 363.494 48.3975 368.232 47.0509 366.849 47.1073 362.575 45.6776 361.629 45.628 365.388 43.0872 362.779 43.011 362.701 42.0358 356.585C41.1447 357.758 40.3299 359.009 39.6682 360.365 38.3205 361.017 37.049 361.747 35.8269 362.632L41.9153 363.768 41.9668 363.769 44.5076 366.378 40.7484 366.328 41.6563 367.782 45.9305 367.838 47.2771 369.221 42.5395 369.159 43.4474 370.613 48.7508 370.734 50.0974 372.117 44.3553 372.067 45.2632 373.521 51.5457 373.604 52.8924 374.987 46.1203 374.923 47.0282 376.377 54.3406 376.474 54.8996 377.047 52.0821 379.792C55.6322 382.027 60.3522 383.429 61.2653 382.539 62.1784 381.65 60.902 376.895 58.7606 373.287ZM57.9758 378.118C57.6963 377.831 57.7024 377.368 57.9894 377.088 58.2763 376.809 58.7398 376.815 59.0193 377.102 59.2988 377.389 59.2927 377.852 59.0057 378.132 58.7187 378.411 58.2553 378.405 57.9758 378.118L57.9758 378.118Z" fill="#333F50" fill-opacity="0.47"/></g></g></g><g clip-path="url(#clip37)"><g clip-path="url(#clip38)"><g clip-path="url(#clip39)"><path d="M73.5397 440.697C73.776 441.429 73.3741 442.214 72.6421 442.45 71.91 442.687 71.1251 442.285 70.8888 441.553 70.6525 440.821 71.0544 440.036 71.7864 439.799 72.5184 439.563 73.3034 439.965 73.5397 440.697Z" fill="#AFABAB" fill-opacity="0.47"/><path d="M65.03 437.004 67.5542 444.824 65.8404 445.378 52.6082 438.603 51.1798 439.437 63.9662 445.983 58.5504 447.731 47.054 441.844 45.6256 442.679 56.6763 448.336 51.2605 450.084 41.4998 445.086 40.0714 445.92 49.3863 450.689 43.9705 452.437 35.9456 448.328 34.5172 449.162 42.0964 453.042 34.7978 455.398 22.2118 451.484C23.4598 454.046 24.9561 456.48 26.6793 458.75 26.6341 461.598 26.8429 464.445 27.303 467.257L35.2084 456.729 42.5242 454.367 38.6436 461.946 40.2902 461.788 44.3984 453.762 49.8141 452.014 45.0449 461.329 46.6915 461.17 51.6883 451.409 57.1041 449.661 51.4462 460.711 53.0928 460.553 58.9783 449.056 64.394 447.308 57.8475 460.094 59.4941 459.936 66.2682 446.703 67.982 446.15 70.5062 453.97C77.3511 449.785 83.7594 442.887 83.0107 440.567 82.262 438.248 73.0301 436.398 65.03 437.004ZM28.2513 463.674C28.112 462.109 28.0557 460.482 28.0717 458.763L28.0765 458.281 27.7819 457.899C26.7862 456.601 25.8746 455.241 25.0527 453.826L33.6413 456.496ZM71.2755 451.819 66.9116 438.3C74.362 438.062 80.9402 439.845 81.68 440.997 81.7543 442.367 77.4593 447.658 71.2755 451.819Z" fill="#AFABAB" fill-opacity="0.47"/></g></g></g><g clip-path="url(#clip40)"><g clip-path="url(#clip41)"><g clip-path="url(#clip42)"><path d="M68.0162 484.102C68.335 484.802 68.0259 485.628 67.3258 485.947 66.6258 486.265 65.7999 485.956 65.4811 485.256 65.1623 484.556 65.4714 483.73 66.1714 483.412 66.8715 483.093 67.6974 483.402 68.0162 484.102Z" fill="#BFBFBF" fill-opacity="0.47"/><path d="M59.1387 481.411 62.5443 488.889 60.9053 489.636 46.9827 484.425 45.6595 485.418 59.113 490.452 53.9339 492.81 41.8375 488.283 40.5143 489.276 52.1415 493.626 46.9624 495.985 36.6923 492.141 35.3691 493.134 45.1701 496.801 39.9909 499.16 31.5471 495.999 30.224 496.992 38.1986 499.976 31.2188 503.154 18.2667 500.712C19.8007 503.114 21.5666 505.359 23.539 507.417 23.8213 510.252 24.3556 513.056 25.1355 515.796L31.7796 504.429 38.7758 501.243 35.7912 509.218 37.4087 508.871 40.5681 500.427 45.7473 498.069 42.0793 507.869 43.6968 507.523 47.5396 497.253 52.7188 494.894 48.3673 506.521 49.9849 506.175 54.5111 494.078 59.6902 491.719 54.6554 505.173 56.2729 504.826 61.4826 490.903 63.1215 490.157 66.527 497.635C72.846 492.692 78.4198 485.103 77.4096 482.885 76.3995 480.667 67.0162 479.89 59.1387 481.411ZM25.6661 512.128C25.3481 510.59 25.1053 508.979 24.9237 507.27L24.8732 506.791 24.5367 506.445C23.3985 505.27 22.3366 504.023 21.3577 502.712L30.1961 504.378ZM67.0442 495.41 61.1566 482.481C68.5305 481.39 75.2699 482.406 76.137 483.465 76.3683 484.818 72.7092 490.566 67.0442 495.41Z" fill="#BFBFBF" fill-opacity="0.47"/></g></g></g><g clip-path="url(#clip43)"><g clip-path="url(#clip44)"><g clip-path="url(#clip45)"><path d="M45.0538 527.457C45.5693 526.886 46.45 526.842 47.0209 527.357 47.5918 527.873 47.6367 528.753 47.1212 529.324 46.6057 529.895 45.725 529.94 45.1541 529.424 44.5832 528.909 44.5383 528.028 45.0538 527.457Z" fill="#FFFFFF" fill-opacity="0.47"/><path d="M46.1154 536.673 51.6225 530.574 52.9591 531.781 53.7157 546.627 55.1528 547.446 54.4208 533.101 58.6446 536.915 59.3019 549.814 60.739 550.633 60.1063 538.234 64.3301 542.048 64.888 553 66.3252 553.819 65.7918 543.368 70.0155 547.182 70.4742 556.186 71.9113 557.005 71.4772 548.502 77.1694 553.642 80.0797 566.497C81.6734 564.134 83.0316 561.621 84.1346 558.993 86.6233 557.606 88.9836 556.001 91.1873 554.196L78.1163 552.62 72.4106 547.468 80.9141 547.035 79.953 545.689 70.949 546.148 66.7252 542.334 77.1761 541.802 76.215 540.456 65.2635 541.015 61.0397 537.201 73.4381 536.569 72.477 535.223 59.578 535.881 55.3542 532.067 69.7001 531.336 68.739 529.99 53.8925 530.747 52.5559 529.54 58.0631 523.441C51.0141 519.61 41.8349 517.514 40.2014 519.323 38.5679 521.132 41.5866 530.05 46.1154 536.673ZM87.6114 555.167C86.3262 556.071 84.9453 556.934 83.4491 557.781L83.0298 558.018 82.8464 558.464C82.2209 559.976 81.4993 561.446 80.6859 562.865L78.6992 554.093ZM55.8159 523.852 46.2951 534.396C42.361 528.064 40.6125 521.477 41.2393 520.26 42.3888 519.51 49.1185 520.58 55.8159 523.852Z" fill="#FFFFFF" fill-opacity="0.47"/></g></g></g><g clip-path="url(#clip46)"><g clip-path="url(#clip47)"><g clip-path="url(#clip48)"><path d="M37.4118 622.356C37.9273 621.785 38.808 621.74 39.3789 622.256 39.9498 622.771 39.9947 623.652 39.4792 624.223 38.9637 624.794 38.083 624.839 37.5121 624.323 36.9412 623.808 36.8963 622.927 37.4118 622.356Z" fill="#BFBFBF" fill-opacity="0.47"/><path d="M38.4734 631.572 43.9805 625.473 45.3171 626.68 46.0737 641.526 47.5108 642.345 46.7788 628 51.0026 631.813 51.6599 644.713 53.097 645.532 52.4643 633.133 56.6881 636.947 57.246 647.899 58.6832 648.718 58.1498 638.267 62.3736 642.081 62.8322 651.085 64.2693 651.904 63.8352 643.401 69.5274 648.541 72.4377 661.396C74.0315 659.033 75.3896 656.52 76.4926 653.892 78.9813 652.505 81.3416 650.9 83.5453 649.095L70.4743 647.519 64.7686 642.367 73.2721 641.934 72.311 640.588 63.307 641.047 59.0832 637.233 69.5341 636.701 68.573 635.355 57.6215 635.914 53.3977 632.1 65.7961 631.468 64.835 630.121 51.936 630.78 47.7122 626.966 62.0581 626.235 61.097 624.888 46.2505 625.646 44.9139 624.439 50.4211 618.34C43.3721 614.509 34.1929 612.413 32.5594 614.222 30.9259 616.031 33.9446 624.949 38.4734 631.572ZM79.9694 650.066C78.6842 650.97 77.3033 651.833 75.8071 652.68L75.3878 652.917 75.2044 653.363C74.5789 654.875 73.8573 656.345 73.0439 657.764L71.0573 648.992ZM48.1739 618.751 38.6531 629.294C34.719 622.963 32.9705 616.376 33.5973 615.159 34.7468 614.408 41.4765 615.479 48.1739 618.751Z" fill="#BFBFBF" fill-opacity="0.47"/></g></g></g><g clip-path="url(#clip49)"><g clip-path="url(#clip50)"><g clip-path="url(#clip51)"><path d="M50.2694 488.808C50.7849 488.237 51.6656 488.192 52.2366 488.707 52.8075 489.223 52.8524 490.104 52.3369 490.674 51.8214 491.245 50.9406 491.29 50.3697 490.775 49.7988 490.259 49.7539 489.379 50.2694 488.808Z" fill="#000000" fill-opacity="0.47"/><path d="M51.331 498.023 56.8382 491.924 58.1748 493.131 58.9313 507.977 60.3685 508.797 59.6364 494.451 63.8602 498.265 64.5175 511.164 65.9547 511.983 65.3219 499.585 69.5457 503.399 70.1037 514.35 71.5408 515.169 71.0074 504.718 75.2312 508.532 75.6898 517.536 77.127 518.356 76.6929 509.852 82.3851 514.992 85.2954 527.847C86.8891 525.484 88.2473 522.971 89.3503 520.343 91.839 518.957 94.1992 517.351 96.403 515.546L83.3319 513.97 77.6263 508.818 86.1297 508.385 85.1686 507.039 76.1646 507.499 71.9408 503.685 82.3917 503.152 81.4306 501.806 70.4791 502.365 66.2553 498.551 78.6537 497.919 77.6926 496.573 64.7936 497.231 60.5699 493.417 74.9157 492.686 73.9546 491.34 59.1082 492.097 57.7716 490.89 63.2787 484.791C56.2298 480.96 47.0505 478.864 45.417 480.673 43.7836 482.482 46.8023 491.4 51.331 498.023ZM92.827 516.518C91.5419 517.421 90.1609 518.285 88.6647 519.131L88.2454 519.368 88.062 519.814C87.4366 521.326 86.7149 522.796 85.9015 524.215L83.9149 515.444ZM61.0315 485.202 51.5107 495.746C47.5767 489.414 45.8281 482.827 46.4549 481.61 47.6044 480.86 54.3341 481.931 61.0315 485.202Z" fill="#000000" fill-opacity="0.47"/></g></g></g><g clip-path="url(#clip52)"><g clip-path="url(#clip53)"><g clip-path="url(#clip54)"><path d="M54.6329 575.562 48.8733 579.81 48.0078 578.637 50.0335 565.531 47.6511 563.418 45.8047 575.651 43.7196 572.824 45.3868 561.465 43.0438 559.405 41.4771 569.784 39.3921 566.958 40.8328 557.413 38.4898 555.353 37.2029 563.879 35.1178 561.052 36.2789 553.361 33.9359 551.301 32.9147 558.066 28.9806 552.733 28.8626 552.573 28.6204 541.305C26.7233 543.198 24.9442 545.252 23.4151 547.533 20.8238 548.374 18.3506 549.375 15.928 550.668L26.6227 554.225 26.7154 554.239 30.6495 559.572 23.8846 558.551 25.161 561.398 32.8526 562.559 34.9377 565.385 26.412 564.098 27.6884 566.945 37.2195 568.478 39.3046 571.305 28.9648 569.791 30.2412 572.638 41.5471 574.345 43.6322 577.171 31.439 575.378 32.7154 578.224 45.8746 580.211 46.7401 581.384 40.9805 585.633C46.8267 590.544 54.9887 594.24 56.8552 592.863 58.7217 591.486 57.5992 582.597 54.6329 575.562ZM52.0206 584.077C51.5879 583.49 51.7137 582.656 52.3004 582.223 52.887 581.791 53.721 581.917 54.1538 582.503 54.5865 583.09 54.4606 583.924 53.874 584.357 53.2874 584.789 52.4534 584.663 52.0206 584.077L52.0206 584.077Z" fill="#BFBFBF" fill-opacity="0.47"/></g></g></g><g clip-path="url(#clip55)"><g clip-path="url(#clip56)"><g clip-path="url(#clip57)"><path d="M50.1058 611.802 42.6325 604.575 44.1047 603.052 63.3662 602.798 65.8194 598.876 47.8521 599.177 51.3988 595.51 68.0718 595.163 70.4581 591.31 55.2131 591.566 58.7598 587.898 72.7797 587.663 75.166 583.811 62.6433 584.021 66.19 580.353 77.4876 580.164 79.8739 576.312 69.9374 576.478 76.6292 569.558 76.83 569.351 92.913 566.29C89.7436 564.029 86.3734 561.975 82.7378 560.334 80.9091 556.824 78.8795 553.523 76.4439 550.364L73.9237 566.54 73.9259 566.676 67.2341 573.596 67.0677 563.66 63.2975 566.174 63.4867 577.471 59.94 581.139 59.7303 568.616 55.9601 571.13 56.0588 585.152 52.5121 588.82 52.1899 573.644 48.4197 576.158 48.6978 592.764 45.1511 596.431 44.7833 578.533 41.0131 581.047 41.3368 600.376 39.8646 601.898 32.3913 594.671C26.7647 604.228 23.4354 616.81 25.8574 619.152 28.2793 621.494 40.7427 617.745 50.1058 611.802ZM37.279 610.111C38.0151 609.349 39.2402 609.329 40.0014 610.065 40.7625 610.801 40.783 612.026 40.0469 612.787 39.3108 613.548 38.0858 613.569 37.3246 612.833 36.5635 612.097 36.5429 610.872 37.279 610.111L37.279 610.111Z" fill="#000000" fill-opacity="0.47"/></g></g></g><g clip-path="url(#clip58)"><g clip-path="url(#clip59)"><g clip-path="url(#clip60)"><path d="M45.7669 779.444 38.0487 778.211 38.2998 776.639 50.0572 768.183 49.879 764.71 38.9389 772.637 39.5439 768.849 49.6665 761.451 49.4769 758.05 40.1945 764.776 40.7994 760.988 49.3359 754.803 49.1463 751.401 41.5215 756.926 42.1264 753.138 49.0053 748.154 48.8157 744.752 42.7656 749.136 43.907 741.99 43.9412 741.775 52.5313 732.96C49.6042 732.932 46.6429 733.119 43.696 733.674 41.0572 732.3 38.3842 731.14 35.5226 730.244L40.9397 741.296 40.9997 741.379 39.8583 748.525 35.4746 742.475 34.2349 745.648 39.2192 752.527 38.6142 756.315 33.0895 748.69 31.8498 751.863 37.9522 760.46 37.3473 764.247 30.6101 755.036 29.3705 758.21 36.6967 768.321 36.0918 772.109 28.1536 761.24 26.9139 764.413 35.4412 776.182 35.1901 777.754 27.4718 776.522C28.123 784.834 31.4929 794.02 33.9942 794.42 36.4955 794.819 42.559 787.14 45.7669 779.444ZM37.1356 783.928C37.2611 783.142 38.007 782.602 38.7931 782.727 39.5792 782.853 40.1197 783.599 39.9942 784.385 39.8686 785.171 39.1227 785.711 38.3366 785.586 37.5505 785.46 37.01 784.714 37.1356 783.928L37.1356 783.928Z" fill="#7F7F7F" fill-opacity="0.47"/></g></g></g><g clip-path="url(#clip61)"><g clip-path="url(#clip62)"><g clip-path="url(#clip63)"><path d="M50.4044 783.421C50.8381 783.724 50.944 784.321 50.641 784.755 50.3379 785.188 49.7407 785.294 49.307 784.991 48.8734 784.688 48.7674 784.091 49.0705 783.657 49.3735 783.223 49.9707 783.117 50.4044 783.421Z" fill="#000000" fill-opacity="0.47"/><path d="M44.2058 784.933 48.8388 788.17 48.1294 789.185 38.0617 790.97 37.6255 792.021 47.3535 790.296 45.1116 793.504 36.3645 795.055 35.9283 796.106 44.3358 794.614 42.0938 797.823 34.6674 799.14 34.2311 800.19 41.318 798.933 39.076 802.142 32.9702 803.224 32.5339 804.275 38.3002 803.252 35.2788 807.576 26.7543 810.661C28.503 811.547 30.3344 812.259 32.2221 812.787 33.381 814.367 34.6784 815.841 36.0988 817.19L36.0569 808.135 39.0854 803.801 40.1077 809.567 40.9444 808.796 39.8613 802.691 42.1032 799.482 43.3597 806.569 44.1964 805.798 42.8791 798.372 45.121 795.163 46.6117 803.571 47.4484 802.8 45.8969 794.053 48.1388 790.844 49.8637 800.572 50.7004 799.801 48.9146 789.734 49.6241 788.719 54.2571 791.956C56.2697 786.818 56.9156 780.374 55.5414 779.414 54.1672 778.454 48.3386 781.276 44.2058 784.933ZM35.13 814.833C34.4034 814.033 33.6962 813.164 32.9907 812.216L32.7932 811.95 32.473 811.863C31.3879 811.565 30.3229 811.198 29.2846 810.764L35.1014 808.659ZM53.785 790.457 45.7754 784.861C49.7602 781.635 54.1065 779.878 54.9905 780.202 55.6009 780.923 55.4451 785.607 53.785 790.457Z" fill="#000000" fill-opacity="0.47"/></g></g></g><g clip-path="url(#clip64)"><g clip-path="url(#clip65)"><g clip-path="url(#clip66)"><path d="M79.1385 579.637 86.6487 581.388 86.2919 582.918 74.1306 590.42 74.0638 593.851 85.3837 586.812 84.5241 590.498 74.0456 597.073 73.9949 600.434 83.5997 594.462 82.7402 598.147 73.9072 603.639 73.8566 607 81.7462 602.095 80.8867 605.78 73.7688 610.206 73.7182 613.567 79.9785 609.674 78.3567 616.628 78.308 616.837 69.2389 624.914C72.1178 625.145 75.0453 625.168 77.9844 624.827 80.4856 626.363 83.0354 627.691 85.7892 628.773L81.2287 617.518 81.1753 617.432 82.7971 610.479 86.6896 616.739 88.131 613.702 83.7053 606.584 84.5649 602.899 89.4704 610.788 90.9118 607.752 85.5055 598.866 86.3651 595.18 92.3532 604.715 93.7946 601.679 87.2895 591.216 88.149 587.531 95.2036 598.781 96.645 595.744 89.0734 583.567 89.4302 582.037 96.9404 583.789C96.8793 575.562 94.2034 566.286 91.7696 565.719 89.3357 565.151 82.8324 572.286 79.1385 579.637ZM87.9461 575.825C87.7677 576.59 86.9959 577.07 86.231 576.892 85.466 576.713 84.9861 575.941 85.1645 575.177 85.3429 574.412 86.1147 573.932 86.8797 574.11 87.6446 574.289 88.1245 575.06 87.9461 575.825L87.9461 575.825Z" fill="#7F7F7F" fill-opacity="0.47"/></g></g></g><g clip-path="url(#clip67)"><g clip-path="url(#clip68)"><g clip-path="url(#clip69)"><path d="M64.2979 681.676 59.1669 687.433 57.9941 686.388 57.2242 672.12 54.2438 670.42 55.009 683.728 52.1837 681.21 51.4232 668.863 48.496 667.21 49.1453 678.502 46.3201 675.984 45.7229 665.6 42.7958 663.947 43.3291 673.222 40.5039 670.704 40.0227 662.337 37.0955 660.684 37.5187 668.044 32.1881 663.293 32.0282 663.15 29.2745 651.323C27.6939 653.74 26.2733 656.3 25.1668 659.044 22.6209 660.505 20.235 662.109 17.9673 664.01L30.0328 665.389 30.1336 665.383 35.4642 670.134 28.1047 670.558 30.0817 673.276 38.4494 672.795 41.2746 675.313 31.9996 675.846 33.9766 678.565 44.3664 678.068 47.1916 680.586 35.9536 681.283 37.9306 684.002 50.2301 683.294 53.0553 685.812 39.801 686.625 41.778 689.344 56.0938 688.52 57.2665 689.566 52.1355 695.323C59.3886 699.204 68.8143 701.292 70.4771 699.427 72.14 697.561 68.9854 688.437 64.2979 681.676ZM63.4314 691.234C62.845 690.712 62.7928 689.804 63.3154 689.218 63.838 688.631 64.7454 688.579 65.3317 689.102 65.9181 689.624 65.9703 690.532 65.4477 691.118 64.9251 691.705 64.0178 691.757 63.4314 691.234L63.4314 691.234Z" fill="#7F7F7F" fill-opacity="0.47"/></g></g></g><g clip-path="url(#clip70)"><g clip-path="url(#clip71)"><g clip-path="url(#clip72)"><path d="M82.8227 702.224C83.5192 702.55 83.8194 703.38 83.493 704.076 83.1667 704.773 82.3375 705.073 81.6409 704.747 80.9444 704.42 80.6442 703.591 80.9706 702.894 81.2969 702.198 82.1261 701.898 82.8227 702.224Z" fill="#D0CECE" fill-opacity="0.47"/><path d="M74.3189 705.93 81.7602 709.417 80.9962 711.047 67.0177 716.106 66.6539 717.72 80.1607 712.831 77.7464 717.984 65.6015 722.379 65.2377 723.993 76.9109 719.768 74.4966 724.921 64.1853 728.653 63.8215 730.266 73.6611 726.704 71.2468 731.858 62.7691 734.926 62.4053 736.539 70.4113 733.641 67.1577 740.586 55.7127 747.123C58.4379 747.958 61.2384 748.523 64.0739 748.81 66.1266 750.786 68.3513 752.574 70.7214 754.155L68.4113 741.193 71.6726 734.232 74.57 742.238 75.577 740.926 72.5081 732.449 74.9224 727.295 78.4834 737.135 79.4904 735.823 75.7579 725.512 78.1721 720.358 82.3968 732.032 83.4039 730.72 79.0076 718.575 81.4219 713.422 86.3103 726.929 87.3173 725.616 82.2574 711.638 83.0214 710.007 90.4627 713.494C92.0689 705.633 91.3929 696.242 89.1858 695.208 86.9786 694.174 79.3304 699.665 74.3189 705.93ZM68.7478 751.018C67.5082 750.053 66.2793 748.984 65.0328 747.801L64.6839 747.469 64.2036 747.424C62.5751 747.267 60.9583 747.006 59.3632 746.643L67.1726 742.181ZM89.414 711.464 76.5494 705.437C81.4561 699.826 87.2458 696.23 88.5926 696.474 89.6459 697.354 90.5868 704.103 89.414 711.464Z" fill="#D0CECE" fill-opacity="0.47"/></g></g></g></g></svg>