<svg viewBox="0 0 96 96" xmlns="http://www.w3.org/2000/svg" xmlns:xlink="http://www.w3.org/1999/xlink" id="Icons_DeadFishSkeleton" overflow="hidden"><path d="M69 35.2 69 46 66.8 46 52.7 31.8 48 32.8 61.2 46 55.9 46 43.6 33.8 39 34.8 50.2 46 44.9 46 34.6 35.7 30 36.7 39.2 45.9 33.9 45.9 25.6 37.6 21 38.6 28.3 45.9 18.3 45.9 18 45.9 4.1 36.1C4.7 40.1 5.6 44.1 7 48 5.7 51.9 4.7 55.8 4.1 59.9L18 50.1 18.1 50 28.1 50 20.8 57.3 25.4 58.3 33.7 50 39 50 29.8 59.2 34.4 60.2 44.8 50 50.1 50 39 61.2 43.6 62.2 55.8 50 61.1 50 48 63.2 52.6 64.2 66.8 50 69 50 69 60.8C80.2 58.1 92 51.5 92 48 92 44.5 80.2 37.9 69 35.2ZM77 46C75.9 46 75 45.1 75 44 75 42.9 75.9 42 77 42 78.1 42 79 42.9 79 44 79 45.1 78.1 46 77 46L77 46Z" stroke="#ED7D31" fill="#ED7D31"/></svg>