<svg viewBox="0 0 96 96" xmlns="http://www.w3.org/2000/svg" xmlns:xlink="http://www.w3.org/1999/xlink" id="Icons_DeadFishSkeleton_M" overflow="hidden"><g id="Icons"><circle cx="77" cy="44" r="2" stroke="#ED7D31" fill="#ED7D31"/><path d="M69 35.2 69 47 66.414 47 51.32 31.905 49 32.415 63.586 47 55.414 47 42.3 33.885 39.98 34.395 52.586 47 44.414 47 33.28 35.865 30.96 36.375 41.586 47 33.414 47 24.26 37.845 21.94 38.355 30.586 47 19.573 47 4.1 36.1C4.67525 40.1519 5.64657 44.1377 7 48 5.68187 51.8727 4.71137 55.8551 4.1 59.9L19.547 49 30.586 49 21.94 57.645 24.26 58.155 33.414 49 41.586 49 30.96 59.625 33.28 60.135 44.414 49 52.586 49 39.98 61.605 42.3 62.115 55.414 49 63.586 49 49 63.585 51.32 64.095 66.414 49 69 49 69 60.8C80.2 58.1 92 51.5 92 48 92 44.5 80.2 37.9 69 35.2ZM6.976 55.423C7.476 53.223 8.117 50.974 8.897 48.632L9.116 47.976 8.882 47.324C8.09384 45.1109 7.44819 42.8496 6.949 40.554L17.508 47.991ZM71 58.2 71 37.8C81.286 40.762 89.489 46.1 89.992 48 89.489 49.906 81.286 55.241 71 58.2Z" stroke="#ED7D31" fill="#ED7D31"/></g></svg>