<svg width="91" height="699" xmlns="http://www.w3.org/2000/svg" xmlns:xlink="http://www.w3.org/1999/xlink" overflow="hidden"><defs><clipPath id="clip0"><rect x="825" y="21" width="91" height="699"/></clipPath></defs><g clip-path="url(#clip0)" transform="translate(-825 -21)"><path d="M858.823 347.505C859.645 347.406 860.392 347.993 860.491 348.814 860.591 349.637 860.004 350.384 859.182 350.483 858.36 350.582 857.613 349.995 857.513 349.174 857.414 348.351 858 347.604 858.823 347.505Z" stroke="#F8CBAD" stroke-width="0.917795" stroke-miterlimit="8" stroke-opacity="0.3" fill="#F8CBAD" fill-rule="evenodd" fill-opacity="0.3"/><path d="M854.261 354.16 861.967 353.253 862.17 354.902 853.502 365.693 854.018 367.134 862.393 356.706 863.037 361.92 855.505 371.295 856.021 372.736 863.26 363.724 863.903 368.937 857.509 376.897 858.025 378.338 864.126 370.741 864.77 375.955 859.512 382.5 860.028 383.94 864.992 377.76 865.86 384.785 859.961 395.495C862.561 394.817 865.087 393.89 867.503 392.73 870.136 393.272 872.813 393.585 875.502 393.664L867.168 384.648 866.298 377.606 872.625 382.457 872.775 380.937 866.076 375.802 865.432 370.588 873.207 376.549 873.357 375.03 865.209 368.783 864.566 363.57 873.79 370.643 873.94 369.123 864.343 361.766 863.699 356.552 874.372 364.735 874.522 363.216 863.476 354.748 863.273 353.098 870.978 352.19C868.333 345.253 863.094 338.233 860.808 338.502 858.523 338.772 855.142 346.807 854.261 354.16ZM872.352 392.174C870.876 392.024 869.357 391.788 867.766 391.471L867.321 391.381 866.913 391.581C865.53 392.254 864.104 392.84 862.645 393.335L866.669 386.027ZM869.123 351.115 855.802 352.684C856.926 345.895 859.765 340.25 860.966 339.783 862.251 339.958 866.381 344.78 869.123 351.115Z" stroke="#F4B183" stroke-width="0.917795" stroke-miterlimit="8" stroke-opacity="0.3" fill="#F4B183" fill-rule="evenodd" fill-opacity="0.3"/><path d="M856.372 165.165C856.187 165.575 855.871 165.606 855.666 165.237 855.461 164.866 855.445 164.235 855.63 163.824 855.815 163.414 856.131 163.382 856.336 163.752 856.541 164.122 856.557 164.754 856.372 165.165Z" stroke="#F8CBAD" stroke-width="0.917795" stroke-miterlimit="8" stroke-opacity="0.3" fill="#F8CBAD" fill-rule="evenodd" fill-opacity="0.3"/><path d="M855.544 159.2 852.117 163.025 851.286 162.268 850.815 152.957 849.921 152.443 850.376 161.44 847.748 159.049 847.339 150.959 846.445 150.445 846.839 158.221 844.211 155.829 843.864 148.961 842.97 148.446 843.302 155.001 840.674 152.609 840.389 146.962 839.495 146.449 839.765 151.781 836.223 148.558 834.413 140.495C833.421 141.978 832.576 143.553 831.89 145.202 830.341 146.071 828.873 147.079 827.502 148.21L835.634 149.199 839.184 152.429 833.893 152.701 834.491 153.545 840.093 153.257 842.721 155.649 836.219 155.984 836.817 156.828 843.63 156.477 846.258 158.869 838.545 159.266 839.143 160.11 847.168 159.697 849.795 162.089 840.87 162.547 841.468 163.392 850.705 162.917 851.536 163.674 848.11 167.499C852.496 169.902 858.207 171.216 859.223 170.082 860.239 168.948 858.361 163.353 855.544 159.2ZM829.727 147.601C830.526 147.034 831.386 146.493 832.316 145.962L832.577 145.813 832.691 145.534C833.081 144.586 833.529 143.664 834.036 142.773L835.271 148.275ZM849.508 167.242 855.432 160.629C857.879 164.6 858.967 168.731 858.577 169.494 857.862 169.964 853.675 169.293 849.508 167.242Z" stroke="#F8CBAD" stroke-width="0.917795" stroke-miterlimit="8" stroke-opacity="0.3" fill="#F8CBAD" fill-rule="evenodd" fill-opacity="0.3"/><path d="M866.137 264.488C865.312 264.563 864.583 263.955 864.509 263.129 864.434 262.305 865.042 261.575 865.868 261.5 866.693 261.426 867.422 262.034 867.496 262.859 867.571 263.685 866.962 264.414 866.137 264.488Z" stroke="#F8CBAD" stroke-width="0.917795" stroke-miterlimit="8" stroke-opacity="0.3" fill="#F8CBAD" fill-rule="evenodd" fill-opacity="0.3"/><path d="M871.397 257.016 863.716 257.699 863.564 256.043 872.502 245.501 872.034 244.044 863.398 254.232 862.917 248.997 870.683 239.837 870.214 238.381 862.751 247.185 862.27 241.95 868.863 234.173 868.395 232.717 862.104 240.139 861.623 234.904 867.044 228.51 866.576 227.054 861.457 233.093 860.809 226.038 866.994 215.495C864.391 216.098 861.853 216.951 859.419 218.041 856.82 217.421 854.171 217.03 851.502 216.873L859.506 226.137 860.155 233.208 854.019 228.17 853.824 229.686 860.321 235.02 860.802 240.255 853.261 234.063 853.065 235.578 860.968 242.066 861.449 247.301 852.502 239.955 852.307 241.471 861.615 249.112 862.096 254.347 851.744 245.848 851.549 247.363 862.262 256.159 862.414 257.815 854.733 258.498C857.149 265.516 862.14 272.693 864.418 272.491 866.696 272.288 870.298 264.347 871.397 257.016ZM854.585 218.456C856.047 218.649 857.549 218.93 859.119 219.293L859.559 219.395 859.969 219.209C861.364 218.575 862.798 218.031 864.263 217.578L860.043 224.773ZM856.543 259.629 869.822 258.448C868.499 265.208 865.507 270.772 864.3 271.204 863.029 270.992 859.074 266.047 856.543 259.629Z" stroke="#C55A11" stroke-width="0.917795" stroke-miterlimit="8" stroke-opacity="0.3" fill="#C55A11" fill-rule="evenodd" fill-opacity="0.3"/><path d="M853.078 71.3523C852.577 71.0003 852.362 70.1077 852.596 69.3582 852.831 68.6078 853.426 68.2849 853.926 68.6358 854.426 68.9879 854.641 69.8804 854.407 70.6299 854.173 71.3803 853.577 71.7033 853.078 71.3523Z" stroke="#F8CBAD" stroke-width="0.917795" stroke-miterlimit="8" stroke-opacity="0.3" fill="#F8CBAD" fill-rule="evenodd" fill-opacity="0.3"/><path d="M860.793 67.5777 854.111 64.3911 854.797 62.9002 867.35 58.2755 867.677 56.8008 855.547 61.2702 857.715 56.5594 868.622 52.5415 868.948 51.0665 858.466 54.9292 860.634 50.2182 869.893 46.8071 870.22 45.332 861.384 48.588 863.552 43.8772 871.165 41.0727 871.492 39.5976 864.302 42.2469 867.224 35.8984 877.502 29.9224C875.055 29.1598 872.54 28.6433 869.994 28.3804 868.15 26.5747 866.152 24.9397 864.024 23.495L866.099 35.3433 863.17 41.7069 860.568 34.3881 859.663 35.5878 862.419 43.337 860.251 48.0479 857.053 39.053 856.149 40.2527 859.501 49.6782 857.333 54.389 853.539 43.7179 852.635 44.9177 856.583 56.0192 854.415 60.7301 850.025 48.3829 849.12 49.5826 853.664 62.3608 852.978 63.8508 846.296 60.6642C844.853 67.8501 845.46 76.4347 847.442 77.3799 849.424 78.3251 856.293 73.3056 860.793 67.5777ZM865.796 26.3619C866.909 27.2443 868.013 28.2212 869.132 29.3033L869.446 29.6067 869.877 29.6479C871.339 29.7912 872.791 30.0297 874.224 30.3619L867.211 34.4403ZM847.237 62.5199 858.79 68.0283C854.384 73.1585 849.185 76.4456 847.975 76.2226 847.029 75.4173 846.184 69.2478 847.237 62.5199Z" stroke="#F4B183" stroke-width="0.917795" stroke-miterlimit="8" stroke-opacity="0.3" fill="#F4B183" fill-rule="evenodd" fill-opacity="0.3"/><path d="M883.116 342.166C882.561 342.576 881.612 342.608 880.997 342.239 880.382 341.868 880.334 341.236 880.889 340.826 881.444 340.416 882.393 340.384 883.008 340.754 883.623 341.124 883.671 341.757 883.116 342.166Z" stroke="#F8CBAD" stroke-width="0.917795" stroke-miterlimit="8" stroke-opacity="0.3" fill="#F8CBAD" fill-rule="evenodd" fill-opacity="0.3"/><path d="M881.688 333.929 876.655 339.54 875.434 338.429 874.743 324.773 873.43 324.019 874.098 337.215 870.239 333.707 869.638 321.841 868.325 321.088 868.903 332.493 865.044 328.985 864.534 318.911 863.22 318.157 863.708 327.771 859.848 324.262 859.429 315.98 858.116 315.226 858.513 323.048 853.311 318.32 850.652 306.495C849.196 308.669 847.955 310.98 846.947 313.398 844.673 314.674 842.516 316.15 840.502 317.81L852.446 319.26 857.66 323.999 849.889 324.398 850.768 325.636 858.995 325.214 862.855 328.721 853.305 329.211 854.183 330.449 864.191 329.935 868.05 333.444 856.721 334.025 857.599 335.263 869.386 334.658 873.246 338.166 860.137 338.839 861.015 340.077 874.581 339.381 875.803 340.491 870.77 346.101C877.211 349.625 885.599 351.553 887.092 349.889 888.585 348.225 885.826 340.022 881.688 333.929ZM843.77 316.917C844.944 316.086 846.206 315.292 847.573 314.513L847.956 314.295 848.124 313.884C848.695 312.493 849.355 311.141 850.098 309.836L851.913 317.905ZM872.824 345.723 881.524 336.024C885.118 341.849 886.716 347.908 886.144 349.027 885.093 349.717 878.944 348.732 872.824 345.723Z" stroke="#F8CBAD" stroke-width="0.917795" stroke-miterlimit="8" stroke-opacity="0.3" fill="#F8CBAD" fill-rule="evenodd" fill-opacity="0.3"/><path d="M869.382 111.065 864.237 116.088 863.216 115.037 863.439 101.701 860.782 99.9215 860.618 112.363 858.159 109.833 858.264 98.2862 855.653 96.5546 855.514 107.111 853.055 104.58 853.183 94.8726 850.572 93.1411 850.458 101.812 847.999 99.2811 848.102 91.459 845.491 89.7274 845.4 96.6079 840.76 91.8333 840.621 91.6895 838.84 80.4948C837.213 82.6417 835.725 84.9314 834.517 87.4144 832.056 88.6073 829.734 89.9431 827.502 91.5636L838.62 93.6432 838.714 93.6442 843.354 98.4187 836.489 98.3281 838.147 100.989 845.953 101.093 848.412 103.624 839.76 103.509 841.418 106.171 851.103 106.393 853.562 108.924 843.076 108.832 844.734 111.493 856.207 111.645 858.666 114.176 846.299 114.059 847.957 116.721 861.311 116.897 862.332 117.948 857.187 122.97C863.67 127.062 872.289 129.627 873.956 127.999 875.624 126.372 873.293 117.668 869.382 111.065ZM867.949 119.907C867.439 119.382 867.45 118.534 867.974 118.023 868.498 117.511 869.344 117.522 869.855 118.047 870.365 118.572 870.354 119.421 869.83 119.932 869.306 120.444 868.46 120.433 867.949 119.907L867.949 119.907Z" stroke="#ED7D31" stroke-width="0.917795" stroke-miterlimit="8" stroke-opacity="0.3" fill="#ED7D31" fill-rule="evenodd" fill-opacity="0.3"/><path d="M865.188 184.443C864.664 184.27 864.38 183.704 864.553 183.18 864.727 182.655 865.293 182.371 865.817 182.546 866.341 182.719 866.625 183.285 866.451 183.809 866.278 184.333 865.712 184.617 865.188 184.443Z" stroke="#F8CBAD" stroke-width="0.917795" stroke-miterlimit="8" stroke-opacity="0.3" fill="#F8CBAD" fill-rule="evenodd" fill-opacity="0.3"/><path d="M870.621 181.499 865.539 179.839 865.908 178.742 874.565 174.462 874.677 173.407 866.312 177.542 867.479 174.076 875.001 170.358 875.112 169.302 867.883 172.876 869.05 169.41 875.436 166.253 875.548 165.197 869.454 168.21 870.621 164.744 875.871 162.148 875.983 161.093 871.025 163.544 872.598 158.872 879.502 153.842C877.675 153.517 875.819 153.368 873.963 153.399 872.483 152.295 870.906 151.323 869.252 150.495L871.74 158.58 870.164 163.263 867.675 158.38 867.124 159.292 869.76 164.463 868.593 167.929 865.534 161.927 864.983 162.839 868.189 169.129 867.022 172.595 863.393 165.474 862.842 166.387 866.618 173.795 865.451 177.261 861.252 169.023 860.701 169.935 865.047 178.461 864.678 179.557 859.595 177.897C859.159 183.028 860.316 188.962 861.823 189.454 863.331 189.946 867.859 185.869 870.621 181.499ZM870.769 152.345C871.645 152.867 872.522 153.454 873.42 154.115L873.671 154.3 873.985 154.292C875.051 154.269 876.117 154.314 877.177 154.425L872.466 157.857ZM860.43 179.112 869.216 181.981C866.471 185.928 863 188.656 862.11 188.603 861.361 188.121 860.235 183.891 860.43 179.112Z" stroke="#ED7D31" stroke-width="0.917795" stroke-miterlimit="8" stroke-opacity="0.3" fill="#ED7D31" fill-rule="evenodd" fill-opacity="0.3"/><path d="M892.372 103.165C892.187 103.574 891.871 103.606 891.666 103.237 891.461 102.866 891.445 102.234 891.63 101.824 891.815 101.414 892.131 101.382 892.336 101.752 892.541 102.122 892.557 102.755 892.372 103.165Z" stroke="#F8CBAD" stroke-width="0.917795" stroke-miterlimit="8" stroke-opacity="0.3" fill="#F8CBAD" fill-rule="evenodd" fill-opacity="0.3"/><path d="M891.543 97.2001 888.117 101.025 887.286 100.268 886.815 90.9565 885.921 90.4431 886.376 99.4405 883.748 97.0487 883.339 88.9586 882.445 88.4453 882.839 96.2207 880.211 93.8289 879.864 86.9599 878.97 86.4465 879.302 93.0009 876.674 90.6091 876.389 84.9619 875.494 84.4477 875.765 89.7811 872.223 86.5577 870.413 78.495C869.421 79.9767 868.576 81.5534 867.89 83.2011 866.341 84.071 864.873 85.0777 863.502 86.2102L871.634 87.1987 875.184 90.4294 869.893 90.7012 870.491 91.5455 876.093 91.2575 878.721 93.6492 872.219 93.983 872.817 94.8273 879.63 94.4772 882.258 96.869 874.545 97.2657 875.143 98.1101 883.168 97.697 885.795 100.089 876.87 100.548 877.468 101.392 886.705 100.917 887.536 101.674 884.11 105.499C888.496 107.902 894.207 109.217 895.223 108.082 896.239 106.947 894.361 101.354 891.543 97.2001ZM865.727 85.6012C866.526 85.034 867.386 84.4923 868.316 83.9616L868.577 83.813 868.691 83.533C869.081 82.5856 869.529 81.6628 870.036 80.7728L871.271 86.2741ZM885.508 105.242 891.432 98.6281C893.879 102.599 894.967 106.731 894.577 107.494 893.862 107.965 889.675 107.293 885.508 105.242Z" stroke="#C55A11" stroke-width="0.917795" stroke-miterlimit="8" stroke-opacity="0.3" fill="#C55A11" fill-rule="evenodd" fill-opacity="0.3"/><path d="M839.706 359.301C839.483 358.975 839.435 358.349 839.598 357.904 839.761 357.458 840.074 357.361 840.297 357.688 840.519 358.013 840.568 358.64 840.405 359.086 840.241 359.53 839.929 359.628 839.706 359.301Z" stroke="#F8CBAD" stroke-width="0.917795" stroke-miterlimit="8" stroke-opacity="0.3" fill="#F8CBAD" fill-rule="evenodd" fill-opacity="0.3"/><path d="M844.764 358.393 840.528 355.279 841.208 354.348 850.595 352.893 851.021 351.922 841.952 353.329 844.1 350.385 852.255 349.121 852.682 348.15 844.843 349.366 846.992 346.422 853.916 345.349 854.342 344.378 847.735 345.403 849.883 342.459 855.576 341.577 856.003 340.606 850.627 341.441 853.522 337.473 861.502 334.774C859.896 333.912 858.21 333.21 856.468 332.679 855.424 331.183 854.25 329.782 852.959 328.495L852.811 336.936 849.909 340.913 849.078 335.517 848.285 336.218 849.165 341.931 847.017 344.875 845.996 338.244 845.203 338.946 846.274 345.894 844.125 348.838 842.915 340.972 842.122 341.673 843.382 349.857 841.234 352.801 839.833 343.698 839.04 344.4 840.49 353.82 839.81 354.752 835.575 351.639C833.6 356.386 832.867 362.378 834.123 363.302 835.379 364.225 840.851 361.716 844.764 358.393ZM853.81 330.712C854.468 331.473 855.107 332.297 855.743 333.195L855.92 333.448 856.216 333.536C857.218 333.836 858.199 334.199 859.154 334.625L853.709 336.467ZM835.982 353.044 843.305 358.427C839.538 361.351 835.465 362.899 834.651 362.578 834.099 361.894 834.34 357.532 835.982 353.044Z" stroke="#ED7D31" stroke-width="0.917795" stroke-miterlimit="8" stroke-opacity="0.3" fill="#ED7D31" fill-rule="evenodd" fill-opacity="0.3"/><path d="M858.611 151.224C858.361 150.977 858.557 150.676 859.05 150.552 859.542 150.426 860.144 150.525 860.394 150.771 860.644 151.017 860.447 151.318 859.955 151.443 859.462 151.568 858.861 151.469 858.611 151.224Z" stroke="#F8CBAD" stroke-width="0.917795" stroke-miterlimit="8" stroke-opacity="0.3" fill="#F8CBAD" fill-rule="evenodd" fill-opacity="0.3"/><path d="M864.184 152.757 861.831 148.199 862.847 147.692 871.787 150.564 872.596 149.912 863.958 147.138 867.169 145.536 874.936 148.031 875.746 147.379 868.28 144.982 871.49 143.38 878.085 145.498 878.895 144.846 872.601 142.825 875.812 141.224 881.234 142.965 882.044 142.314 876.923 140.669 881.25 138.511 889.502 139.688C888.468 138.236 887.292 136.887 885.99 135.66 885.736 133.906 885.323 132.177 884.757 130.495L880.861 137.733 876.524 139.897 878.198 134.863 877.184 135.121 875.413 140.451 872.203 142.053 874.259 135.867 873.246 136.124 871.092 142.607 867.881 144.21 870.32 136.869 869.307 137.127 866.77 144.763 863.559 146.366 866.382 137.873 865.369 138.131 862.448 146.92 861.432 147.426 859.08 142.869C855.218 146.107 851.898 150.969 852.595 152.321 853.293 153.673 859.245 153.909 864.184 152.757ZM884.52 132.788C884.762 133.736 884.958 134.73 885.119 135.788L885.164 136.084 885.386 136.29C886.137 136.991 886.841 137.738 887.495 138.526L881.864 137.723ZM858.812 144.265 862.88 152.145C858.248 153.017 853.961 152.563 853.384 151.928 853.202 151.093 855.361 147.425 858.812 144.265Z" stroke="#F8CBAD" stroke-width="0.917795" stroke-miterlimit="8" stroke-opacity="0.3" fill="#F8CBAD" fill-rule="evenodd" fill-opacity="0.3"/><path d="M841.663 282.289 848.572 281.604 848.709 283.037 840.502 293.118 841.434 296.116 849.058 286.684 849.387 290.135 842.348 298.918 843.273 301.85 849.742 293.847 850.072 297.298 844.123 304.658 845.049 307.59 850.362 301.017 850.692 304.468 845.898 310.399 846.824 313.331 851.04 308.115 851.662 314.627 851.681 314.823 846.276 324.495C848.798 323.851 851.301 323.012 853.709 321.852 856.285 322.453 858.842 322.857 861.502 322.988L854.368 314.556 854.298 314.497 853.676 307.985 858.8 312.277 859.153 309.219 853.327 304.338 852.998 300.888 859.456 306.296 859.809 303.237 852.637 297.111 852.307 293.659 860.163 300.178 860.516 297.119 851.953 289.947 851.623 286.495 860.882 294.19 861.236 291.132 851.268 282.783 851.131 281.351 858.041 280.667C855.617 273.544 850.66 266.278 848.421 266.5 846.182 266.722 842.694 274.824 841.663 282.289ZM848.075 276.395C848.143 277.111 847.623 277.754 846.92 277.824 846.216 277.893 845.584 277.364 845.516 276.648 845.447 275.931 845.967 275.288 846.671 275.218 847.375 275.149 848.006 275.678 848.075 276.395L848.075 276.395Z" stroke="#ED7D31" stroke-width="0.917795" stroke-miterlimit="8" stroke-opacity="0.3" fill="#ED7D31" fill-rule="evenodd" fill-opacity="0.3"/><path d="M879.888 309.78 877.26 312.291 876.739 311.766 876.853 305.098 875.496 304.208 875.412 310.429 874.157 309.164 874.21 303.39 872.877 302.525 872.806 307.803 871.55 306.538 871.616 301.684 870.282 300.818 870.224 305.154 868.968 303.888 869.021 299.977 867.688 299.111 867.642 302.551 865.272 300.163 865.201 300.092 864.292 294.495C863.461 295.568 862.701 296.713 862.084 297.954 860.827 298.551 859.642 299.219 858.502 300.029L864.18 301.069 864.228 301.069 866.597 303.457 863.091 303.411 863.938 304.742 867.924 304.793 869.179 306.059 864.762 306.002 865.608 307.333 870.554 307.444 871.809 308.709 866.455 308.663 867.301 309.994 873.16 310.07 874.416 311.336 868.101 311.277 868.947 312.608 875.766 312.696 876.287 313.221 873.66 315.733C876.971 317.778 881.372 319.061 882.223 318.247 883.075 317.433 881.885 313.082 879.888 309.78ZM879.156 314.201C878.895 313.938 878.901 313.515 879.169 313.258 879.436 313.003 879.868 313.009 880.129 313.271 880.39 313.534 880.384 313.958 880.116 314.214 879.849 314.469 879.417 314.464 879.156 314.201L879.156 314.201Z" stroke="#F8CBAD" stroke-width="0.917795" stroke-miterlimit="8" stroke-opacity="0.3" fill="#F8CBAD" fill-rule="evenodd" fill-opacity="0.3"/><path d="M893.43 371.534C893.684 372.322 893.251 373.167 892.463 373.421 891.675 373.676 890.83 373.243 890.575 372.455 890.321 371.667 890.754 370.822 891.542 370.567 892.33 370.313 893.175 370.746 893.43 371.534Z" stroke="#F8CBAD" stroke-width="0.917795" stroke-miterlimit="8" stroke-opacity="0.3" fill="#F8CBAD" fill-rule="evenodd" fill-opacity="0.3"/><path d="M885.902 368.602 888.225 375.812 886.648 376.323 874.472 370.076 873.157 370.845 884.923 376.881 879.94 378.492 869.361 373.064 868.047 373.834 878.215 379.05 873.232 380.662 864.25 376.054 862.936 376.822 871.507 381.219 866.524 382.831 859.139 379.043 857.825 379.812 864.799 383.389 858.083 385.561 846.502 381.952C847.65 384.315 849.027 386.559 850.613 388.652 850.571 391.277 850.763 393.902 851.187 396.495L858.461 386.788 865.193 384.611 861.622 391.598 863.137 391.453 866.917 384.053 871.901 382.441 867.512 391.029 869.027 390.883 873.625 381.883 878.609 380.272 873.403 390.46 874.918 390.314 880.333 379.714 885.317 378.102 879.293 389.891 880.808 389.745 887.041 377.544 888.618 377.035 890.941 384.245C897.239 380.386 903.136 374.026 902.447 371.887 901.758 369.749 893.263 368.043 885.902 368.602ZM852.059 393.191C851.931 391.749 851.879 390.249 851.894 388.664L851.898 388.219 851.627 387.867C850.711 386.67 849.872 385.416 849.116 384.112L857.019 386.573ZM891.649 382.261 887.633 369.797C894.489 369.578 900.542 371.221 901.223 372.284 901.291 373.547 897.339 378.425 891.649 382.261Z" stroke="#C55A11" stroke-width="0.917795" stroke-miterlimit="8" stroke-opacity="0.3" fill="#C55A11" fill-rule="evenodd" fill-opacity="0.3"/><path d="M888.367 412.082C888.71 412.584 888.378 413.177 887.624 413.406 886.87 413.635 885.981 413.413 885.638 412.91 885.294 412.408 885.627 411.815 886.381 411.586 887.135 411.357 888.024 411.579 888.367 412.082Z" stroke="#F8CBAD" stroke-width="0.917795" stroke-miterlimit="8" stroke-opacity="0.3" fill="#F8CBAD" fill-rule="evenodd" fill-opacity="0.3"/><path d="M880.435 409.235 883.595 416.251 882.074 416.952 869.153 412.063 867.925 412.995 880.411 417.717 875.604 419.93 864.378 415.683 863.15 416.614 873.941 420.695 869.134 422.909 859.603 419.302 858.375 420.234 867.471 423.674 862.664 425.887 854.827 422.922 853.599 423.853 861.001 426.653 854.523 429.634 842.502 427.343C843.926 429.597 845.565 431.703 847.395 433.634 847.657 436.294 848.153 438.924 848.877 441.495L855.043 430.831 861.536 427.842 858.766 435.323 860.267 434.998 863.2 427.076 868.006 424.864 864.602 434.058 866.103 433.733 869.67 424.098 874.477 421.885 870.438 432.793 871.939 432.469 876.14 421.119 880.947 418.906 876.274 431.529 877.775 431.203 882.61 418.141 884.131 417.441 887.292 424.456C893.156 419.819 898.329 412.699 897.392 410.618 896.454 408.537 887.746 407.808 880.435 409.235ZM849.369 438.054C849.074 436.611 848.849 435.099 848.68 433.496L848.633 433.047 848.321 432.722C847.265 431.62 846.279 430.45 845.371 429.22L853.574 430.783ZM887.772 422.369 882.307 410.239C889.151 409.216 895.406 410.169 896.211 411.162 896.425 412.432 893.029 417.824 887.772 422.369Z" stroke="#F8CBAD" stroke-width="0.917795" stroke-miterlimit="8" stroke-opacity="0.3" fill="#F8CBAD" fill-rule="evenodd" fill-opacity="0.3"/><path d="M866.889 451.988C867.444 451.373 868.393 451.326 869.008 451.881 869.623 452.437 869.671 453.384 869.116 453.999 868.561 454.614 867.612 454.663 866.997 454.107 866.382 453.552 866.334 452.603 866.889 451.988Z" stroke="#F8CBAD" stroke-width="0.917795" stroke-miterlimit="8" stroke-opacity="0.3" fill="#F8CBAD" fill-rule="evenodd" fill-opacity="0.3"/><path d="M868.316 460.06 873.349 454.45 874.57 455.561 875.261 469.217 876.575 469.97 875.906 456.775 879.765 460.283 880.366 472.149 881.679 472.902 881.101 461.496 884.961 465.005 885.47 475.079 886.784 475.833 886.296 466.219 890.156 469.728 890.575 478.01 891.888 478.764 891.491 470.942 896.693 475.67 899.352 487.495C900.808 485.321 902.05 483.01 903.057 480.592 905.332 479.316 907.488 477.84 909.502 476.18L897.558 474.73 892.344 469.991 900.115 469.592 899.236 468.354 891.009 468.776 887.149 465.268 896.699 464.779 895.821 463.54 885.813 464.055 881.954 460.546 893.283 459.965 892.405 458.727 880.618 459.332 876.759 455.824 889.867 455.151 888.989 453.913 875.423 454.609 874.201 453.499 879.234 447.889C872.793 444.365 864.405 442.437 862.912 444.101 861.42 445.765 864.178 453.968 868.316 460.06ZM906.234 477.073C905.06 477.904 903.798 478.698 902.431 479.477L902.048 479.695 901.88 480.106C901.309 481.496 900.649 482.849 899.906 484.154L898.091 476.085ZM877.18 448.267 868.481 457.966C864.886 452.141 863.288 446.082 863.861 444.963 864.911 444.273 871.06 445.257 877.18 448.267Z" stroke="#F8CBAD" stroke-width="0.917795" stroke-miterlimit="8" stroke-opacity="0.3" fill="#F8CBAD" fill-rule="evenodd" fill-opacity="0.3"/><path d="M859.889 538.989C860.444 538.374 861.393 538.325 862.008 538.881 862.623 539.436 862.671 540.384 862.116 540.999 861.561 541.614 860.612 541.663 859.997 541.107 859.382 540.552 859.334 539.604 859.889 538.989Z" stroke="#F8CBAD" stroke-width="0.917795" stroke-miterlimit="8" stroke-opacity="0.3" fill="#F8CBAD" fill-rule="evenodd" fill-opacity="0.3"/><path d="M861.316 548.061 866.349 542.45 867.57 543.56 868.261 557.217 869.575 557.97 868.906 544.775 872.765 548.282 873.366 560.149 874.679 560.902 874.101 549.497 877.961 553.005 878.47 563.079 879.784 563.833 879.296 554.219 883.156 557.727 883.575 566.01 884.888 566.764 884.491 558.942 889.693 563.67 892.352 575.495C893.809 573.321 895.05 571.01 896.057 568.592 898.332 567.316 900.488 565.84 902.502 564.18L890.558 562.73 885.344 557.991 893.115 557.592 892.236 556.354 884.009 556.776 880.149 553.268 889.699 552.779 888.821 551.54 878.813 552.055 874.954 548.546 886.283 547.965 885.405 546.726 873.618 547.332 869.759 543.824 882.867 543.151 881.989 541.912 868.423 542.609 867.201 541.499 872.234 535.889C865.793 532.365 857.405 530.437 855.912 532.101 854.42 533.765 857.178 541.968 861.316 548.061ZM899.234 565.073C898.06 565.904 896.798 566.698 895.431 567.477L895.048 567.695 894.88 568.106C894.309 569.496 893.649 570.849 892.906 572.154L891.091 564.085ZM870.18 536.267 861.481 545.965C857.886 540.141 856.288 534.082 856.861 532.963 857.911 532.272 864.06 533.257 870.18 536.267Z" stroke="#F8CBAD" stroke-width="0.917795" stroke-miterlimit="8" stroke-opacity="0.3" fill="#F8CBAD" fill-rule="evenodd" fill-opacity="0.3"/><path d="M871.889 415.989C872.444 415.374 873.393 415.326 874.008 415.88 874.623 416.436 874.671 417.385 874.116 417.999 873.561 418.614 872.612 418.663 871.997 418.108 871.382 417.552 871.334 416.604 871.889 415.989Z" stroke="#F8CBAD" stroke-width="0.917795" stroke-miterlimit="8" stroke-opacity="0.3" fill="#F8CBAD" fill-rule="evenodd" fill-opacity="0.3"/><path d="M873.316 425.06 878.349 419.45 879.57 420.561 880.261 434.217 881.575 434.971 880.906 421.775 884.765 425.283 885.366 437.149 886.679 437.902 886.101 426.497 889.961 430.006 890.47 440.079 891.784 440.833 891.296 431.219 895.156 434.728 895.575 443.01 896.888 443.764 896.492 435.942 901.693 440.67 904.352 452.495C905.809 450.321 907.05 448.01 908.058 445.592 910.332 444.317 912.488 442.84 914.502 441.18L902.558 439.73 897.344 434.991 905.115 434.592 904.236 433.354 896.009 433.777 892.149 430.269 901.699 429.779 900.821 428.54 890.813 429.055 886.954 425.546 898.283 424.965 897.405 423.727 885.618 424.332 881.759 420.824 894.867 420.151 893.989 418.913 880.423 419.609 879.202 418.499 884.234 412.889C877.793 409.365 869.405 407.437 867.912 409.101 866.42 410.765 869.178 418.968 873.316 425.06ZM911.234 442.074C910.06 442.904 908.798 443.699 907.431 444.477L907.048 444.695 906.88 445.106C906.309 446.496 905.649 447.849 904.906 449.154L903.091 441.086ZM882.18 413.267 873.48 422.966C869.886 417.141 868.288 411.082 868.861 409.963 869.911 409.273 876.06 410.258 882.18 413.267Z" stroke="#C55A11" stroke-width="0.917795" stroke-miterlimit="8" stroke-opacity="0.3" fill="#C55A11" fill-rule="evenodd" fill-opacity="0.3"/><path d="M875.655 496.209 870.424 500.142 869.638 499.056 871.478 486.923 869.314 484.967 867.637 496.291 865.743 493.674 867.257 483.158 865.129 481.251 863.706 490.86 861.813 488.244 863.121 479.407 860.993 477.5 859.824 485.393 857.931 482.776 858.985 475.656 856.857 473.749 855.93 480.012 852.357 475.075 852.25 474.926 852.03 464.495C850.307 466.247 848.691 468.149 847.302 470.261 844.948 471.039 842.702 471.966 840.502 473.163L850.215 476.456 850.299 476.469 853.872 481.406 847.728 480.461 848.888 483.096 855.873 484.171 857.767 486.787 850.024 485.596 851.183 488.232 859.84 489.651 861.733 492.268 852.342 490.866 853.502 493.502 863.77 495.082 865.664 497.699 854.59 496.039 855.749 498.673 867.7 500.513 868.486 501.599 863.255 505.532C868.565 510.079 875.978 513.501 877.673 512.226 879.368 510.951 878.349 502.722 875.655 496.209ZM873.282 504.092C872.889 503.549 873.004 502.776 873.536 502.376 874.069 501.976 874.827 502.092 875.22 502.635 875.613 503.178 875.498 503.95 874.966 504.351 874.433 504.751 873.675 504.634 873.282 504.092L873.282 504.092Z" stroke="#F8CBAD" stroke-width="0.917795" stroke-miterlimit="8" stroke-opacity="0.3" fill="#F8CBAD" fill-rule="evenodd" fill-opacity="0.3"/><path d="M871.759 529.96 864.82 523.2 866.187 521.776 884.07 521.538 886.347 517.87 869.666 518.151 872.959 514.721 888.439 514.397 890.654 510.793 876.5 511.032 879.793 507.602 892.81 507.382 895.025 503.779 883.399 503.975 886.692 500.545 897.181 500.368 899.396 496.765 890.171 496.92 896.384 490.448 896.57 490.254 911.502 487.391C908.56 485.276 905.431 483.355 902.055 481.82 900.357 478.537 898.473 475.45 896.212 472.495L893.872 487.625 893.874 487.752 887.661 494.224 887.507 484.931 884.006 487.282 884.182 497.849 880.889 501.28 880.694 489.567 877.194 491.918 877.285 505.033 873.993 508.464 873.693 494.269 870.193 496.621 870.451 512.153 867.158 515.583 866.817 498.842 863.317 501.194 863.617 519.273 862.25 520.696 855.312 513.937C850.088 522.876 846.997 534.644 849.245 536.835 851.494 539.025 863.066 535.518 871.759 529.96ZM859.85 528.378C860.533 527.665 861.671 527.647 862.377 528.335 863.084 529.023 863.103 530.169 862.419 530.881 861.736 531.593 860.599 531.613 859.892 530.924 859.185 530.236 859.166 529.09 859.85 528.378L859.85 528.378Z" stroke="#ED7D31" stroke-width="0.917795" stroke-miterlimit="8" stroke-opacity="0.3" fill="#ED7D31" fill-rule="evenodd" fill-opacity="0.3"/><path d="M868.165 683.716 860.934 682.583 861.169 681.138 872.184 673.366 872.017 670.174 861.768 677.46 862.335 673.978 871.818 667.178 871.641 664.052 862.944 670.234 863.511 666.753 871.509 661.068 871.331 657.941 864.187 663.019 864.754 659.538 871.199 654.957 871.021 651.83 865.353 655.859 866.422 649.291 866.454 649.093 874.502 640.991C871.76 640.966 868.985 641.138 866.225 641.648 863.752 640.385 861.248 639.318 858.567 638.495L863.642 648.653 863.699 648.729 862.629 655.298 858.522 649.737 857.361 652.653 862.03 658.976 861.464 662.458 856.288 655.449 855.126 658.366 860.844 666.267 860.277 669.748 853.965 661.282 852.804 664.199 859.667 673.493 859.101 676.975 851.664 666.984 850.502 669.901 858.491 680.718 858.256 682.163 851.025 681.031C851.635 688.67 854.792 697.114 857.135 697.481 859.479 697.848 865.159 690.79 868.165 683.716ZM860.078 687.838C860.196 687.115 860.895 686.619 861.631 686.734 862.368 686.85 862.874 687.535 862.757 688.258 862.639 688.98 861.94 689.477 861.204 689.362 860.467 689.246 859.961 688.56 860.078 687.838L860.078 687.838Z" stroke="#ED7D31" stroke-width="0.917795" stroke-miterlimit="8" stroke-opacity="0.3" fill="#ED7D31" fill-rule="evenodd" fill-opacity="0.3"/><path d="M872.075 687.675C872.528 687.992 872.638 688.615 872.322 689.068 872.006 689.52 871.382 689.63 870.93 689.314 870.477 688.998 870.366 688.375 870.683 687.922 870.999 687.469 871.622 687.358 872.075 687.675Z" stroke="#F8CBAD" stroke-width="0.917795" stroke-miterlimit="8" stroke-opacity="0.3" fill="#F8CBAD" fill-rule="evenodd" fill-opacity="0.3"/><path d="M866.466 688.757 870.704 691.742 870.055 692.677 860.846 694.323 860.447 695.292 869.345 693.702 867.294 696.659 859.293 698.089 858.894 699.058 866.585 697.682 864.534 700.641 857.74 701.855 857.341 702.823 863.824 701.664 861.773 704.622 856.188 705.62 855.789 706.589 861.064 705.646 858.3 709.632 850.502 712.476C852.102 713.293 853.777 713.949 855.504 714.436 856.564 715.892 857.751 717.251 859.05 718.495L859.012 710.147 861.782 706.152 862.717 711.467 863.482 710.757 862.492 705.128 864.542 702.17 865.692 708.703 866.457 707.993 865.252 701.147 867.303 698.188 868.667 705.94 869.432 705.229 868.013 697.165 870.063 694.207 871.641 703.175 872.407 702.464 870.773 693.183 871.422 692.248 875.66 695.232C877.501 690.495 878.092 684.554 876.835 683.669 875.578 682.784 870.246 685.386 866.466 688.757ZM858.164 716.322C857.499 715.585 856.852 714.783 856.207 713.909L856.026 713.664 855.733 713.584C854.741 713.309 853.766 712.971 852.817 712.571L858.138 710.63ZM875.228 693.85 867.902 688.691C871.547 685.717 875.522 684.097 876.331 684.396 876.889 685.061 876.747 689.379 875.228 693.85Z" stroke="#F8CBAD" stroke-width="0.917795" stroke-miterlimit="8" stroke-opacity="0.3" fill="#F8CBAD" fill-rule="evenodd" fill-opacity="0.3"/><path d="M898.436 500.32 905.214 501.93 904.892 503.337 893.917 510.234 893.856 513.388 904.072 506.917 903.297 510.306 893.84 516.351 893.794 519.441 902.462 513.95 901.687 517.338 893.715 522.387 893.669 525.477 900.79 520.968 900.014 524.356 893.59 528.425 893.544 531.515 899.194 527.936 897.731 534.329 897.687 534.521 889.502 541.947C892.1 542.159 894.742 542.181 897.395 541.867 899.652 543.279 901.953 544.5 904.438 545.495L900.323 535.147 900.274 535.068 901.738 528.676 905.251 534.431 906.552 531.639 902.558 525.095 903.333 521.707 907.761 528.96 909.061 526.169 904.182 517.999 904.958 514.61 910.362 523.376 911.663 520.585 905.792 510.966 906.568 507.578 912.935 517.921 914.235 515.129 907.402 503.933 907.724 502.527 914.502 504.137C914.447 496.574 912.032 488.045 909.835 487.524 907.639 487.002 901.77 493.562 898.436 500.32ZM906.385 496.816C906.224 497.519 905.527 497.96 904.837 497.796 904.147 497.632 903.714 496.922 903.875 496.22 904.036 495.516 904.732 495.075 905.422 495.239 906.113 495.403 906.546 496.112 906.385 496.816L906.385 496.816Z" stroke="#ED7D31" stroke-width="0.917795" stroke-miterlimit="8" stroke-opacity="0.3" fill="#ED7D31" fill-rule="evenodd" fill-opacity="0.3"/><path d="M884.494 594.487 879.844 599.796 878.781 598.833 878.083 585.674 875.382 584.107 876.075 596.379 873.515 594.057 872.825 582.671 870.172 581.146 870.761 591.56 868.2 589.238 867.659 579.661 865.006 578.137 865.489 586.691 862.928 584.368 862.492 576.652 859.839 575.128 860.223 581.915 855.391 577.534 855.246 577.402 852.75 566.495C851.318 568.724 850.03 571.085 849.027 573.615 846.72 574.963 844.557 576.442 842.502 578.195L853.438 579.467 853.529 579.461 858.361 583.843 851.69 584.234 853.482 586.74 861.066 586.297 863.627 588.619 855.22 589.11 857.012 591.618 866.429 591.16 868.99 593.482 858.804 594.125 860.596 596.632 871.744 595.979 874.305 598.301 862.291 599.051 864.083 601.559 877.059 600.799 878.121 601.763 873.471 607.072C880.045 610.652 888.588 612.577 890.095 610.857 891.602 609.136 888.743 600.722 884.494 594.487ZM883.709 603.302C883.178 602.82 883.13 601.983 883.604 601.442 884.078 600.901 884.9 600.853 885.431 601.335 885.963 601.817 886.01 602.654 885.537 603.195 885.063 603.736 884.241 603.784 883.709 603.302L883.709 603.302Z" stroke="#ED7D31" stroke-width="0.917795" stroke-miterlimit="8" stroke-opacity="0.3" fill="#ED7D31" fill-rule="evenodd" fill-opacity="0.3"/><path d="M901.926 612.636C902.426 612.987 902.641 613.88 902.407 614.63 902.173 615.38 901.578 615.703 901.077 615.352 900.577 615 900.362 614.108 900.596 613.357 900.831 612.608 901.426 612.285 901.926 612.636Z" stroke="#F8CBAD" stroke-width="0.917795" stroke-miterlimit="8" stroke-opacity="0.3" fill="#F8CBAD" fill-rule="evenodd" fill-opacity="0.3"/><path d="M893.733 616.411 900.624 619.599 899.917 621.089 886.972 625.713 886.635 627.189 899.143 622.72 896.907 627.43 885.66 631.448 885.323 632.923 896.133 629.061 893.898 633.771 884.348 637.183 884.012 638.657 893.124 635.401 890.888 640.113 883.037 642.917 882.7 644.392 890.114 641.743 887.101 648.091 876.502 654.067C879.026 654.83 881.619 655.347 884.245 655.609 886.146 657.415 888.207 659.05 890.401 660.495L888.262 648.646 891.282 642.283 893.966 649.601 894.898 648.402 892.056 640.653 894.292 635.942 897.59 644.937 898.522 643.737 895.066 634.312 897.302 629.6 901.214 640.272 902.147 639.072 898.075 627.97 900.311 623.26 904.838 635.607 905.771 634.407 901.085 621.629 901.792 620.138 908.684 623.326C910.171 616.14 909.545 607.555 907.501 606.61 905.457 605.665 898.374 610.684 893.733 616.411ZM888.574 657.627C887.426 656.745 886.288 655.768 885.133 654.687L884.81 654.383 884.365 654.342C882.857 654.199 881.36 653.96 879.883 653.628L887.115 649.549ZM907.713 621.47 895.799 615.961C900.343 610.831 905.705 607.544 906.952 607.767 907.927 608.572 908.799 614.741 907.713 621.47Z" stroke="#C55A11" stroke-width="0.917795" stroke-miterlimit="8" stroke-opacity="0.3" fill="#C55A11" fill-rule="evenodd" fill-opacity="0.3"/></g></svg>