<svg width="404" height="125" xmlns="http://www.w3.org/2000/svg" xmlns:xlink="http://www.w3.org/1999/xlink" overflow="hidden"><defs><clipPath id="clip0"><rect x="438" y="297" width="404" height="125"/></clipPath></defs><g clip-path="url(#clip0)" transform="translate(-438 -297)"><path d="M476.954 347.969 536.954 347.969" stroke="#ED7D31" stroke-width="2" stroke-miterlimit="8" fill="none" fill-rule="evenodd"/><path d="M476.954 327.969 526.954 327.969" stroke="#ED7D31" stroke-width="2" stroke-miterlimit="8" fill="none" fill-rule="evenodd"/><path d="M596.954 337.969 666.954 337.969" stroke="#ED7D31" stroke-width="2" stroke-miterlimit="8" fill="none" fill-rule="evenodd"/><path d="M736.954 337.969 796.954 337.969" stroke="#ED7D31" stroke-width="2" stroke-miterlimit="8" fill="none" fill-rule="evenodd"/><path d="M736.954 387.969 796.954 387.969" stroke="#ED7D31" stroke-width="2" stroke-miterlimit="8" fill="none" fill-rule="evenodd"/><path d="M736.954 377.969 736.954 387.969" stroke="#ED7D31" stroke-width="2" stroke-miterlimit="8" fill="none" fill-rule="evenodd"/><path d="M736.954 357.969 736.954 367.969" stroke="#ED7D31" stroke-width="2" stroke-miterlimit="8" fill="none" fill-rule="evenodd"/><path d="M736.954 367.969 736.954 377.969" stroke="#ED7D31" stroke-width="2" stroke-miterlimit="8" fill="none" fill-rule="evenodd"/><path d="M736.954 347.969 736.954 357.969" stroke="#ED7D31" stroke-width="2" stroke-miterlimit="8" fill="none" fill-rule="evenodd"/><path d="M736.954 337.969 736.954 347.969" stroke="#ED7D31" stroke-width="2" stroke-miterlimit="8" fill="none" fill-rule="evenodd"/><path d="M666.954 337.969 673.954 337.969" stroke="#ED7D31" stroke-width="2" stroke-miterlimit="8" fill="none" fill-rule="evenodd"/><path d="M675.954 337.969 675.954 355.969 703.954 337.969 675.954 319.969 675.954 337.969M703.954 337.969C703.954 336.312 705.297 334.969 706.954 334.969 708.611 334.969 709.954 336.312 709.954 337.969 709.954 339.626 708.611 340.969 706.954 340.969 705.297 340.969 703.954 339.626 703.954 337.969" stroke="#ED7D31" stroke-width="2" stroke-miterlimit="8" fill="none" fill-rule="evenodd"/><path d="M711.954 337.969 736.954 337.969" stroke="#ED7D31" stroke-width="2" stroke-miterlimit="8" fill="none" fill-rule="evenodd"/><path d="M526.954 327.969 541.954 327.969" stroke="#ED7D31" stroke-width="2" stroke-miterlimit="8" fill="none" fill-rule="evenodd"/><path d="M526.954 347.969 541.954 347.969" stroke="#ED7D31" stroke-width="2" stroke-miterlimit="8" fill="none" fill-rule="evenodd"/><path d="M535.954 317.969C549.287 331.302 549.287 344.636 535.954 357.969M534.954 357.969C558.287 354.636 574.954 347.969 584.954 337.969 574.954 327.969 558.287 321.302 534.954 317.969" stroke="#ED7D31" stroke-width="2" stroke-miterlimit="8" fill="none" fill-rule="evenodd"/><path d="M586.954 337.969 596.954 337.969" stroke="#ED7D31" stroke-width="2" stroke-miterlimit="8" fill="none" fill-rule="evenodd"/><path d="M738.954 337.969C738.954 339.074 738.059 339.969 736.954 339.969 735.849 339.969 734.954 339.074 734.954 337.969 734.954 336.864 735.849 335.969 736.954 335.969 738.059 335.969 738.954 336.864 738.954 337.969Z" stroke="#ED7D31" stroke-width="2" stroke-miterlimit="8" fill-rule="evenodd"/><text fill="#ED7D31" font-family="Calibri,Calibri_MSFontService,sans-serif" font-weight="400" font-size="24" transform="translate(453.504 326)">B<tspan x="0" y="35">B</tspan><tspan x="360" y="15">B</tspan><tspan x="360" y="73">B</tspan></text></g></svg>