<svg width="711" height="332" xmlns="http://www.w3.org/2000/svg" xmlns:xlink="http://www.w3.org/1999/xlink" overflow="hidden"><defs><clipPath id="clip0"><rect x="341" y="166" width="711" height="332"/></clipPath></defs><g clip-path="url(#clip0)" transform="translate(-341 -166)"><path d="M508.476 220.989C508.476 192.546 531.31 169.489 559.476 169.489 587.643 169.489 610.476 192.546 610.476 220.989 610.476 249.432 587.643 272.489 559.476 272.489 531.31 272.489 508.476 249.432 508.476 220.989Z" stroke="#ED7D31" stroke-width="1.33333" stroke-miterlimit="8" fill="#ED7D31" fill-rule="evenodd"/><path d="M465.976 287.174C525.023 273.157 584.072 259.141 651.642 287.174 719.212 315.206 804.842 427.641 871.396 455.37 937.953 483.099 1015.57 456.989 1050.98 453.548" stroke="#ED7D31" stroke-width="8" stroke-miterlimit="8" fill="none" fill-rule="evenodd"/><path d="M359.148 188.474 359.643 476.49 351.804 476.504 351.309 188.488ZM343.476 192.501 355.194 168.489 366.995 192.459ZM367.476 472.477 355.758 496.489 343.957 472.519Z" stroke="#ED7D31" stroke-miterlimit="8" fill="#ED7D31" fill-rule="evenodd"/></g></svg>