<svg viewBox="0 0 96 96" xmlns="http://www.w3.org/2000/svg" xmlns:xlink="http://www.w3.org/1999/xlink" id="Icons_SunglassesFace_Outline" overflow="hidden"><path d="M47.83 35.36C45.83 34.94 37.1 33 33.28 33 28.74 33 22.92 34.82 21.52 35.3 21.3089 35.3714 21.1651 35.5672 21.16 35.79L21.16 38.27C21.1236 38.7107 21.3069 39.141 21.65 39.42L22.37 40.03C22.43 42.45 22.74 46.09 23.83 47.85 25.22 50.27 29.53 53 33.89 53 41.59 53 45.22 47.18 46.56 41.85 46.6995 41.262 47.2257 40.8476 47.83 40.85 48.4282 40.865 48.9451 41.272 49.1 41.85 50.5 47.18 54.13 53 61.77 53 66.14 53 70.44 50.27 71.83 47.85 72.83 46.03 73.17 42.45 73.29 40.03L74.01 39.48C74.3424 39.193 74.5233 38.7685 74.5 38.33L74.5 35.85C74.44 35.54 74.32 35.36 74.14 35.3 70.3493 33.978 66.3894 33.2035 62.38 33 58.56 33 49.83 34.94 47.83 35.36Z" stroke="#000000" stroke-width="0.739884" fill="#FFFFFF"/><path d="M67.46 61.41C66.5842 60.7406 65.3319 60.9061 64.66 61.78 57.5993 70.9811 44.4165 72.7162 35.2155 65.6555 33.7599 64.5385 32.457 63.2356 31.34 61.78 30.6662 60.9046 29.4104 60.7412 28.535 61.415 27.6596 62.0888 27.4962 63.3446 28.17 64.22 36.578 75.1718 52.2722 77.234 63.224 68.826 64.9537 67.4981 66.5021 65.9496 67.83 64.22 68.5042 63.3451 68.3415 62.0892 67.4665 61.415 67.4644 61.4133 67.4622 61.4117 67.46 61.41Z" stroke="#000000" stroke-width="0.739884" fill="#FFFFFF"/><path d="M48 14C66.7777 14 82 29.2223 82 48 82 66.7777 66.7777 82 48 82 29.2223 82 14 66.7777 14 48 14 29.2223 29.2223 14 48 14M48 10C27.0132 10 10 27.0132 10 48 10 68.9868 27.0132 86 48 86 68.9868 86 86 68.9868 86 48 86 27.0132 68.9868 10 48 10Z" stroke="#000000" stroke-width="0.739884" fill="#FFFFFF"/></svg>