<svg width="722" height="378" xmlns="http://www.w3.org/2000/svg" xmlns:xlink="http://www.w3.org/1999/xlink" overflow="hidden"><defs><clipPath id="clip0"><rect x="233" y="105" width="722" height="378"/></clipPath></defs><g clip-path="url(#clip0)" transform="translate(-233 -105)"><path d="M411.5 181C411.5 152.557 434.334 129.5 462.5 129.5 490.667 129.5 513.5 152.557 513.5 181 513.5 209.443 490.667 232.5 462.5 232.5 434.334 232.5 411.5 209.443 411.5 181Z" stroke="#000000" stroke-width="1.33333" stroke-miterlimit="8" fill-rule="evenodd"/><path d="M369 248.185C428.048 234.168 487.096 220.152 554.666 248.185 622.236 276.217 707.866 388.652 774.421 416.381 840.977 444.11 918.592 418 954 414.559" stroke="#000000" stroke-width="8" stroke-miterlimit="8" fill="none" fill-rule="evenodd"/><path d="M262.035 148.993 262.54 437.119 254.54 437.133 254.035 149.007ZM246.042 153.021 258 129 270.042 152.979ZM270.533 433.105 258.575 457.126 246.533 433.147Z"/></g></svg>