<svg viewBox="0 0 96 96" xmlns="http://www.w3.org/2000/svg" xmlns:xlink="http://www.w3.org/1999/xlink" id="Icons_CherryBlossom" overflow="hidden"><path d="M60.8 44C62.3 43 63.2 41.5 63.4 39.7L61.6 38.1 60.9 35.8C58.4 35 55.7 36 54.3 38.1 54.6 35.5 53.2 32.9 50.7 31.9L48.7 33.2 46.3 33.3C44.8 35.5 45.1 38.5 46.9 40.5 44.5 39.5 41.7 40.3 40.1 42.3L40.8 44.6 40.1 47C41.7 48.9 44.4 49.5 46.7 48.6 45.1 50.6 45 53.5 46.5 55.6L48.9 55.6 51 56.9C53 56 54.3 54.1 54.5 52 54.7 52.3 55 52.6 55.3 52.8 56.6 53.9 58.4 54.4 60.1 54.1L61.1 51.9 63.1 50.5C63.1 47.9 61.4 45.6 59 44.9 59.6 44.6 60.2 44.4 60.8 44ZM55.4 44 53.8 44.5 55.3 45.3C55.6 45.5 55.7 45.9 55.6 46.2 55.5 46.5 55 46.6 54.7 46.5L53.2 45.7 53.7 47.3C53.8 47.6 53.6 48 53.3 48.1 53 48.2 52.6 48 52.5 47.7L52 46.1 51.2 47.6C51 47.9 50.7 48.1 50.3 47.9 50 47.7 49.9 47.3 50 47 50 47 50 47 50 47L50.8 45.5 49.2 46C48.9 46.1 48.5 45.9 48.4 45.6 48.3 45.3 48.5 44.9 48.8 44.8L50.4 44.3 48.9 43.5C48.6 43.3 48.5 42.9 48.7 42.6 48.9 42.3 49.2 42.2 49.5 42.3L51 43.1 50.5 41.5C50.4 41.2 50.6 40.8 50.9 40.7 51.2 40.6 51.6 40.8 51.7 41.1 51.7 41.1 51.7 41.1 51.7 41.1L52.2 42.7 53 41.2C53.2 40.9 53.6 40.8 53.9 40.9 54.2 41 54.3 41.5 54.2 41.8L53.4 43.3 55 42.8C55.3 42.7 55.7 42.9 55.8 43.2 55.9 43.6 55.7 43.9 55.4 44 55.4 44 55.4 44 55.4 44L55.4 44Z" fill="#FDF5E6"/><path d="M83.2 17.5C84.7 17.6 86.2 17 87.3 15.9L86.9 13.8 87.6 11.8C86.3 10 83.9 9.2 81.8 9.9 83.4 8.2 83.7 5.7 82.6 3.7L80.5 3.5 78.8 2.3C76.6 3.1 75.2 5.2 75.4 7.6 74.2 5.6 71.9 4.7 69.7 5.3L69 7.3 67.4 8.6C67.6 10.8 69.1 12.6 71.1 13.2 68.9 13.8 67.4 15.7 67.3 17.9L69 19.2 69.8 21.1C71.6 21.5 73.5 20.9 74.8 19.5 74.9 21.4 76 23.1 77.6 23.9L79.4 22.9 81.5 23C82.9 21.2 82.9 18.8 81.6 16.9 82 17.3 82.6 17.5 83.2 17.5ZM79.3 14.7 78 14.2 78.6 15.5C78.7 15.8 78.6 16.1 78.4 16.3 78.1 16.4 77.8 16.3 77.6 16.1 77.6 16.1 77.6 16.1 77.6 16.1L77 14.7 76.5 16C76.4 16.3 76.1 16.4 75.8 16.3 75.5 16.2 75.4 15.9 75.5 15.6L76 14.2 74.7 14.8C74.4 14.9 74.1 14.8 73.9 14.6 73.8 14.3 73.9 14 74.1 13.8 74.1 13.8 74.1 13.8 74.1 13.8L75.4 13.2 74 12.7C73.7 12.6 73.6 12.3 73.7 12 73.8 11.7 74.1 11.6 74.4 11.7L75.8 12.2 75.2 10.9C75.1 10.6 75.2 10.3 75.5 10.2 75.8 10.1 76.1 10.2 76.2 10.5L76.8 11.8 77.3 10.4C77.4 10.1 77.7 10 78 10.1 78.3 10.2 78.4 10.5 78.3 10.8L77.8 12.2 79.1 11.6C79.4 11.5 79.7 11.6 79.8 11.9 79.9 12.2 79.8 12.5 79.5 12.6L78.2 13.2 79.6 13.7C79.9 13.8 80.1 14.1 80 14.4 79.9 14.7 79.7 14.8 79.3 14.7 79.4 14.7 79.4 14.7 79.3 14.7L79.3 14.7Z" fill="#FDF5E6"/><path d="M90 47.9C91.3 47.4 92.3 46.3 92.7 44.9L91.5 43.4 91.3 41.5C89.5 40.5 87.2 40.9 85.8 42.4 86.4 40.4 85.6 38.2 83.9 37.1L82 37.8 80.1 37.5C78.7 39 78.4 41.4 79.5 43.2 77.7 42.1 75.5 42.3 73.9 43.7L74.1 45.6 73.3 47.3C74.3 49 76.3 49.9 78.2 49.5 76.7 50.9 76.2 53.1 77.1 54.9L79 55.2 80.4 56.5C81.8 56.2 82.9 55.2 83.5 54 83.6 53.7 83.7 53.4 83.8 53.2 84.6 54.7 86.2 55.6 87.9 55.6L89 54 90.7 53.2C91.1 51.2 90.1 49.2 88.3 48.2 89 48.2 89.5 48.1 90 47.9ZM85.7 47.1 84.4 47.3 85.4 48.1C85.6 48.3 85.7 48.6 85.5 48.8 85.3 49 85 49.1 84.8 48.9L84.8 48.9 83.8 48.1 84 49.4C84 49.7 83.8 49.9 83.6 50 83.4 50.1 83.1 49.8 83 49.6L83 49.6 82.8 48.3 82 49.3C81.8 49.5 81.5 49.5 81.3 49.4 81.1 49.2 81.1 48.9 81.2 48.7L82 47.7 80.7 47.9C80.4 47.9 80.2 47.7 80.1 47.5 80 47.3 80.3 47 80.5 46.9L81.8 46.7 80.8 45.9C80.6 45.7 80.5 45.4 80.7 45.2 80.9 45 81.2 44.9 81.4 45.1L82.4 45.9 82.2 44.6C82.2 44.3 82.4 44.1 82.6 44 82.8 43.9 83.1 44.2 83.2 44.4L83.4 45.7 84.2 44.7C84.4 44.5 84.7 44.4 84.9 44.6 85.1 44.8 85.2 45.1 85 45.3L84.2 46.3 85.5 46.1C85.8 46.1 86 46.3 86.1 46.5 86.2 46.7 86 47.1 85.7 47.1L85.7 47.1 85.7 47.1Z" fill="#FDF5E6"/><path d="M76.6 61.5C77.7 61 78.6 60.1 78.9 58.9L77.9 57.6 77.7 55.9C76.1 55.1 74.1 55.4 72.8 56.7 73.4 54.9 72.7 53 71.1 52L69.5 52.6 67.8 52.4C66.5 53.8 66.3 55.8 67.3 57.4 65.7 56.4 63.7 56.6 62.4 57.8L62.6 59.5 62 61C62.9 62.5 64.6 63.3 66.3 62.9 65 64.1 64.6 66 65.3 67.7L67 68 68.3 69.1C69.8 68.7 70.9 67.6 71.3 66.2 72 67.5 73.4 68.3 74.9 68.3L75.8 66.9 77.3 66.2C77.6 64.4 76.8 62.7 75.2 61.8 75.7 61.8 76.2 61.7 76.6 61.5ZM72.9 60.9 71.7 61 72.6 61.7C72.8 61.9 72.8 62.1 72.7 62.3 72.5 62.5 72.3 62.5 72.1 62.4L72.1 62.4 71.2 61.7 71.3 62.9C71.3 63.1 71.2 63.4 70.9 63.4 70.7 63.4 70.4 63.3 70.4 63L70.3 61.8 69.6 62.7C69.5 62.8 69.4 62.9 69.3 62.9 69.1 62.9 68.8 62.8 68.8 62.5 68.8 62.4 68.8 62.3 68.9 62.2L69.6 61.3 68.4 61.4C68.2 61.4 67.9 61.3 67.9 61 67.9 60.8 68 60.5 68.3 60.5L69.5 60.4 68.6 59.7C68.4 59.5 68.4 59.3 68.5 59.1 68.6 58.9 68.9 58.9 69.1 59 69.1 59 69.1 59 69.1 59L70 59.7 69.9 58.5C69.9 58.3 70 58 70.3 58 70.5 58 70.8 58.1 70.8 58.4 70.8 58.4 70.8 58.4 70.8 58.4L70.9 59.6 71.6 58.7C71.8 58.5 72 58.5 72.2 58.6 72.4 58.8 72.4 59 72.3 59.2L72.3 59.2 71.6 60.1 72.8 60C73 60 73.3 60.1 73.3 60.4 73.3 60.6 73.1 60.8 72.9 60.9L72.9 60.9 72.9 60.9Z" fill="#FDF5E6"/><path d="M67.1 38.9C69.9 34.7 72.4 30.3 74.5 25.7 73.9 25.2 73.4 24.7 73 24 72.3 24.2 71.5 24.3 70.8 24.3 70.2 24.3 69.6 24.2 69 24.1L68.7 24C67 27.4 65.3 30.5 63.4 33.5L64.3 36.4 67.1 38.9Z" fill="#FDF5E6"/><path d="M19.6 72.2C14.2 74.6 8.5 76.2 2.7 77L3 80 3.3 83C3.7 83 11.2 82.2 21.7 77.9 27.2 77.4 31 78.8 33.5 80.5L34 80C35 78.9 36.3 78.1 37.8 77.7 37.8 77.2 37.9 76.7 38 76.3 36.2 74.9 34.1 73.8 31.9 73.1 32.4 72.8 33 72.5 33.5 72.2 37.5 69.8 41.3 67.2 44.9 64.2 45.3 64.2 45.8 64.2 46.4 64.2 50.8 64.2 55.3 63.7 59.6 62.7 59.6 62.7 59.6 62.7 59.6 62.7L58.8 61.4 59.8 59.2 59.6 57.2C59.5 57.2 59.4 57.2 59.2 57.2L59.2 57.2C58.6 57.2 58 57.1 57.4 57 56.7 57.1 56.1 57.3 55.5 57.4 54.7 58.4 53.6 59.2 52.4 59.7L51 60.3 48.3 58.7 45.2 58.7 44 57.2C44 57.1 43.9 57 43.9 57 39.8 60.6 35.3 63.9 30.6 66.7 27.3 68.7 23.8 70.5 20.2 72L19.6 72.2Z" fill="#FDF5E6"/><path d="M52.7 84.2C53.9 83.5 54.8 82.3 55 80.9L53.6 79.5 53.1 77.6C51.1 76.9 48.9 77.5 47.7 79.2 48.1 77.1 47 75 45.1 74.1L43.4 75 41.6 75C40.3 76.7 40.4 79.1 41.7 80.8 39.8 79.9 37.5 80.4 36.1 81.9L36.6 83.8 36 85.6C37.2 87.2 39.3 87.8 41.2 87.2 39.8 88.8 39.6 91 40.7 92.8L42.6 92.9 44.2 94C45.5 93.5 46.5 92.4 47 91.1 47.1 90.8 47.2 90.5 47.2 90.2 47.4 90.4 47.6 90.7 47.8 90.9 48.8 91.9 50.2 92.3 51.6 92.1L52.5 90.4 54.1 89.4C54.2 87.3 53 85.4 51.1 84.7 51.7 84.7 52.3 84.5 52.7 84.2ZM48.4 84 47.1 84.3 48.2 85C48.4 85.1 48.5 85.5 48.4 85.7 48.3 85.9 47.9 86 47.7 85.9L46.6 85.2 46.9 86.5C47 86.8 46.8 87.1 46.6 87.2 46.3 87.3 46 87.1 45.9 86.9 45.9 86.9 45.9 86.8 45.9 86.8L45.6 85.5 44.9 86.6C44.8 86.8 44.4 86.9 44.2 86.8 44 86.7 43.9 86.3 44 86.1 44 86.1 44 86.1 44 86.1L44.7 85 43.4 85.3C43.1 85.4 42.8 85.2 42.7 85 42.6 84.7 42.8 84.4 43 84.3 43 84.3 43.1 84.3 43.1 84.3L44.4 84 43.3 83.3C43.1 83.2 43 82.8 43.1 82.6 43.2 82.4 43.6 82.3 43.8 82.4 43.8 82.4 43.8 82.4 43.8 82.4L44.9 83.1 44.6 81.8C44.5 81.5 44.7 81.2 44.9 81.1 45.2 81 45.5 81.2 45.6 81.4 45.6 81.4 45.6 81.5 45.6 81.5L45.9 82.8 46.6 81.7C46.7 81.5 47.1 81.4 47.3 81.5 47.5 81.6 47.6 82 47.5 82.2L47.5 82.2 46.8 83.3 48.1 83C48.4 83 48.6 83.1 48.7 83.4 48.7 83.7 48.6 83.9 48.4 84L48.4 84Z" fill="#FDF5E6"/></svg>