<svg viewBox="0 0 96 96" xmlns="http://www.w3.org/2000/svg" xmlns:xlink="http://www.w3.org/1999/xlink" id="Icons_Kimono" overflow="hidden"><path d="M33.871 31.247 45.18 19.938 34.55 9.308C30.3063 10.1796 26.6466 12.8435 24.513 16.614L7.764 46.219C7.23696 47.1511 7.53761 48.333 8.446 48.9L25.657 59.639C26.594 60.2239 27.8277 59.9385 28.4126 59.0015 28.5468 58.7866 28.6388 58.5482 28.684 58.299L33.484 31.859C33.5546 31.6235 33.6885 31.4118 33.871 31.247Z" fill="#FDF5E6"/><path d="M39.898 9 48.008 17.109 56.117 9 39.898 9Z" fill="#FDF5E6"/><rect x="33.82" y="38" width="28" height="10" fill="#FDF5E6"/><path d="M33.82 52 33.82 86C33.82 87.1046 34.7154 88 35.82 88L59.82 88C60.9246 88 61.82 87.1046 61.82 86L61.82 52Z" fill="#FDF5E6"/><path d="M87.877 46.219 71.128 16.619C69.0479 12.9426 65.5135 10.3142 61.394 9.38L36.773 34 61.82 34 61.82 31.111C61.815 31.0558 61.8558 31.007 61.911 31.002 61.9662 30.997 62.015 31.0378 62.02 31.093L66.957 58.3C67.1547 59.3867 68.196 60.1074 69.2827 59.9096 69.5312 59.8644 69.7688 59.7726 69.983 59.639L87.2 48.9C88.1066 48.3314 88.405 47.1499 87.877 46.219Z" fill="#FDF5E6"/></svg>