<svg viewBox="0 0 96 96" xmlns="http://www.w3.org/2000/svg" xmlns:xlink="http://www.w3.org/1999/xlink" id="Icons_SunglassesFace" overflow="hidden"><path d="M48 10C27.0132 10 10 27.0132 10 48 10 68.9868 27.0132 86 48 86 68.9868 86 86 68.9868 86 48 86 27.0132 68.9868 10 48 10ZM67.83 64.22C59.422 75.1718 43.7278 77.234 32.776 68.826 31.0463 67.4981 29.4979 65.9496 28.17 64.22 27.4962 63.3446 27.6596 62.0888 28.535 61.415 29.4104 60.7412 30.6662 60.9046 31.34 61.78 38.4007 70.9811 51.5835 72.7162 60.7845 65.6555 62.2401 64.5385 63.543 63.2356 64.66 61.78 65.3338 60.9046 66.5896 60.7412 67.465 61.415 68.3404 62.0888 68.5038 63.3446 67.83 64.22ZM75.32 39.31 74.56 39.88C74.43 42.43 74.11 46.18 73.03 48.09 71.57 50.63 67.03 53.5 62.47 53.5 54.47 53.5 50.63 47.39 49.17 41.79 48.9824 41.2049 48.4443 40.8033 47.83 40.79 47.2093 40.784 46.6609 41.1932 46.49 41.79 45.09 47.39 41.28 53.5 33.19 53.5 28.61 53.5 24.09 50.63 22.63 48.09 21.48 46.24 21.17 42.43 21.1 39.88L20.34 39.24C19.9733 38.938 19.7819 38.4726 19.83 38L19.83 35.4C19.8356 35.1666 19.9879 34.9621 20.21 34.89 21.68 34.38 27.78 32.47 32.56 32.47 36.56 32.47 45.73 34.47 47.83 34.95 49.93 34.5 59.09 32.47 63.1 32.47 67.94 32.47 74.05 34.38 75.45 34.89 75.64 34.95 75.77 35.14 75.83 35.46L75.83 38.1C75.852 38.5597 75.6644 39.0047 75.32 39.31Z"/></svg>