<svg viewBox="0 0 96 96" xmlns="http://www.w3.org/2000/svg" xmlns:xlink="http://www.w3.org/1999/xlink" id="Icons_Sushi" overflow="hidden"><path d="M91.94 55.88C89.6259 52.0224 86.9469 48.3958 83.94 45.05L83.94 45.05C83.1 44.05 82.19 43.13 81.22 42.16L81.22 42.16 79.92 40.89 79.6 40.59C79.24 40.25 78.87 39.92 78.49 39.59L78.15 39.29 76.84 38.16 76.65 38C76.12 37.56 75.58 37.12 75.03 36.7L75.03 36.7C74.47 36.27 73.9 35.85 73.33 35.44L73.33 35.44C72.86 35.1 72.33 34.77 71.87 34.44L71.87 34.44C71.38 34.11 70.87 33.8 70.37 33.44L70.37 33.44C68.0053 31.9829 65.5074 30.7541 62.91 29.77 56.5967 27.2964 49.8899 25.9787 43.11 25.88 33.9558 25.7875 25.0542 28.8808 17.93 34.63 17.0755 35.3233 16.264 36.068 15.5 36.86L15.5 36.86C10.51 41.9 7.63 48.51 6 53.51L6 53.6 5.6 54.82C5.60443 54.8766 5.60443 54.9334 5.6 54.99 5.49 55.35 5.38 55.71 5.29 55.99 5.29 56.08 5.24 56.17 5.21 56.26 5.12 56.56 5.04 56.85 4.96 57.13 4.88 57.41 4.9 57.37 4.86 57.5 4.82 57.63 4.75 57.94 4.69 58.14 4.63 58.34 4.54 58.75 4.47 59.01 4.45033 59.109 4.45033 59.211 4.47 59.31 4.46515 59.3398 4.46515 59.3702 4.47 59.4 4.46029 59.4663 4.46029 59.5337 4.47 59.6 4.46624 59.6299 4.46624 59.6601 4.47 59.69 4.4906 59.7462 4.51744 59.7998 4.55 59.85L4.55 59.93 4.72 60.11 4.72 60.11C4.78809 60.1695 4.86589 60.2168 4.95 60.25 4.95 60.25 4.95 60.25 5.03 60.25L5.21 60.25 5.59 60.25C5.68964 60.2306 5.78688 60.2004 5.88 60.16 7.71214 59.0672 9.46332 57.844 11.12 56.5 11.388 62.9275 16.6769 68.0002 23.11 68L73 68C78.1353 67.9948 82.6981 64.7224 84.35 59.86 84.35 59.86 87.66 59.58 92 56ZM78.63 43.83C79.12 44.31 79.63 44.83 80.05 45.28 75.55 48.51 72.58 52.44 71.49 56.55 70.83 56.42 70.18 56.27 69.54 56.12 70.71 51.61 73.86 47.33 78.63 43.83ZM70.85 37.36C71.42 37.76 71.98 38.16 72.53 38.57 66.86 43.21 63.35 48.78 62.65 54.09 62.01 53.88 61.38 53.66 60.75 53.43 61.62 47.87 65.17 42.15 70.85 37.36ZM62.46 32.85C63.16 33.13 63.85 33.42 64.53 33.74 58.3 39.05 54.35 45.09 53.34 50.59L51.4 49.83C52.53 44.2 56.38 38.22 62.46 32.85ZM52 29.78C52.79 29.93 53.57 30.1 54.37 30.29 48.65 35.52 44.88 41.57 43.54 47.29 42.91 47.16 42.26 47.04 41.6 46.93 43 41.13 46.56 35.08 52 29.78ZM40.2 29C41.1 28.94 42 28.9 42.92 28.9 37.92 34.46 34.68 40.67 33.61 46.41 32.95 46.41 32.28 46.41 31.61 46.49 32.9124 40.0152 35.8721 33.9889 40.2 29ZM26.71 32.55C27.8206 32.0105 28.9588 31.5298 30.12 31.11 26.3805 35.924 23.9022 41.5955 22.91 47.61 22.23 47.75 21.56 47.91 20.91 48.07 21.6364 42.5225 23.6202 37.2142 26.71 32.55ZM13.25 51.48C12.58 51.92 11.91 52.37 11.25 52.83 11.1916 51.062 11.3156 49.2926 11.62 47.55 12.7162 45.3155 14.0363 43.198 15.56 41.23 14.1699 44.4767 13.387 47.9509 13.25 51.48ZM73 64 23.11 64C18.6917 64 15.11 60.4183 15.11 56L15.11 53.85C16.125 53.1038 17.2263 52.4827 18.39 52 22.5239 50.5466 26.8442 49.6913 31.22 49.46 31.9 49.46 34.46 49.35 35.06 49.36 35.49 49.36 37.59 49.45 38.21 49.5 38.61 49.5 40.21 49.7 40.56 49.76 41.9108 49.94 43.2474 50.214 44.56 50.58L44.56 50.58C45.02 50.71 47.14 51.42 47.56 51.58L49.22 52.2C49.35 52.2 56.11 54.91 56.55 55.07L58.55 55.81C58.73 55.88 63.26 57.48 65.47 58.12 65.67 58.18 73.47 60.21 76.33 60.35 77.27 60.35 79.4 60.48 79.61 60.47 78.1281 62.6696 75.6523 63.9918 73 64ZM81 57.56 78.73 57.56C80.0896 54.8384 82.1244 52.5109 84.64 50.8L85.85 52.39C83 53.67 81 57.56 81 57.56Z" stroke="#ED7D31" fill="#ED7D31"/></svg>