<svg viewBox="0 0 96 96" xmlns="http://www.w3.org/2000/svg" xmlns:xlink="http://www.w3.org/1999/xlink" id="Icons_Sushi_M" overflow="hidden"><g id="Icons"><path d="M73 64.7 23.1 64.7C18.5 64.7 14.6 61.2 14.1 56.6 13.5 57 12.9 57.5 12.3 57.9 13.4 63 17.9 66.6 23.1 66.7L73 66.7C76.6 66.7 79.9 65 82 62 81.1 62.1 80.2 62.2 79.2 62.2 77.5 63.8 75.3 64.7 73 64.7Z" stroke="#ED7D31" fill="#ED7D31"/><path d="M14.4 54C16.2 52.7 18.3 51.7 20.4 51 25 49.7 29.8 49.1 34.6 49.1 38 49.1 41.3 49.5 44.6 50.3 51.7 52.3 63.6 58.7 76.3 60.1 77.2 60.2 78.1 60.2 79 60.2 87.6 60.2 92 55.7 92 55.7 92 55.7 81.2 36.3 62.9 29.5 56.6 27 49.9 25.7 43.1 25.6 33.9 25.5 25 28.6 17.9 34.3 8.9 41.5 5.6 54.1 4.4 58.7 4.2 59.3 4.6 59.9 5.2 60 5.5 60.1 5.7 60 6 59.9 7.9 59 11 56.2 14.4 54L14.4 54ZM89.4 55.2C86.8 56.9 83.8 57.9 80.6 58.1 82 55.4 84.2 53.1 86.8 51.4 87.9 53 88.8 54.3 89.4 55.2ZM85.6 49.8C82.4 51.8 79.9 54.7 78.4 58.1 77.8 58.1 77.2 58.1 76.5 58 74.7 57.8 73 57.5 71.2 57.1 72.1 52.4 75.5 47.9 80.8 44.3 82.7 46.3 84.3 48.2 85.6 49.8ZM79.4 42.9C73.8 46.7 70.2 51.6 69.2 56.7 66.9 56.1 64.6 55.5 62.4 54.7 62.8 48.8 66.7 42.5 73.2 37.5 75.5 39.2 77.5 41 79.4 42.9ZM71.6 36.4C65 41.6 61.1 47.9 60.5 54.1 57.9 53.2 55.5 52.2 53.3 51.3L53.1 51.2C53.8 45.2 58.3 38.4 65.3 32.6 67.5 33.8 69.6 35 71.6 36.4ZM55.3 29.2C57.6 29.8 59.9 30.5 62.2 31.4 62.6 31.5 63 31.7 63.3 31.9 56.4 37.7 52.1 44.4 51.2 50.6 48.9 49.7 46.9 49 45.1 48.4 44.5 48.2 43.9 48.1 43.3 48 44.6 41.5 48.9 34.8 55.3 29.2ZM43.8 27.6C46.8 27.7 49.9 28 52.9 28.6 46.7 34.3 42.6 41.1 41.4 47.6 39.2 47.3 36.9 47.1 34.6 47.1 34.2 47.1 33.8 47.1 33.4 47.1 34.4 40.6 38.1 33.6 43.8 27.6ZM41.1 27.6C35.7 33.7 32.3 40.7 31.4 47.2 28.5 47.4 25.6 47.8 22.8 48.4 23.4 42.2 26.4 35.4 31.2 29.4 34.3 28.4 37.6 27.8 40.9 27.7 41 27.6 41.1 27.6 41.1 27.6ZM12.3 53C11.2 53.8 10.1 54.6 9.1 55.3 8.3 55.9 7.6 56.4 6.9 56.9 6.9 56.9 6.9 56.9 6.9 56.9 8.3 51.4 10.7 46.1 13.9 41.4 13.9 41.4 13.9 41.4 13.9 41.4 12.7 45.2 12.1 49.1 12.3 53ZM18 36.8C18.4 36.5 18.7 36.2 19.1 35.9 21.7 33.8 24.6 32 27.7 30.7 23.6 36.6 21.1 43 20.7 48.9 20.4 49 20.1 49 19.8 49.1 17.8 49.7 15.9 50.6 14.2 51.8 14.4 46.5 15.7 41.4 18 36.8Z" stroke="#ED7D31" fill="#ED7D31"/></g></svg>